SplineFontDB: 3.0
FontName: FatemiMaqala-Regular
FullName: FatemiMaqala Regular
FamilyName: FatemiMaqala
Weight: Regular
Copyright: All the rights are reserved to Dawat Hadiyah
Version: 1.3
ItalicAngle: 0
UnderlinePosition: -1250
UnderlineWidth: 100
Ascent: 1638
Descent: 410
InvalidEm: 0
LayerCount: 4
Layer: 0 1 "Back" 1
Layer: 1 1 "Fore" 0
Layer: 2 0 "Back 2" 1
Layer: 3 1 "Back 3" 1
XUID: [1021 574 -2067448607 5288500]
UseXUID: 1
UseUniqueID: 1
StyleMap: 0x0040
FSType: 0
OS2Version: 0
OS2_WeightWidthSlopeOnly: 0
OS2_UseTypoMetrics: 1
CreationTime: 1033018408
ModificationTime: 1470571322
PfmFamily: 17
TTFWeight: 400
TTFWidth: 5
LineGap: -100
VLineGap: 0
Panose: 0 0 0 0 0 0 0 0 0 0
OS2TypoAscent: 2500
OS2TypoAOffset: 0
OS2TypoDescent: -1400
OS2TypoDOffset: 0
OS2TypoLinegap: -100
OS2WinAscent: 2500
OS2WinAOffset: 0
OS2WinDescent: 1400
OS2WinDOffset: 0
HheadAscent: 2500
HheadAOffset: 0
HheadDescent: -1400
HheadDOffset: 0
OS2Vendor: 'GLYF'
Lookup: 1 0 0 "dotlessi" { "'ccmp' Glyph Composition/Decomposition in Latin lookup 10 subtable"  } ['ccmp' ('latn' <'TRK ' > ) ]
Lookup: 1 0 0 "tildeToMadda" { "'locl' Localized Forms in Arabic lookup 30-1"  } ['locl' ('arab' <'ARA ' 'FAR ' 'URD ' 'dflt' > ) ]
Lookup: 1 8 0 "urduSubs" { "'locl' Localized Forms in Arabic lookup 18-1"  } ['locl' ('arab' <'URD ' > ) ]
Lookup: 1 8 0 "lsdSubs" { "'locl' Localized Forms in Arabic lookup 25-1"  } ['locl' ('arab' <'FAR ' > ) ]
Lookup: 2 0 0 "longlaamkaafs" { "longlaamkaafs-1"  } []
Lookup: 3 0 0 "shortalefs" { "'aalt' Access All Alternates lookup 8 subtable"  } []
Lookup: 1 0 0 "straightrehs" { "straightrehs-1"  } []
Lookup: 1 8 0 "hehgoal" { "hehgoal-1"  } []
Lookup: 1 0 0 "jalaalahzabr" { "jalaalahzabr-1"  } []
Lookup: 1 8 0 "'fina' Terminal Forms in Arabic lookup 4" { "'fina' Terminal Forms in Arabic lookup 4 subtable"  } ['fina' ('DFLT' <'dflt' > 'arab' <'ARA ' 'FAR ' 'URD ' 'dflt' > 'cyrl' <'dflt' > 'latn' <'TRK ' 'dflt' > ) ]

StartChar: .notdef
Encoding: 1202 -1 0
Width: 748
Flags: W
LayerCount: 4
Fore
SplineSet
68 0 m 1,0,-1
 68 1365 l 1,1,-1
 612 1365 l 1,2,-1
 612 0 l 1,3,-1
 68 0 l 1,0,-1
136 68 m 1,4,-1
 544 68 l 1,5,-1
 544 1297 l 1,6,-1
 136 1297 l 1,7,-1
 136 68 l 1,4,-1
EndSplineSet
Validated: 1
EndChar

StartChar: exclam
Encoding: 1 33 4
Width: 482
GlyphClass: 2
Flags: W
LayerCount: 4
Fore
SplineSet
130 90 m 128,-1,1
 130 135 130 135 163.5 166.5 c 128,-1,2
 197 198 197 198 242 198 c 128,-1,3
 287 198 287 198 318.5 166.5 c 128,-1,4
 350 135 350 135 350 90 c 128,-1,5
 350 45 350 45 318.5 11.5 c 128,-1,6
 287 -22 287 -22 242 -22 c 128,-1,7
 197 -22 197 -22 163.5 11.5 c 128,-1,0
 130 45 130 45 130 90 c 128,-1,1
250 1284 m 0,8,9
 293 1284 293 1284 315.5 1248.5 c 128,-1,10
 338 1213 338 1213 338 1168 c 0,11,12
 338 1143 338 1143 330.5 1054.5 c 128,-1,13
 323 966 323 966 304 753.5 c 128,-1,14
 285 541 285 541 268 344 c 1,15,16
 256 320 256 320 236 318 c 1,17,18
 217 326 217 326 210 340 c 1,19,20
 150 1030 150 1030 150 1168 c 0,21,22
 150 1213 150 1213 177.5 1248.5 c 128,-1,23
 205 1284 205 1284 250 1284 c 0,8,9
EndSplineSet
Validated: 1
Substitution2: "'smcp' Lowercase to Small Capitals lookup 12 subtable" exclam.sc
EndChar

StartChar: quotedbl
Encoding: 2 34 5
Width: 560
GlyphClass: 2
Flags: W
LayerCount: 4
Fore
SplineSet
422 1398 m 0,0,1
 453 1398 453 1398 474 1372 c 1,2,3
 474 1328 474 1328 464.5 1194.5 c 128,-1,4
 455 1061 455 1061 446 984 c 1,5,6
 434 960 434 960 406 946 c 1,7,8
 394 946 394 946 388 958 c 0,9,10
 318 1198 318 1198 318 1258 c 0,11,12
 318 1305 318 1305 348 1351.5 c 128,-1,13
 378 1398 378 1398 422 1398 c 0,0,1
182 1398 m 0,14,15
 213 1398 213 1398 234 1372 c 1,16,17
 234 1328 234 1328 224.5 1194.5 c 128,-1,18
 215 1061 215 1061 206 984 c 1,19,20
 194 960 194 960 166 946 c 1,21,22
 154 946 154 946 148 958 c 0,23,24
 78 1198 78 1198 78 1258 c 0,25,26
 78 1305 78 1305 108 1351.5 c 128,-1,27
 138 1398 138 1398 182 1398 c 0,14,15
EndSplineSet
Validated: 1
EndChar

StartChar: numbersign
Encoding: 3 35 6
Width: 960
GlyphClass: 2
Flags: W
LayerCount: 4
Fore
SplineSet
651 454 m 1,0,-1
 785 454 l 2,1,2
 798 454 798 454 799.5 432 c 128,-1,3
 801 410 801 410 792 386 c 128,-1,4
 783 362 783 362 771 356 c 1,5,-1
 635 356 l 1,6,-1
 603 154 l 2,7,8
 601 146 601 146 588 137 c 128,-1,9
 575 128 575 128 555 128 c 0,10,11
 546 128 546 128 540.5 130 c 128,-1,12
 535 132 535 132 534 134 c 2,13,-1
 533 136 l 1,14,-1
 568 356 l 1,15,-1
 312 356 l 1,16,-1
 279 154 l 2,17,18
 277 146 277 146 265 137 c 128,-1,19
 253 128 253 128 233 128 c 0,20,21
 224 128 224 128 218.5 130 c 128,-1,22
 213 132 213 132 212 134 c 2,23,-1
 211 136 l 1,24,-1
 246 356 l 1,25,-1
 113 356 l 2,26,27
 102 359 102 359 101.5 379.5 c 128,-1,28
 101 400 101 400 111 425 c 128,-1,29
 121 450 121 450 133 454 c 1,30,-1
 262 454 l 1,31,-1
 307 738 l 1,32,-1
 169 738 l 2,33,34
 158 738 158 738 157.5 761 c 128,-1,35
 157 784 157 784 166 808 c 128,-1,36
 175 832 175 832 187 836 c 1,37,-1
 323 836 l 1,38,-1
 355 1036 l 2,39,40
 358 1046 358 1046 359 1048 c 128,-1,41
 360 1050 360 1050 364.5 1055 c 128,-1,42
 369 1060 369 1060 377 1061 c 128,-1,43
 385 1062 385 1062 399 1062 c 0,44,45
 416 1062 416 1062 425 1056 c 1,46,-1
 389 836 l 1,47,-1
 645 836 l 1,48,-1
 677 1036 l 2,49,50
 680 1046 680 1046 681 1048 c 128,-1,51
 682 1050 682 1050 686.5 1055 c 128,-1,52
 691 1060 691 1060 699 1061 c 128,-1,53
 707 1062 707 1062 721 1062 c 0,54,55
 738 1062 738 1062 747 1056 c 1,56,-1
 712 836 l 1,57,-1
 839 836 l 2,58,59
 852 836 852 836 854 814 c 128,-1,60
 856 792 856 792 847.5 768 c 128,-1,61
 839 744 839 744 827 738 c 1,62,-1
 696 738 l 1,63,-1
 651 454 l 1,0,-1
584 454 m 1,64,-1
 629 738 l 1,65,-1
 374 738 l 1,66,-1
 328 454 l 1,67,-1
 584 454 l 1,64,-1
EndSplineSet
Validated: 1
EndChar

StartChar: dollar
Encoding: 4 36 7
Width: 996
GlyphClass: 2
Flags: W
LayerCount: 4
Fore
SplineSet
584 1366 m 1,0,1
 654 1366 654 1366 654 1352 c 2,2,-1
 640 1265 l 1,3,4
 663 1260 663 1260 715 1246 c 128,-1,5
 767 1232 767 1232 804 1224 c 1,6,7
 812 1189 812 1189 817.5 1143.5 c 128,-1,8
 823 1098 823 1098 824.5 1071.5 c 128,-1,9
 826 1045 826 1045 827 1000 c 128,-1,10
 828 955 828 955 828 952 c 0,11,12
 815 944 815 944 792 944 c 0,13,14
 774 944 774 944 764 954 c 1,15,16
 757 1009 757 1009 719.5 1072.5 c 128,-1,17
 682 1136 682 1136 625 1174 c 1,18,-1
 548 711 l 2,19,20
 550 710 550 710 555 707 c 128,-1,21
 560 704 560 704 562 702 c 0,22,23
 577 692 577 692 612 671 c 128,-1,24
 647 650 647 650 668 637 c 128,-1,25
 689 624 689 624 722.5 600.5 c 128,-1,26
 756 577 756 577 777 558 c 128,-1,27
 798 539 798 539 823 511.5 c 128,-1,28
 848 484 848 484 862 458 c 128,-1,29
 876 432 876 432 886 399.5 c 128,-1,30
 896 367 896 367 896 332 c 0,31,32
 896 230 896 230 838 148 c 128,-1,33
 780 66 780 66 689 23 c 128,-1,34
 598 -20 598 -20 494 -20 c 0,35,36
 461 -20 461 -20 428 -17 c 1,37,-1
 414 -104 l 1,38,39
 393 -104 393 -104 368.5 -99.5 c 128,-1,40
 344 -95 344 -95 344 -86 c 2,41,-1
 357 -8 l 1,42,43
 337 -5 337 -5 148 36 c 1,44,45
 132 114 132 114 117 212.5 c 128,-1,46
 102 311 102 311 102 330 c 1,47,48
 108 336 108 336 124.5 341 c 128,-1,49
 141 346 141 346 152 346 c 0,50,51
 169 346 169 346 174 336 c 0,52,53
 180 309 180 309 189.5 281.5 c 128,-1,54
 199 254 199 254 220 210.5 c 128,-1,55
 241 167 241 167 280 130 c 128,-1,56
 319 93 319 93 370 72 c 1,57,-1
 452 568 l 1,58,59
 406 595 406 595 378 612.5 c 128,-1,60
 350 630 350 630 308 660 c 128,-1,61
 266 690 266 690 240 717 c 128,-1,62
 214 744 214 744 188 779 c 128,-1,63
 162 814 162 814 150 854.5 c 128,-1,64
 138 895 138 895 138 940 c 0,65,66
 138 1038 138 1038 192 1117 c 128,-1,67
 246 1196 246 1196 331.5 1237 c 128,-1,68
 417 1278 417 1278 514 1278 c 0,69,70
 535 1278 535 1278 569 1276 c 1,71,-1
 584 1366 l 1,0,1
519 530 m 1,72,-1
 440 52 l 1,73,74
 464 48 464 48 498 48 c 0,75,76
 593 48 593 48 660.5 110 c 128,-1,77
 728 172 728 172 728 280 c 0,78,79
 728 303 728 303 724 324 c 128,-1,80
 720 345 720 345 715.5 361 c 128,-1,81
 711 377 711 377 698 394.5 c 128,-1,82
 685 412 685 412 678.5 422 c 128,-1,83
 672 432 672 432 652 447.5 c 128,-1,84
 632 463 632 463 624 469 c 128,-1,85
 616 475 616 475 590 490.5 c 128,-1,86
 564 506 564 506 556 510 c 2,87,-1
 519 530 l 1,72,-1
482 751 m 1,88,-1
 557 1205 l 1,89,90
 532 1212 532 1212 502 1212 c 0,91,92
 442 1212 442 1212 399 1192.5 c 128,-1,93
 356 1173 356 1173 333.5 1140 c 128,-1,94
 311 1107 311 1107 301.5 1072.5 c 128,-1,95
 292 1038 292 1038 292 1000 c 0,96,97
 292 956 292 956 306.5 919.5 c 128,-1,98
 321 883 321 883 351 852 c 128,-1,99
 381 821 381 821 409 800 c 128,-1,100
 437 779 437 779 482 751 c 1,88,-1
EndSplineSet
Validated: 1
EndChar

StartChar: percent
Encoding: 5 37 8
Width: 1334
GlyphClass: 2
Flags: W
LayerCount: 4
Fore
SplineSet
372 1242 m 0,0,1
 316 1242 316 1242 277.5 1203 c 128,-1,2
 239 1164 239 1164 223.5 1109.5 c 128,-1,3
 208 1055 208 1055 208 992 c 0,4,5
 208 885 208 885 263.5 792.5 c 128,-1,6
 319 700 319 700 392 700 c 0,7,8
 433 700 433 700 464 722.5 c 128,-1,9
 495 745 495 745 511 783 c 128,-1,10
 527 821 527 821 534.5 863 c 128,-1,11
 542 905 542 905 542 952 c 0,12,13
 542 1021 542 1021 522 1086.5 c 128,-1,14
 502 1152 502 1152 462 1197 c 128,-1,15
 422 1242 422 1242 372 1242 c 0,0,1
380 1290 m 0,16,17
 508 1290 508 1290 591 1195.5 c 128,-1,18
 674 1101 674 1101 674 968 c 0,19,20
 674 887 674 887 639.5 815 c 128,-1,21
 605 743 605 743 536 696.5 c 128,-1,22
 467 650 467 650 380 650 c 0,23,24
 255 650 255 650 167.5 743 c 128,-1,25
 80 836 80 836 80 968 c 0,26,27
 80 1104 80 1104 164.5 1197 c 128,-1,28
 249 1290 249 1290 380 1290 c 0,16,17
950 578 m 0,29,30
 894 578 894 578 855 539 c 128,-1,31
 816 500 816 500 800 445.5 c 128,-1,32
 784 391 784 391 784 328 c 0,33,34
 784 221 784 221 840.5 128.5 c 128,-1,35
 897 36 897 36 970 36 c 0,36,37
 1011 36 1011 36 1041.5 58.5 c 128,-1,38
 1072 81 1072 81 1088 119 c 128,-1,39
 1104 157 1104 157 1111 199 c 128,-1,40
 1118 241 1118 241 1118 288 c 0,41,42
 1118 357 1118 357 1098.5 422.5 c 128,-1,43
 1079 488 1079 488 1039.5 533 c 128,-1,44
 1000 578 1000 578 950 578 c 0,29,30
958 626 m 0,45,46
 1086 626 1086 626 1168 532 c 128,-1,47
 1250 438 1250 438 1250 304 c 0,48,49
 1250 177 1250 177 1169 81.5 c 128,-1,50
 1088 -14 1088 -14 956 -14 c 0,51,52
 831 -14 831 -14 743.5 79 c 128,-1,53
 656 172 656 172 656 304 c 0,54,55
 656 440 656 440 741 533 c 128,-1,56
 826 626 826 626 958 626 c 0,45,46
1196 1248 m 1,57,-1
 230 0 l 2,58,59
 224 -8 224 -8 202.5 -16 c 128,-1,60
 181 -24 181 -24 164 -24 c 0,61,62
 139 -24 139 -24 128 -2 c 1,63,-1
 1092 1248 l 2,64,65
 1112 1272 1112 1272 1132 1272 c 0,66,67
 1153 1272 1153 1272 1164 1270.5 c 128,-1,68
 1175 1269 1175 1269 1178.5 1267.5 c 128,-1,69
 1182 1266 1182 1266 1187 1259 c 128,-1,70
 1192 1252 1192 1252 1196 1248 c 1,57,-1
EndSplineSet
Validated: 1
EndChar

StartChar: ampersand
Encoding: 6 38 9
Width: 1366
GlyphClass: 2
Flags: W
LayerCount: 4
Fore
SplineSet
812 190 m 1,0,1
 754 249 754 249 672 358.5 c 128,-1,2
 590 468 590 468 537 548 c 2,3,-1
 484 628 l 1,4,5
 440 598 440 598 419.5 583 c 128,-1,6
 399 568 399 568 366 538.5 c 128,-1,7
 333 509 333 509 318 484 c 128,-1,8
 303 459 303 459 290.5 422.5 c 128,-1,9
 278 386 278 386 278 344 c 0,10,11
 278 212 278 212 360 146 c 128,-1,12
 442 80 442 80 562 80 c 0,13,14
 624 80 624 80 694.5 110 c 128,-1,15
 765 140 765 140 812 190 c 1,0,1
626 1240 m 0,16,17
 560 1240 560 1240 514 1197 c 128,-1,18
 468 1154 468 1154 468 1086 c 0,19,20
 468 958 468 958 572 770 c 1,21,22
 641 810 641 810 680 843.5 c 128,-1,23
 719 877 719 877 744.5 931.5 c 128,-1,24
 770 986 770 986 770 1060 c 0,25,26
 770 1132 770 1132 730 1186 c 128,-1,27
 690 1240 690 1240 626 1240 c 0,16,17
616 1312 m 0,28,29
 750 1312 750 1312 828 1253.5 c 128,-1,30
 906 1195 906 1195 906 1088 c 0,31,32
 906 1023 906 1023 882.5 967 c 128,-1,33
 859 911 859 911 812.5 863.5 c 128,-1,34
 766 816 766 816 720.5 781.5 c 128,-1,35
 675 747 675 747 608 706 c 1,36,37
 725 509 725 509 904 308 c 1,38,39
 954 384 954 384 986 453.5 c 128,-1,40
 1018 523 1018 523 1018 542 c 0,41,42
 1018 560 1018 560 1000 567.5 c 128,-1,43
 982 575 982 575 955.5 576.5 c 128,-1,44
 929 578 929 578 928 578 c 0,45,46
 923 587 923 587 923.5 602.5 c 128,-1,47
 924 618 924 618 930 624 c 1,48,-1
 1088 624 l 2,49,50
 1119 624 1119 624 1152 625.5 c 128,-1,51
 1185 627 1185 627 1229.5 630 c 128,-1,52
 1274 633 1274 633 1308 634 c 0,53,54
 1312 631 1312 631 1311.5 604.5 c 128,-1,55
 1311 578 1311 578 1306 578 c 0,56,57
 1280 578 1280 578 1232 566 c 128,-1,58
 1184 554 1184 554 1168 544 c 0,59,60
 1165 542 1165 542 1139 498.5 c 128,-1,61
 1113 455 1113 455 1063 381.5 c 128,-1,62
 1013 308 1013 308 960 246 c 1,63,64
 1006 198 1006 198 1024 179.5 c 128,-1,65
 1042 161 1042 161 1071.5 134.5 c 128,-1,66
 1101 108 1101 108 1120 99 c 128,-1,67
 1139 90 1139 90 1156 90 c 0,68,69
 1184 90 1184 90 1217 123.5 c 128,-1,70
 1250 157 1250 157 1260 182 c 1,71,72
 1276 182 1276 182 1291 169.5 c 128,-1,73
 1306 157 1306 157 1306 146 c 1,74,75
 1301 134 1301 134 1295 123 c 128,-1,76
 1289 112 1289 112 1270 87.5 c 128,-1,77
 1251 63 1251 63 1229 45.5 c 128,-1,78
 1207 28 1207 28 1169 14 c 128,-1,79
 1131 0 1131 0 1088 0 c 0,80,81
 1055 0 1055 0 1019 15 c 128,-1,82
 983 30 983 30 955.5 51 c 128,-1,83
 928 72 928 72 905 93 c 128,-1,84
 882 114 882 114 870 129 c 2,85,-1
 858 144 l 1,86,87
 782 77 782 77 685.5 35.5 c 128,-1,88
 589 -6 589 -6 494 -6 c 0,89,90
 317 -6 317 -6 211.5 80 c 128,-1,91
 106 166 106 166 106 316 c 0,92,93
 106 385 106 385 132.5 443.5 c 128,-1,94
 159 502 159 502 210.5 549 c 128,-1,95
 262 596 262 596 313.5 629.5 c 128,-1,96
 365 663 365 663 438 700 c 1,97,98
 401 764 401 764 381 802.5 c 128,-1,99
 361 841 361 841 341.5 907.5 c 128,-1,100
 322 974 322 974 322 1038 c 0,101,102
 322 1153 322 1153 406.5 1232.5 c 128,-1,103
 491 1312 491 1312 616 1312 c 0,28,29
EndSplineSet
Validated: 1
Substitution2: "'smcp' Lowercase to Small Capitals lookup 12 subtable" ampersand.sc
EndChar

StartChar: quotesingle
Encoding: 7 39 10
Width: 320
GlyphClass: 2
Flags: W
LayerCount: 4
Fore
SplineSet
182 1398 m 0,0,1
 213 1398 213 1398 234 1372 c 1,2,3
 234 1328 234 1328 224.5 1194.5 c 128,-1,4
 215 1061 215 1061 206 984 c 1,5,6
 194 960 194 960 166 946 c 1,7,8
 154 946 154 946 148 958 c 0,9,10
 78 1198 78 1198 78 1258 c 0,11,12
 78 1305 78 1305 108 1351.5 c 128,-1,13
 138 1398 138 1398 182 1398 c 0,0,1
EndSplineSet
Validated: 1
Substitution2: "'smcp' Lowercase to Small Capitals lookup 12 subtable" quotesingle.sc
EndChar

StartChar: parenleft
Encoding: 8 40 11
Width: 524
GlyphClass: 2
Flags: W
LayerCount: 4
Fore
SplineSet
220 570 m 128,-1,1
 220 324 220 324 298 92 c 128,-1,2
 376 -140 376 -140 512 -260 c 1,3,4
 511 -262 511 -262 506 -268 c 0,5,6
 500 -276 500 -276 490 -286 c 128,-1,7
 480 -296 480 -296 474 -300 c 1,8,9
 290 -155 290 -155 182 67.5 c 128,-1,10
 74 290 74 290 74 570 c 0,11,12
 74 851 74 851 181.5 1072 c 128,-1,13
 289 1293 289 1293 474 1438 c 1,14,15
 480 1434 480 1434 490 1424 c 128,-1,16
 500 1414 500 1414 505 1408 c 128,-1,17
 510 1402 510 1402 512 1398 c 1,18,19
 376 1277 376 1277 298 1046.5 c 128,-1,0
 220 816 220 816 220 570 c 128,-1,1
EndSplineSet
Validated: 1
Substitution2: "'smcp' Lowercase to Small Capitals lookup 12 subtable" parenleft.sc
EndChar

StartChar: parenright
Encoding: 9 41 12
Width: 524
GlyphClass: 2
Flags: W
LayerCount: 4
Fore
SplineSet
450 570 m 0,0,1
 450 290 450 290 342 67.5 c 128,-1,2
 234 -155 234 -155 50 -300 c 1,3,4
 44 -296 44 -296 34 -286 c 128,-1,5
 24 -276 24 -276 19.5 -270 c 128,-1,6
 15 -264 15 -264 12 -260 c 1,7,8
 148 -140 148 -140 226 92 c 128,-1,9
 304 324 304 324 304 570 c 128,-1,10
 304 816 304 816 226 1046.5 c 128,-1,11
 148 1277 148 1277 12 1398 c 1,12,13
 13 1400 13 1400 18.5 1407 c 128,-1,14
 24 1414 24 1414 34 1424 c 128,-1,15
 44 1434 44 1434 50 1438 c 1,16,17
 235 1293 235 1293 342.5 1072 c 128,-1,18
 450 851 450 851 450 570 c 0,0,1
EndSplineSet
Validated: 1
Substitution2: "'smcp' Lowercase to Small Capitals lookup 12 subtable" parenright.sc
EndChar

StartChar: plus
Encoding: 11 43 13
Width: 1084
GlyphClass: 2
Flags: W
LayerCount: 4
Fore
SplineSet
484 948 m 1,0,1
 543 970 543 970 570 970 c 0,2,3
 579 970 579 970 585.5 967 c 128,-1,4
 592 964 592 964 594 961 c 2,5,-1
 596 958 l 1,6,-1
 596 548 l 1,7,-1
 1004 548 l 2,8,9
 1011 548 1011 548 1016.5 541.5 c 128,-1,10
 1022 535 1022 535 1022 524 c 0,11,12
 1022 500 1022 500 1012.5 474.5 c 128,-1,13
 1003 449 1003 449 990 436 c 1,14,-1
 596 436 l 1,15,-1
 596 32 l 1,16,17
 567 10 567 10 510 10 c 0,18,19
 500 10 500 10 492 16 c 128,-1,20
 484 22 484 22 484 28 c 2,21,-1
 484 436 l 1,22,-1
 74 436 l 2,23,24
 62 436 62 436 62 456 c 0,25,26
 62 469 62 469 70.5 503.5 c 128,-1,27
 79 538 79 538 92 548 c 1,28,-1
 484 548 l 1,29,-1
 484 948 l 1,0,1
EndSplineSet
Validated: 1
EndChar

StartChar: comma
Encoding: 12 44 14
Width: 402
GlyphClass: 2
Flags: W
LayerCount: 4
Fore
SplineSet
212 246 m 0,0,1
 240 246 240 246 264 232 c 1,2,3
 300 170 300 170 300 92 c 0,4,5
 300 8 300 8 221 -113.5 c 128,-1,6
 142 -235 142 -235 64 -278 c 1,7,8
 54 -278 54 -278 44 -262 c 128,-1,9
 34 -246 34 -246 34 -236 c 1,10,11
 57 -219 57 -219 72 -205.5 c 128,-1,12
 87 -192 87 -192 111 -163.5 c 128,-1,13
 135 -135 135 -135 147.5 -97 c 128,-1,14
 160 -59 160 -59 160 -14 c 0,15,16
 160 18 160 18 127 63 c 128,-1,17
 94 108 94 108 94 148 c 0,18,19
 94 183 94 183 127.5 214.5 c 128,-1,20
 161 246 161 246 212 246 c 0,0,1
EndSplineSet
Validated: 1
Substitution2: "'smcp' Lowercase to Small Capitals lookup 12 subtable" comma.sc
Substitution2: "'c2sc' Capitals to Small Capitals in Latin lookup 11 subtable" comma.sc
EndChar

StartChar: hyphen
Encoding: 13 45 15
Width: 754
GlyphClass: 2
Flags: W
LayerCount: 4
Fore
SplineSet
142 522 m 1,0,1
 558 544 558 544 624 546 c 0,2,3
 638 546 638 546 638 528 c 0,4,5
 638 475 638 475 612 420 c 1,6,7
 571 417 571 417 130 398 c 0,8,9
 116 398 116 398 116 420 c 0,10,11
 116 466 116 466 142 522 c 1,0,1
EndSplineSet
Validated: 1
EndChar

StartChar: period
Encoding: 14 46 16
Width: 414
GlyphClass: 2
Flags: W
LayerCount: 4
Fore
SplineSet
96 90 m 128,-1,1
 96 135 96 135 129.5 166.5 c 128,-1,2
 163 198 163 198 208 198 c 128,-1,3
 253 198 253 198 284.5 166.5 c 128,-1,4
 316 135 316 135 316 90 c 128,-1,5
 316 45 316 45 284.5 11.5 c 128,-1,6
 253 -22 253 -22 208 -22 c 128,-1,7
 163 -22 163 -22 129.5 11.5 c 128,-1,0
 96 45 96 45 96 90 c 128,-1,1
EndSplineSet
Validated: 1
Substitution2: "'smcp' Lowercase to Small Capitals lookup 12 subtable" period.sc
Substitution2: "'c2sc' Capitals to Small Capitals in Latin lookup 11 subtable" period.sc
EndChar

StartChar: slash
Encoding: 15 47 17
Width: 826
GlyphClass: 2
Flags: W
LayerCount: 4
Fore
SplineSet
738 1522 m 0,0,1
 758 1522 758 1522 764 1504 c 1,2,-1
 174 -24 l 2,3,4
 168 -39 168 -39 147 -54.5 c 128,-1,5
 126 -70 126 -70 96 -70 c 0,6,7
 83 -70 83 -70 74 -66.5 c 128,-1,8
 65 -63 65 -63 62 -60 c 2,9,-1
 60 -56 l 1,10,-1
 658 1492 l 2,11,12
 659 1496 659 1496 668.5 1502.5 c 128,-1,13
 678 1509 678 1509 697 1515.5 c 128,-1,14
 716 1522 716 1522 738 1522 c 0,0,1
EndSplineSet
Validated: 1
Substitution2: "'smcp' Lowercase to Small Capitals lookup 12 subtable" slash.sc
EndChar

StartChar: zero
Encoding: 16 48 18
Width: 1090
GlyphClass: 2
Flags: W
LayerCount: 4
Fore
SplineSet
556 1208 m 0,0,1
 474 1208 474 1208 411.5 1131 c 128,-1,2
 349 1054 349 1054 316.5 926 c 128,-1,3
 284 798 284 798 284 640 c 0,4,5
 284 484 284 484 315.5 353.5 c 128,-1,6
 347 223 347 223 405.5 145.5 c 128,-1,7
 464 68 464 68 536 68 c 0,8,9
 622 68 622 68 684 149 c 128,-1,10
 746 230 746 230 775 359.5 c 128,-1,11
 804 489 804 489 804 650 c 0,12,13
 804 806 804 806 773 933 c 128,-1,14
 742 1060 742 1060 685 1134 c 128,-1,15
 628 1208 628 1208 556 1208 c 0,0,1
544 1282 m 0,16,17
 679 1282 679 1282 780 1193 c 128,-1,18
 881 1104 881 1104 930.5 959.5 c 128,-1,19
 980 815 980 815 980 638 c 0,20,21
 980 462 980 462 929.5 317 c 128,-1,22
 879 172 879 172 778.5 83 c 128,-1,23
 678 -6 678 -6 544 -6 c 0,24,25
 412 -6 412 -6 311.5 83 c 128,-1,26
 211 172 211 172 159.5 317 c 128,-1,27
 108 462 108 462 108 638 c 128,-1,28
 108 814 108 814 158.5 959 c 128,-1,29
 209 1104 209 1104 309.5 1193 c 128,-1,30
 410 1282 410 1282 544 1282 c 0,16,17
EndSplineSet
Validated: 1
Substitution2: "'ordn' Ordinals lookup 17 subtable" zero.ordn
Substitution2: "'onum' Oldstyle Figures lookup 16 subtable" zero.onum
Substitution2: "'zero' Slashed Zero lookup 15 subtable" zero.slash
Substitution2: "'pnum' Proportional Numbers lookup 14 subtable" zero.prop
EndChar

StartChar: one
Encoding: 17 49 19
Width: 1090
GlyphClass: 2
Flags: W
LayerCount: 4
Fore
SplineSet
494 232 m 2,0,-1
 494 1040 l 2,1,2
 494 1082 494 1082 484 1099 c 128,-1,3
 474 1116 474 1116 452 1116 c 0,4,5
 419 1116 419 1116 312 1076 c 1,6,7
 292 1092 292 1092 292 1110 c 0,8,9
 292 1121 292 1121 296 1122 c 0,10,11
 365 1153 365 1153 453.5 1195 c 128,-1,12
 542 1237 542 1237 592 1260.5 c 128,-1,13
 642 1284 642 1284 644 1284 c 2,14,-1
 648 1284 l 2,15,16
 662 1284 662 1284 668 1252 c 1,17,18
 652 1180 652 1180 652 1058 c 2,19,-1
 652 232 l 2,20,21
 652 116 652 116 662 84 c 0,22,23
 666 70 666 70 713.5 61 c 128,-1,24
 761 52 761 52 790 52 c 1,25,26
 796 44 796 44 796.5 23 c 128,-1,27
 797 2 797 2 790 -6 c 1,28,29
 585 4 585 4 568 4 c 0,30,31
 559 4 559 4 354 -6 c 1,32,33
 347 2 347 2 347.5 23 c 128,-1,34
 348 44 348 44 354 52 c 1,35,36
 383 52 383 52 430.5 61 c 128,-1,37
 478 70 478 70 482 84 c 0,38,39
 494 122 494 122 494 232 c 2,0,-1
EndSplineSet
Validated: 1
Substitution2: "'ordn' Ordinals lookup 17 subtable" one.ordn
Substitution2: "'onum' Oldstyle Figures lookup 16 subtable" one.onum
Substitution2: "'pnum' Proportional Numbers lookup 14 subtable" one.prop
EndChar

StartChar: two
Encoding: 18 50 20
Width: 1090
GlyphClass: 2
Flags: W
LayerCount: 4
Fore
SplineSet
956 300 m 1,0,1
 912 193 912 193 848 0 c 1,2,3
 156 0 l 0,4,5
 150 3 150 3 143 12.5 c 128,-1,6
 136 22 136 22 136 28 c 1,7,8
 453 379 453 379 612 612 c 0,9,10
 669 696 669 696 688.5 763 c 128,-1,11
 708 830 708 830 708 912 c 0,12,13
 708 1016 708 1016 646 1085 c 128,-1,14
 584 1154 584 1154 488 1154 c 0,15,16
 432 1154 432 1154 380.5 1133.5 c 128,-1,17
 329 1113 329 1113 293 1082 c 128,-1,18
 257 1051 257 1051 235.5 1026.5 c 128,-1,19
 214 1002 214 1002 202 982 c 1,20,21
 191 982 191 982 177.5 994.5 c 128,-1,22
 164 1007 164 1007 164 1014 c 0,23,24
 170 1037 170 1037 199 1078 c 128,-1,25
 228 1119 228 1119 273.5 1167 c 128,-1,26
 319 1215 319 1215 389 1249.5 c 128,-1,27
 459 1284 459 1284 532 1284 c 0,28,29
 673 1284 673 1284 775.5 1182 c 128,-1,30
 878 1080 878 1080 878 950 c 0,31,32
 878 788 878 788 764 648 c 0,33,34
 610 460 610 460 328 146 c 1,35,-1
 724 146 l 2,36,37
 782 146 782 146 820.5 183 c 128,-1,38
 859 220 859 220 892 300 c 0,39,40
 897 312 897 312 916 312 c 0,41,42
 940 312 940 312 956 300 c 1,0,1
EndSplineSet
Validated: 1
Substitution2: "'ordn' Ordinals lookup 17 subtable" two.ordn
Substitution2: "'onum' Oldstyle Figures lookup 16 subtable" two.onum
Substitution2: "'pnum' Proportional Numbers lookup 14 subtable" two.prop
EndChar

StartChar: three
Encoding: 19 51 21
Width: 1090
GlyphClass: 2
Flags: W
LayerCount: 4
Fore
SplineSet
564 1284 m 0,0,1
 604 1284 604 1284 648.5 1266.5 c 128,-1,2
 693 1249 693 1249 733 1218 c 128,-1,3
 773 1187 773 1187 799.5 1136.5 c 128,-1,4
 826 1086 826 1086 826 1028 c 0,5,6
 826 982 826 982 807.5 937.5 c 128,-1,7
 789 893 789 893 758.5 859 c 128,-1,8
 728 825 728 825 699 800.5 c 128,-1,9
 670 776 670 776 640 758 c 1,10,11
 685 752 685 752 732 728 c 128,-1,12
 779 704 779 704 822 665 c 128,-1,13
 865 626 865 626 892.5 566 c 128,-1,14
 920 506 920 506 920 436 c 0,15,16
 920 337 920 337 876 251.5 c 128,-1,17
 832 166 832 166 760 109.5 c 128,-1,18
 688 53 688 53 597 21.5 c 128,-1,19
 506 -10 506 -10 412 -10 c 0,20,21
 300 -10 300 -10 208 36 c 0,22,23
 196 44 196 44 182 67.5 c 128,-1,24
 168 91 168 91 168 112 c 0,25,26
 168 154 168 154 193 181 c 128,-1,27
 218 208 218 208 252 208 c 0,28,29
 277 208 277 208 296 195 c 128,-1,30
 315 182 315 182 336 154.5 c 128,-1,31
 357 127 357 127 364 120 c 0,32,33
 414 70 414 70 512 70 c 0,34,35
 554 70 554 70 594 87 c 128,-1,36
 634 104 634 104 669.5 138.5 c 128,-1,37
 705 173 705 173 726.5 235.5 c 128,-1,38
 748 298 748 298 748 380 c 0,39,40
 748 499 748 499 671 580.5 c 128,-1,41
 594 662 594 662 492 662 c 0,42,43
 473 662 473 662 450.5 657.5 c 128,-1,44
 428 653 428 653 401.5 645 c 128,-1,45
 375 637 375 637 372 636 c 0,46,47
 360 651 360 651 360 676 c 0,48,49
 360 690 360 690 364 696 c 1,50,51
 428 710 428 710 481 733.5 c 128,-1,52
 534 757 534 757 579.5 792.5 c 128,-1,53
 625 828 625 828 650.5 879 c 128,-1,54
 676 930 676 930 676 992 c 0,55,56
 676 1072 676 1072 620.5 1125 c 128,-1,57
 565 1178 565 1178 480 1178 c 0,58,59
 437 1178 437 1178 394.5 1158.5 c 128,-1,60
 352 1139 352 1139 328 1118 c 128,-1,61
 304 1097 304 1097 281 1072 c 128,-1,62
 258 1047 258 1047 256 1046 c 0,63,64
 247 1046 247 1046 239.5 1061 c 128,-1,65
 232 1076 232 1076 232 1090 c 1,66,67
 287 1171 287 1171 372 1227.5 c 128,-1,68
 457 1284 457 1284 564 1284 c 0,0,1
EndSplineSet
Validated: 1
Substitution2: "'ordn' Ordinals lookup 17 subtable" three.ordn
Substitution2: "'onum' Oldstyle Figures lookup 16 subtable" three.onum
Substitution2: "'pnum' Proportional Numbers lookup 14 subtable" three.prop
EndChar

StartChar: four
Encoding: 20 52 22
Width: 1090
GlyphClass: 2
Flags: W
LayerCount: 4
Fore
SplineSet
812 1288 m 0,0,1
 826 1288 826 1288 834 1277 c 128,-1,2
 842 1266 842 1266 842 1252 c 2,3,-1
 842 462 l 1,4,-1
 960 462 l 2,5,6
 969 462 969 462 978.5 436 c 128,-1,7
 988 410 988 410 988 380 c 0,8,9
 988 360 988 360 980 348 c 1,10,-1
 842 348 l 1,11,-1
 842 -2 l 1,12,13
 834 -12 834 -12 756 -12 c 0,14,15
 684 -12 684 -12 684 4 c 2,16,-1
 684 348 l 1,17,-1
 120 348 l 1,18,19
 100 359 100 359 100 386 c 1,20,-1
 752 1238 l 2,21,22
 764 1254 764 1254 782.5 1271 c 128,-1,23
 801 1288 801 1288 812 1288 c 0,0,1
684 1048 m 1,24,-1
 236 462 l 1,25,-1
 684 462 l 1,26,-1
 684 1048 l 1,24,-1
EndSplineSet
Validated: 1
Substitution2: "'ordn' Ordinals lookup 17 subtable" four.ordn
Substitution2: "'onum' Oldstyle Figures lookup 16 subtable" four.onum
Substitution2: "'pnum' Proportional Numbers lookup 14 subtable" four.prop
EndChar

StartChar: five
Encoding: 21 53 23
Width: 1090
GlyphClass: 2
Flags: W
LayerCount: 4
Fore
SplineSet
544 790 m 0,0,1
 629 790 629 790 701.5 758.5 c 128,-1,2
 774 727 774 727 821 676.5 c 128,-1,3
 868 626 868 626 894 563 c 128,-1,4
 920 500 920 500 920 436 c 0,5,6
 920 337 920 337 876 251.5 c 128,-1,7
 832 166 832 166 760 109.5 c 128,-1,8
 688 53 688 53 597 21.5 c 128,-1,9
 506 -10 506 -10 412 -10 c 0,10,11
 300 -10 300 -10 208 36 c 0,12,13
 196 44 196 44 182 67.5 c 128,-1,14
 168 91 168 91 168 112 c 0,15,16
 168 154 168 154 193 181 c 128,-1,17
 218 208 218 208 252 208 c 0,18,19
 277 208 277 208 296 195 c 128,-1,20
 315 182 315 182 336 154.5 c 128,-1,21
 357 127 357 127 364 120 c 0,22,23
 414 70 414 70 512 70 c 0,24,25
 554 70 554 70 594 86.5 c 128,-1,26
 634 103 634 103 669.5 137.5 c 128,-1,27
 705 172 705 172 726.5 234.5 c 128,-1,28
 748 297 748 297 748 380 c 0,29,30
 748 419 748 419 737.5 459 c 128,-1,31
 727 499 727 499 702 538.5 c 128,-1,32
 677 578 677 578 641 609 c 128,-1,33
 605 640 605 640 550 659 c 128,-1,34
 495 678 495 678 428 678 c 0,35,36
 394 678 394 678 338.5 668.5 c 128,-1,37
 283 659 283 659 260 648 c 0,38,39
 254 648 254 648 249 657 c 128,-1,40
 244 666 244 666 244 676 c 0,41,42
 352 1228 352 1228 360 1270 c 1,43,-1
 656 1270 l 2,44,45
 692 1270 692 1270 738 1274.5 c 128,-1,46
 784 1279 784 1279 812 1284 c 2,47,-1
 840 1288 l 2,48,49
 843 1286 843 1286 848.5 1282.5 c 128,-1,50
 854 1279 854 1279 856.5 1277.5 c 128,-1,51
 859 1276 859 1276 861.5 1273 c 128,-1,52
 864 1270 864 1270 864 1266 c 0,53,54
 864 1251 864 1251 845.5 1201 c 128,-1,55
 827 1151 827 1151 804 1124 c 1,56,57
 692 1112 692 1112 572 1112 c 2,58,-1
 404 1112 l 1,59,60
 396 1072 396 1072 381.5 997 c 128,-1,61
 367 922 367 922 355 862 c 128,-1,62
 343 802 343 802 332 752 c 1,63,64
 372 768 372 768 436.5 779 c 128,-1,65
 501 790 501 790 544 790 c 0,0,1
EndSplineSet
Validated: 1
Substitution2: "'ordn' Ordinals lookup 17 subtable" five.ordn
Substitution2: "'onum' Oldstyle Figures lookup 16 subtable" five.onum
Substitution2: "'pnum' Proportional Numbers lookup 14 subtable" five.prop
EndChar

StartChar: six
Encoding: 22 54 24
Width: 1090
GlyphClass: 2
Flags: W
LayerCount: 4
Fore
SplineSet
326 612 m 1,0,1
 318 556 318 556 318 476 c 0,2,3
 318 406 318 406 333 334 c 128,-1,4
 348 262 348 262 375.5 198 c 128,-1,5
 403 134 403 134 450 94 c 128,-1,6
 497 54 497 54 554 54 c 0,7,8
 649 54 649 54 711.5 143.5 c 128,-1,9
 774 233 774 233 774 368 c 0,10,11
 774 457 774 457 749.5 528 c 128,-1,12
 725 599 725 599 666.5 645.5 c 128,-1,13
 608 692 608 692 522 692 c 0,14,15
 399 692 399 692 326 612 c 1,0,1
578 790 m 0,16,17
 658 790 658 790 723 763.5 c 128,-1,18
 788 737 788 737 828 696.5 c 128,-1,19
 868 656 868 656 895 603.5 c 128,-1,20
 922 551 922 551 933 501.5 c 128,-1,21
 944 452 944 452 944 406 c 0,22,23
 944 236 944 236 825.5 112 c 128,-1,24
 707 -12 707 -12 538 -12 c 0,25,26
 451 -12 451 -12 375.5 28 c 128,-1,27
 300 68 300 68 251 133 c 128,-1,28
 202 198 202 198 174 278 c 128,-1,29
 146 358 146 358 146 440 c 0,30,31
 146 594 146 594 195 730.5 c 128,-1,32
 244 867 244 867 338 970 c 0,33,34
 440 1082 440 1082 590.5 1170.5 c 128,-1,35
 741 1259 741 1259 874 1294 c 0,36,37
 886 1294 886 1294 892 1272.5 c 128,-1,38
 898 1251 898 1251 898 1236 c 1,39,40
 441 1089 441 1089 342 700 c 1,41,42
 392 742 392 742 458 766 c 128,-1,43
 524 790 524 790 578 790 c 0,16,17
EndSplineSet
Validated: 1
Substitution2: "'ordn' Ordinals lookup 17 subtable" six.ordn
Substitution2: "'onum' Oldstyle Figures lookup 16 subtable" six.onum
Substitution2: "'pnum' Proportional Numbers lookup 14 subtable" six.prop
EndChar

StartChar: seven
Encoding: 23 55 25
Width: 1090
GlyphClass: 2
Flags: W
LayerCount: 4
Fore
SplineSet
816 1266 m 2,0,1
 847 1266 847 1266 899 1269 c 128,-1,2
 951 1272 951 1272 952 1272 c 0,3,4
 964 1272 964 1272 964 1254 c 0,5,6
 964 1245 964 1245 958.5 1229 c 128,-1,7
 953 1213 953 1213 946.5 1199 c 128,-1,8
 940 1185 940 1185 927.5 1159.5 c 128,-1,9
 915 1134 915 1134 908 1120 c 2,10,-1
 380 -4 l 2,11,12
 374 -10 374 -10 360 -10 c 0,13,14
 335 -10 335 -10 303.5 1.5 c 128,-1,15
 272 13 272 13 272 26 c 1,16,17
 364 165 364 165 506 438.5 c 128,-1,18
 648 712 648 712 744 916 c 2,19,-1
 840 1120 l 1,20,-1
 332 1120 l 2,21,22
 274 1120 274 1120 242.5 1084.5 c 128,-1,23
 211 1049 211 1049 188 966 c 0,24,25
 186 954 186 954 164 954 c 0,26,27
 140 954 140 954 124 966 c 1,28,29
 184 1157 184 1157 208 1266 c 1,30,-1
 816 1266 l 2,0,1
EndSplineSet
Validated: 1
Substitution2: "'ordn' Ordinals lookup 17 subtable" seven.ordn
Substitution2: "'onum' Oldstyle Figures lookup 16 subtable" seven.onum
Substitution2: "'pnum' Proportional Numbers lookup 14 subtable" seven.prop
EndChar

StartChar: eight
Encoding: 24 56 26
Width: 1090
GlyphClass: 2
Flags: W
LayerCount: 4
Fore
SplineSet
544 54 m 0,0,1
 643 54 643 54 701.5 114 c 128,-1,2
 760 174 760 174 760 276 c 0,3,4
 760 323 760 323 735 371.5 c 128,-1,5
 710 420 710 420 679 453.5 c 128,-1,6
 648 487 648 487 605 520.5 c 128,-1,7
 562 554 562 554 542 567 c 128,-1,8
 522 580 522 580 504 590 c 0,9,10
 496 594 496 594 492 594 c 0,11,12
 486 594 486 594 484 592 c 0,13,14
 401 539 401 539 363.5 474 c 128,-1,15
 326 409 326 409 326 314 c 0,16,17
 326 197 326 197 392.5 125.5 c 128,-1,18
 459 54 459 54 544 54 c 0,0,1
544 1216 m 0,19,20
 472 1216 472 1216 422 1151 c 128,-1,21
 372 1086 372 1086 372 996 c 0,22,23
 372 944 372 944 390.5 900.5 c 128,-1,24
 409 857 409 857 444.5 824 c 128,-1,25
 480 791 480 791 506 773.5 c 128,-1,26
 532 756 532 756 571 733 c 0,27,28
 577 730 577 730 580 728 c 0,29,30
 588 724 588 724 592 724 c 0,31,32
 598 724 598 724 604 728 c 0,33,34
 740 818 740 818 740 972 c 0,35,36
 740 1065 740 1065 685 1140.5 c 128,-1,37
 630 1216 630 1216 544 1216 c 0,19,20
556 1286 m 0,38,39
 695 1286 695 1286 789.5 1206.5 c 128,-1,40
 884 1127 884 1127 884 992 c 0,41,42
 884 937 884 937 863.5 888.5 c 128,-1,43
 843 840 843 840 804.5 801.5 c 128,-1,44
 766 763 766 763 735.5 739.5 c 128,-1,45
 705 716 705 716 660 688 c 1,46,47
 647 685 647 685 660 676 c 0,48,49
 765 617 765 617 843.5 525 c 128,-1,50
 922 433 922 433 922 334 c 0,51,52
 922 187 922 187 807.5 84.5 c 128,-1,53
 693 -18 693 -18 540 -18 c 0,54,55
 375 -18 375 -18 271.5 72.5 c 128,-1,56
 168 163 168 163 168 308 c 0,57,58
 168 334 168 334 174 359 c 128,-1,59
 180 384 180 384 187 404.5 c 128,-1,60
 194 425 194 425 210 447.5 c 128,-1,61
 226 470 226 470 236.5 485 c 128,-1,62
 247 500 247 500 269.5 520 c 128,-1,63
 292 540 292 540 302.5 549.5 c 128,-1,64
 313 559 313 559 338 576.5 c 128,-1,65
 363 594 363 594 370 599 c 128,-1,66
 377 604 377 604 402 620 c 128,-1,67
 427 636 427 636 428 636 c 0,68,69
 438 643 438 643 428 648 c 0,70,71
 350 695 350 695 287 777.5 c 128,-1,72
 224 860 224 860 224 960 c 0,73,74
 224 1088 224 1088 324 1187 c 128,-1,75
 424 1286 424 1286 556 1286 c 0,38,39
EndSplineSet
Validated: 1
Substitution2: "'ordn' Ordinals lookup 17 subtable" eight.ordn
Substitution2: "'onum' Oldstyle Figures lookup 16 subtable" eight.onum
Substitution2: "'pnum' Proportional Numbers lookup 14 subtable" eight.prop
EndChar

StartChar: nine
Encoding: 25 57 27
Width: 1090
GlyphClass: 2
Flags: W
LayerCount: 4
Fore
SplineSet
764 670 m 1,0,1
 772 726 772 726 772 806 c 0,2,3
 772 876 772 876 757 948 c 128,-1,4
 742 1020 742 1020 714.5 1084 c 128,-1,5
 687 1148 687 1148 640 1188 c 128,-1,6
 593 1228 593 1228 536 1228 c 0,7,8
 442 1228 442 1228 380 1138.5 c 128,-1,9
 318 1049 318 1049 318 914 c 0,10,11
 318 824 318 824 342 753.5 c 128,-1,12
 366 683 366 683 424 636.5 c 128,-1,13
 482 590 482 590 568 590 c 0,14,15
 691 590 691 590 764 670 c 1,0,1
192 46 m 1,16,17
 649 193 649 193 748 582 c 1,18,19
 698 540 698 540 632 516 c 128,-1,20
 566 492 566 492 512 492 c 0,21,22
 432 492 432 492 367 518.5 c 128,-1,23
 302 545 302 545 262.5 585.5 c 128,-1,24
 223 626 223 626 196 679 c 128,-1,25
 169 732 169 732 158.5 780.5 c 128,-1,26
 148 829 148 829 148 876 c 0,27,28
 148 1046 148 1046 265.5 1170 c 128,-1,29
 383 1294 383 1294 552 1294 c 0,30,31
 639 1294 639 1294 714.5 1254 c 128,-1,32
 790 1214 790 1214 839 1149 c 128,-1,33
 888 1084 888 1084 916 1004 c 128,-1,34
 944 924 944 924 944 842 c 0,35,36
 944 688 944 688 895 551.5 c 128,-1,37
 846 415 846 415 752 312 c 0,38,39
 650 200 650 200 499.5 111.5 c 128,-1,40
 349 23 349 23 216 -12 c 0,41,42
 204 -12 204 -12 198 9.5 c 128,-1,43
 192 31 192 31 192 46 c 1,16,17
EndSplineSet
Validated: 1
Substitution2: "'onum' Oldstyle Figures lookup 16 subtable" nine.onum
Substitution2: "'pnum' Proportional Numbers lookup 14 subtable" nine.prop
EndChar

StartChar: colon
Encoding: 26 58 28
Width: 452
GlyphClass: 2
Flags: W
LayerCount: 4
Fore
SplineSet
116 90 m 128,-1,1
 116 135 116 135 149.5 166.5 c 128,-1,2
 183 198 183 198 228 198 c 128,-1,3
 273 198 273 198 304.5 166.5 c 128,-1,4
 336 135 336 135 336 90 c 128,-1,5
 336 45 336 45 304.5 11.5 c 128,-1,6
 273 -22 273 -22 228 -22 c 128,-1,7
 183 -22 183 -22 149.5 11.5 c 128,-1,0
 116 45 116 45 116 90 c 128,-1,1
116 754 m 128,-1,9
 116 799 116 799 149.5 830.5 c 128,-1,10
 183 862 183 862 228 862 c 128,-1,11
 273 862 273 862 304.5 830.5 c 128,-1,12
 336 799 336 799 336 754 c 128,-1,13
 336 709 336 709 304.5 675.5 c 128,-1,14
 273 642 273 642 228 642 c 128,-1,15
 183 642 183 642 149.5 675.5 c 128,-1,8
 116 709 116 709 116 754 c 128,-1,9
EndSplineSet
Validated: 1
Substitution2: "'smcp' Lowercase to Small Capitals lookup 12 subtable" colon.sc
EndChar

StartChar: semicolon
Encoding: 27 59 29
Width: 464
GlyphClass: 2
Flags: W
LayerCount: 4
Fore
SplineSet
254 246 m 0,0,1
 282 246 282 246 306 232 c 1,2,3
 342 170 342 170 342 92 c 0,4,5
 342 8 342 8 263 -113.5 c 128,-1,6
 184 -235 184 -235 106 -278 c 1,7,8
 96 -278 96 -278 86 -262 c 128,-1,9
 76 -246 76 -246 76 -236 c 1,10,11
 99 -219 99 -219 114 -205.5 c 128,-1,12
 129 -192 129 -192 153 -163.5 c 128,-1,13
 177 -135 177 -135 189.5 -97 c 128,-1,14
 202 -59 202 -59 202 -14 c 0,15,16
 202 18 202 18 169 63 c 128,-1,17
 136 108 136 108 136 148 c 0,18,19
 136 183 136 183 169.5 214.5 c 128,-1,20
 203 246 203 246 254 246 c 0,0,1
122 754 m 128,-1,22
 122 799 122 799 155.5 830.5 c 128,-1,23
 189 862 189 862 234 862 c 128,-1,24
 279 862 279 862 310.5 830.5 c 128,-1,25
 342 799 342 799 342 754 c 128,-1,26
 342 709 342 709 310.5 675.5 c 128,-1,27
 279 642 279 642 234 642 c 128,-1,28
 189 642 189 642 155.5 675.5 c 128,-1,21
 122 709 122 709 122 754 c 128,-1,22
EndSplineSet
Validated: 1
Substitution2: "'smcp' Lowercase to Small Capitals lookup 12 subtable" semicolon.sc
EndChar

StartChar: less
Encoding: 28 60 30
Width: 984
GlyphClass: 2
Flags: W
LayerCount: 4
Fore
SplineSet
888 70 m 0,0,1
 888 56 888 56 876 13 c 128,-1,2
 864 -30 864 -30 856 -30 c 0,3,4
 854 -30 854 -30 846 -26 c 2,5,-1
 96 354 l 2,6,7
 60 373 60 373 60 434 c 0,8,9
 60 464 60 464 96 482 c 2,10,-1
 834 856 l 2,11,12
 842 860 842 860 844 860 c 0,13,14
 860 860 860 860 878 766 c 0,15,16
 879 761 879 761 877.5 756.5 c 128,-1,17
 876 752 876 752 874 750 c 2,18,-1
 872 748 l 1,19,-1
 220 418 l 1,20,-1
 882 82 l 2,21,22
 888 80 888 80 888 70 c 0,0,1
EndSplineSet
Validated: 1
Substitution2: "'smcp' Lowercase to Small Capitals lookup 12 subtable" less.sc
EndChar

StartChar: equal
Encoding: 29 61 31
Width: 1130
GlyphClass: 2
Flags: W
LayerCount: 4
Fore
SplineSet
957 240 m 1,0,1
 145 240 l 1,2,3
 135 244 135 244 136.5 266.5 c 128,-1,4
 138 289 138 289 151 317 c 128,-1,5
 164 345 164 345 177 350 c 1,6,-1
 983 350 l 1,7,8
 995 346 995 346 994.5 324.5 c 128,-1,9
 994 303 994 303 982 275 c 128,-1,10
 970 247 970 247 957 240 c 1,0,1
957 528 m 1,11,-1
 145 528 l 1,12,13
 135 532 135 532 136.5 554.5 c 128,-1,14
 138 577 138 577 151 605 c 128,-1,15
 164 633 164 633 177 638 c 1,16,-1
 983 638 l 1,17,18
 995 634 995 634 994.5 612.5 c 128,-1,19
 994 591 994 591 982 563 c 128,-1,20
 970 535 970 535 957 528 c 1,11,-1
EndSplineSet
Validated: 1
Substitution2: "'smcp' Lowercase to Small Capitals lookup 12 subtable" equal.sc
EndChar

StartChar: greater
Encoding: 30 62 32
Width: 986
GlyphClass: 2
Flags: W
LayerCount: 4
Fore
SplineSet
96 70 m 0,0,1
 96 74 96 74 97.5 77 c 128,-1,2
 99 80 99 80 100 81 c 2,3,-1
 102 82 l 1,4,-1
 764 418 l 1,5,-1
 114 748 l 2,6,7
 108 750 108 750 108 764 c 0,8,9
 108 789 108 789 120.5 824.5 c 128,-1,10
 133 860 133 860 140 860 c 0,11,12
 142 860 142 860 150 856 c 2,13,-1
 890 482 l 2,14,15
 924 465 924 465 924 434 c 0,16,17
 924 372 924 372 890 354 c 2,18,-1
 140 -26 l 2,19,20
 132 -30 132 -30 130 -30 c 0,21,22
 122 -30 122 -30 109 12.5 c 128,-1,23
 96 55 96 55 96 70 c 0,0,1
EndSplineSet
Validated: 1
Substitution2: "'smcp' Lowercase to Small Capitals lookup 12 subtable" greater.sc
EndChar

StartChar: question
Encoding: 31 63 33
Width: 712
GlyphClass: 2
Flags: W
LayerCount: 4
Fore
SplineSet
126 90 m 128,-1,1
 126 135 126 135 159.5 166.5 c 128,-1,2
 193 198 193 198 238 198 c 128,-1,3
 283 198 283 198 314.5 166.5 c 128,-1,4
 346 135 346 135 346 90 c 128,-1,5
 346 45 346 45 314.5 11.5 c 128,-1,6
 283 -22 283 -22 238 -22 c 128,-1,7
 193 -22 193 -22 159.5 11.5 c 128,-1,0
 126 45 126 45 126 90 c 128,-1,1
200 1096 m 0,8,9
 173 1096 173 1096 142.5 1124 c 128,-1,10
 112 1152 112 1152 112 1196 c 0,11,12
 112 1245 112 1245 130 1270 c 1,13,14
 158 1284 158 1284 226 1284 c 0,15,16
 267 1284 267 1284 318 1268.5 c 128,-1,17
 369 1253 369 1253 422 1221 c 128,-1,18
 475 1189 475 1189 519.5 1146 c 128,-1,19
 564 1103 564 1103 592 1042 c 128,-1,20
 620 981 620 981 620 914 c 0,21,22
 620 811 620 811 574.5 741.5 c 128,-1,23
 529 672 529 672 418 608 c 0,24,25
 376 583 376 583 323.5 541.5 c 128,-1,26
 271 500 271 500 262 484 c 0,27,28
 256 473 256 473 253 453.5 c 128,-1,29
 250 434 250 434 249.5 420.5 c 128,-1,30
 249 407 249 407 249.5 379 c 128,-1,31
 250 351 250 351 250 344 c 0,32,33
 238 320 238 320 218 318 c 1,34,35
 199 326 199 326 192 340 c 0,36,37
 176 407 176 407 176 522 c 0,38,39
 176 562 176 562 186.5 596.5 c 128,-1,40
 197 631 197 631 209.5 653 c 128,-1,41
 222 675 222 675 247 698 c 128,-1,42
 272 721 272 721 287.5 732 c 128,-1,43
 303 743 303 743 332 761 c 0,44,45
 342 767 342 767 346 770 c 0,46,47
 387 796 387 796 403.5 807 c 128,-1,48
 420 818 420 818 448.5 840.5 c 128,-1,49
 477 863 477 863 488.5 879.5 c 128,-1,50
 500 896 500 896 510 921 c 128,-1,51
 520 946 520 946 520 974 c 0,52,53
 520 1049 520 1049 476 1093.5 c 128,-1,54
 432 1138 432 1138 372 1138 c 128,-1,55
 312 1138 312 1138 265.5 1117 c 128,-1,56
 219 1096 219 1096 200 1096 c 0,8,9
EndSplineSet
Validated: 1
Substitution2: "'smcp' Lowercase to Small Capitals lookup 12 subtable" question.sc
EndChar

StartChar: at
Encoding: 32 64 34
Width: 1496
GlyphClass: 2
Flags: W
LayerCount: 4
Fore
SplineSet
836 1156 m 0,0,1
 950 1156 950 1156 1047 1122 c 128,-1,2
 1144 1088 1144 1088 1212.5 1029 c 128,-1,3
 1281 970 1281 970 1329.5 891.5 c 128,-1,4
 1378 813 1378 813 1401 724 c 128,-1,5
 1424 635 1424 635 1424 540 c 0,6,7
 1424 389 1424 389 1370.5 262 c 128,-1,8
 1317 135 1317 135 1222 60.5 c 128,-1,9
 1127 -14 1127 -14 1012 -14 c 0,10,11
 935 -14 935 -14 890.5 28 c 128,-1,12
 846 70 846 70 846 158 c 0,13,14
 846 213 846 213 860 250 c 1,15,16
 843 218 843 218 815 177.5 c 128,-1,17
 787 137 787 137 749 93 c 128,-1,18
 711 49 711 49 665 19.5 c 128,-1,19
 619 -10 619 -10 578 -10 c 0,20,21
 489 -10 489 -10 438.5 69 c 128,-1,22
 388 148 388 148 388 260 c 0,23,24
 388 367 388 367 439.5 478 c 128,-1,25
 491 589 491 589 571 675 c 128,-1,26
 651 761 651 761 755.5 815.5 c 128,-1,27
 860 870 860 870 960 870 c 0,28,29
 1035 870 1035 870 1106 844 c 1,30,-1
 984 212 l 2,31,32
 978 188 978 188 978 162 c 0,33,34
 978 116 978 116 1004.5 94 c 128,-1,35
 1031 72 1031 72 1074 72 c 0,36,37
 1121 72 1121 72 1169.5 109.5 c 128,-1,38
 1218 147 1218 147 1256.5 208.5 c 128,-1,39
 1295 270 1295 270 1319.5 356.5 c 128,-1,40
 1344 443 1344 443 1344 534 c 0,41,42
 1344 617 1344 617 1325 694.5 c 128,-1,43
 1306 772 1306 772 1265 841.5 c 128,-1,44
 1224 911 1224 911 1165.5 963 c 128,-1,45
 1107 1015 1107 1015 1022 1045.5 c 128,-1,46
 937 1076 937 1076 836 1076 c 0,47,48
 717 1076 717 1076 611 1033 c 128,-1,49
 505 990 505 990 427.5 917 c 128,-1,50
 350 844 350 844 292.5 749.5 c 128,-1,51
 235 655 235 655 206.5 550 c 128,-1,52
 178 445 178 445 178 340 c 0,53,54
 178 173 178 173 253.5 42 c 128,-1,55
 329 -89 329 -89 444 -156 c 0,56,57
 520 -200 520 -200 594 -212 c 1,58,59
 594 -223 594 -223 567.5 -235.5 c 128,-1,60
 541 -248 541 -248 522 -248 c 0,61,62
 475 -248 475 -248 444 -236 c 0,63,64
 300 -183 300 -183 199 -23.5 c 128,-1,65
 98 136 98 136 98 340 c 0,66,67
 98 458 98 458 129.5 575 c 128,-1,68
 161 692 161 692 224.5 796.5 c 128,-1,69
 288 901 288 901 375 981.5 c 128,-1,70
 462 1062 462 1062 581.5 1109 c 128,-1,71
 701 1156 701 1156 836 1156 c 0,0,1
876 778 m 0,72,73
 820 778 820 778 758.5 735.5 c 128,-1,74
 697 693 697 693 648 626.5 c 128,-1,75
 599 560 599 560 567.5 473 c 128,-1,76
 536 386 536 386 536 302 c 0,77,78
 536 106 536 106 638 106 c 0,79,80
 686 106 686 106 745.5 176.5 c 128,-1,81
 805 247 805 247 852 349.5 c 128,-1,82
 899 452 899 452 918 548 c 2,83,-1
 958 752 l 1,84,85
 935 778 935 778 876 778 c 0,72,73
EndSplineSet
Validated: 1
Substitution2: "'smcp' Lowercase to Small Capitals lookup 12 subtable" at.sc
EndChar

StartChar: A
Encoding: 33 65 35
Width: 1254
GlyphClass: 2
Flags: W
LayerCount: 4
Fore
SplineSet
190 278 m 0,0,1
 454 957 454 957 576 1268 c 0,2,3
 584 1283 584 1283 611.5 1304.5 c 128,-1,4
 639 1326 639 1326 652 1326 c 0,5,6
 655 1326 655 1326 658.5 1323.5 c 128,-1,7
 662 1321 662 1321 664 1320 c 2,8,-1
 1071 252 l 2,9,10
 1121 123 1121 123 1122 120 c 0,11,12
 1135 89 1135 89 1184.5 70.5 c 128,-1,13
 1234 52 1234 52 1258 52 c 1,14,15
 1264 43 1264 43 1264 22.5 c 128,-1,16
 1264 2 1264 2 1262 -6 c 1,17,18
 1062 4 1062 4 1042 4 c 0,19,20
 1001 4 1001 4 965.5 2.5 c 128,-1,21
 930 1 930 1 886 -2 c 128,-1,22
 842 -5 842 -5 810 -6 c 1,23,24
 803 2 803 2 803.5 23 c 128,-1,25
 804 44 804 44 812 52 c 1,26,27
 835 52 835 52 873.5 59.5 c 128,-1,28
 912 67 912 67 924 78 c 0,29,30
 932 86 932 86 932 106 c 0,31,32
 932 133 932 133 898 230.5 c 128,-1,33
 864 328 864 328 830 412 c 2,34,-1
 796 496 l 2,35,36
 790 504 790 504 784 504 c 0,37,38
 758 506 758 506 586 506 c 0,39,40
 460 506 460 506 370 500 c 1,41,-1
 360 494 l 1,42,43
 304 346 304 346 270 250 c 0,44,45
 242 168 242 168 242 108 c 0,46,47
 242 91 242 91 260.5 79 c 128,-1,48
 279 67 279 67 305.5 61.5 c 128,-1,49
 332 56 332 56 351 54 c 128,-1,50
 370 52 370 52 380 52 c 1,51,52
 384 48 384 48 385.5 25.5 c 128,-1,53
 387 3 387 3 384 -6 c 1,54,55
 355 -5 355 -5 321 -2 c 128,-1,56
 287 1 287 1 258 2.5 c 128,-1,57
 229 4 229 4 190 4 c 0,58,59
 149 4 149 4 117.5 2.5 c 128,-1,60
 86 1 86 1 48 -2 c 128,-1,61
 10 -5 10 -5 -24 -6 c 1,62,63
 -28 -2 -28 -2 -28 20 c 128,-1,64
 -28 42 -28 42 -24 52 c 1,65,66
 1 52 1 52 42 62.5 c 128,-1,67
 83 73 83 73 96 90 c 0,68,69
 138 145 138 145 190 278 c 0,0,1
582 1084 m 1,70,-1
 398 596 l 2,71,72
 398 588 398 588 402 588 c 0,73,74
 506 584 506 584 584 584 c 0,75,76
 659 584 659 584 752 590 c 0,77,78
 754 590 754 590 755.5 592.5 c 128,-1,79
 757 595 757 595 758 598 c 2,80,-1
 758 600 l 1,81,-1
 582 1084 l 1,70,-1
EndSplineSet
Validated: 1
EndChar

StartChar: B
Encoding: 34 66 36
Width: 1192
GlyphClass: 2
Flags: W
LayerCount: 4
Fore
SplineSet
413 664 m 1,0,-1
 413 230 l 2,1,2
 413 225 413 225 413 220 c 0,3,4
 413 193 413 193 417 152 c 0,5,6
 422 103 422 103 431 94 c 0,7,8
 452 72 452 72 488.5 65 c 128,-1,9
 525 58 525 58 589 58 c 0,10,11
 907 58 907 58 907 352 c 0,12,13
 907 664 907 664 535 664 c 2,14,-1
 413 664 l 1,0,-1
413 740 m 1,15,-1
 580 740 l 2,16,17
 705 740 705 740 768 809 c 128,-1,18
 831 878 831 878 831 974 c 0,19,20
 831 1106 831 1106 747.5 1180 c 128,-1,21
 664 1254 664 1254 523 1254 c 0,22,23
 432 1254 432 1254 423 1234 c 0,24,25
 413 1209 413 1209 413 1117 c 0,26,27
 413 1101 413 1101 413 1084 c 2,28,-1
 413 740 l 1,15,-1
611 1318 m 0,29,30
 669 1318 669 1318 723 1309 c 128,-1,31
 777 1300 777 1300 831 1278.5 c 128,-1,32
 885 1257 885 1257 924.5 1224 c 128,-1,33
 964 1191 964 1191 988.5 1138.5 c 128,-1,34
 1013 1086 1013 1086 1013 1020 c 0,35,36
 1013 917 1013 917 945.5 836 c 128,-1,37
 878 755 878 755 811 730 c 0,38,39
 802 726 802 726 811 720 c 1,40,41
 850 718 850 718 899 695 c 128,-1,42
 948 672 948 672 994.5 632.5 c 128,-1,43
 1041 593 1041 593 1073 530.5 c 128,-1,44
 1105 468 1105 468 1105 398 c 0,45,46
 1105 215 1105 215 970 102 c 0,47,48
 845 -2 845 -2 551 -6 c 1,49,-1
 91 -6 l 1,50,51
 84 2 84 2 84.5 23 c 128,-1,52
 85 44 85 44 91 52 c 1,53,54
 121 52 121 52 173 61 c 128,-1,55
 225 70 225 70 229 84 c 0,56,57
 239 116 239 116 239 232 c 2,58,-1
 239 1086 l 2,59,60
 239 1202 239 1202 229 1234 c 0,61,62
 225 1248 225 1248 173 1257 c 128,-1,63
 121 1266 121 1266 91 1266 c 1,64,65
 85 1274 85 1274 84.5 1295 c 128,-1,66
 84 1316 84 1316 91 1324 c 1,67,68
 296 1314 296 1314 327 1314 c 0,69,70
 361 1314 361 1314 454 1316 c 128,-1,71
 547 1318 547 1318 611 1318 c 0,29,30
EndSplineSet
Validated: 1
EndChar

StartChar: C
Encoding: 35 67 37
Width: 1348
GlyphClass: 2
Flags: W
LayerCount: 4
Fore
SplineSet
772 1334 m 0,0,1
 1002 1334 1002 1334 1196 1292 c 1,2,3
 1242 1016 1242 1016 1242 996 c 0,4,5
 1243 987 1243 987 1228 978.5 c 128,-1,6
 1213 970 1213 970 1198 970 c 128,-1,7
 1183 970 1183 970 1174 976 c 1,8,9
 1117 1268 1117 1268 782 1268 c 0,10,11
 640 1268 640 1268 526 1180 c 128,-1,12
 412 1092 412 1092 353 960 c 128,-1,13
 294 828 294 828 294 686 c 0,14,15
 294 591 294 591 314.5 500.5 c 128,-1,16
 335 410 335 410 377.5 329 c 128,-1,17
 420 248 420 248 480.5 187 c 128,-1,18
 541 126 541 126 627 90 c 128,-1,19
 713 54 713 54 814 54 c 0,20,21
 969 54 969 54 1078 150 c 0,22,23
 1168 231 1168 231 1200 382 c 1,24,25
 1205 382 1205 382 1209 382 c 0,26,27
 1239 382 1239 382 1264 366 c 1,28,29
 1264 328 1264 328 1238.5 211 c 128,-1,30
 1213 94 1213 94 1194 78 c 1,31,32
 1034 -12 1034 -12 764 -12 c 0,33,34
 619 -12 619 -12 493 41 c 128,-1,35
 367 94 367 94 281 183 c 128,-1,36
 195 272 195 272 145.5 392 c 128,-1,37
 96 512 96 512 96 644 c 0,38,39
 96 783 96 783 147 909.5 c 128,-1,40
 198 1036 198 1036 286 1129.5 c 128,-1,41
 374 1223 374 1223 501 1278.5 c 128,-1,42
 628 1334 628 1334 772 1334 c 0,0,1
EndSplineSet
Validated: 1
EndChar

StartChar: D
Encoding: 36 68 38
Width: 1420
GlyphClass: 2
Flags: W
LayerCount: 4
Fore
SplineSet
415 1082 m 2,0,-1
 415 230 l 2,1,2
 415 100 415 100 427 86 c 0,3,4
 447 58 447 58 591 58 c 0,5,6
 700 58 700 58 794 92.5 c 128,-1,7
 888 127 888 127 962 195 c 128,-1,8
 1036 263 1036 263 1078.5 373.5 c 128,-1,9
 1121 484 1121 484 1121 626 c 0,10,11
 1121 758 1121 758 1090.5 864.5 c 128,-1,12
 1060 971 1060 971 1008 1042 c 128,-1,13
 956 1113 956 1113 884 1161 c 128,-1,14
 812 1209 812 1209 732 1230.5 c 128,-1,15
 652 1252 652 1252 563 1252 c 0,16,17
 432 1252 432 1252 425 1230 c 0,18,19
 415 1197 415 1197 415 1112 c 0,20,21
 415 1098 415 1098 415 1082 c 2,0,-1
617 1316 m 0,22,23
 778 1316 778 1316 911 1266.5 c 128,-1,24
 1044 1217 1044 1217 1133 1130.5 c 128,-1,25
 1222 1044 1222 1044 1270.5 925 c 128,-1,26
 1319 806 1319 806 1319 668 c 0,27,28
 1319 561 1319 561 1298 467 c 128,-1,29
 1277 373 1277 373 1224.5 284.5 c 128,-1,30
 1172 196 1172 196 1091.5 133 c 128,-1,31
 1011 70 1011 70 883 32 c 128,-1,32
 755 -6 755 -6 591 -6 c 2,33,-1
 91 -6 l 1,34,35
 84 2 84 2 84.5 23 c 128,-1,36
 85 44 85 44 91 52 c 1,37,38
 121 52 121 52 173 61 c 128,-1,39
 225 70 225 70 229 84 c 0,40,41
 239 116 239 116 239 232 c 2,42,-1
 239 1086 l 2,43,44
 239 1202 239 1202 229 1234 c 0,45,46
 225 1248 225 1248 173 1257 c 128,-1,47
 121 1266 121 1266 91 1266 c 1,48,49
 85 1274 85 1274 84.5 1295 c 128,-1,50
 84 1316 84 1316 91 1324 c 1,51,52
 296 1314 296 1314 327 1314 c 0,53,54
 365 1314 365 1314 468.5 1315 c 128,-1,55
 572 1316 572 1316 617 1316 c 0,22,23
EndSplineSet
Validated: 1
EndChar

StartChar: E
Encoding: 37 69 39
Width: 1174
GlyphClass: 2
Flags: W
LayerCount: 4
Fore
SplineSet
327 1314 m 0,0,1
 417 1314 417 1314 637.5 1321 c 128,-1,2
 858 1328 858 1328 971 1328 c 1,3,4
 979 1270 979 1270 1001.5 1175 c 128,-1,5
 1024 1080 1024 1080 1029 1056 c 1,6,7
 1019 1046 1019 1046 993 1046 c 0,8,9
 968 1046 968 1046 965 1060 c 0,10,11
 934 1171 934 1171 878.5 1209.5 c 128,-1,12
 823 1248 823 1248 733 1248 c 2,13,-1
 561 1248 l 2,14,15
 430 1248 430 1248 423 1226 c 0,16,17
 413 1193 413 1193 413 1112 c 0,18,19
 413 1099 413 1099 413 1084 c 2,20,-1
 413 710 l 2,21,22
 412 703 412 703 436 700.5 c 128,-1,23
 460 698 460 698 499 698 c 2,24,-1
 605 698 l 2,25,26
 655 698 655 698 683 699 c 128,-1,27
 711 700 711 700 735.5 705 c 128,-1,28
 760 710 760 710 771 718 c 128,-1,29
 782 726 782 726 792 740.5 c 128,-1,30
 802 755 802 755 807.5 775 c 128,-1,31
 813 795 813 795 821 825 c 0,32,33
 823 836 823 836 825 842 c 0,34,35
 828 856 828 856 855 856 c 0,36,37
 879 856 879 856 889 846 c 1,38,-1
 889 468 l 1,39,40
 881 460 881 460 857 460 c 0,41,42
 831 460 831 460 825 476 c 0,43,44
 804 555 804 555 794 576.5 c 128,-1,45
 784 598 784 598 769 608 c 0,46,47
 744 624 744 624 557 624 c 2,48,49
 526 624 l 0,50,51
 515 624 515 624 495 623.5 c 128,-1,52
 475 623 475 623 463 622 c 128,-1,53
 451 621 451 621 438 619 c 128,-1,54
 425 617 425 617 419 613.5 c 128,-1,55
 413 610 413 610 413 606 c 2,56,-1
 413 226 l 2,57,58
 413 216 413 216 413 205 c 0,59,60
 413 177 413 177 414 143 c 0,61,62
 417 95 417 95 425 88 c 0,63,64
 443 74 443 74 469.5 71 c 128,-1,65
 496 68 496 68 567 68 c 2,66,-1
 663 68 l 2,67,68
 735 68 735 68 804.5 82.5 c 128,-1,69
 874 97 874 97 915 122 c 0,70,71
 958 148 958 148 984 194.5 c 128,-1,72
 1010 241 1010 241 1041 324 c 0,73,74
 1044 336 1044 336 1069 336 c 0,75,76
 1107 336 1107 336 1119 324 c 1,77,78
 1110 298 1110 298 1089 241 c 128,-1,79
 1068 184 1068 184 1055.5 148.5 c 128,-1,80
 1043 113 1043 113 1029.5 68 c 128,-1,81
 1016 23 1016 23 1011 -8 c 1,82,83
 908 -8 908 -8 688 -4 c 128,-1,84
 468 0 468 0 329 0 c 0,85,86
 280 0 280 0 204 -3 c 128,-1,87
 128 -6 128 -6 91 -6 c 1,88,89
 84 2 84 2 84.5 23 c 128,-1,90
 85 44 85 44 91 52 c 1,91,92
 121 52 121 52 173 61 c 128,-1,93
 225 70 225 70 229 84 c 0,94,95
 239 116 239 116 239 232 c 2,96,-1
 239 1086 l 2,97,98
 239 1202 239 1202 229 1234 c 0,99,100
 225 1248 225 1248 173 1257 c 128,-1,101
 121 1266 121 1266 91 1266 c 1,102,103
 85 1274 85 1274 84.5 1295 c 128,-1,104
 84 1316 84 1316 91 1324 c 1,105,106
 296 1314 296 1314 327 1314 c 0,0,1
EndSplineSet
Validated: 1
EndChar

StartChar: F
Encoding: 38 70 40
Width: 1070
GlyphClass: 2
Flags: W
LayerCount: 4
Fore
SplineSet
327 1314 m 0,0,1
 417 1314 417 1314 637.5 1321 c 128,-1,2
 858 1328 858 1328 971 1328 c 1,3,4
 979 1270 979 1270 1001.5 1175 c 128,-1,5
 1024 1080 1024 1080 1029 1056 c 1,6,7
 1019 1046 1019 1046 993 1046 c 0,8,9
 968 1046 968 1046 965 1060 c 0,10,11
 934 1171 934 1171 878.5 1209.5 c 128,-1,12
 823 1248 823 1248 733 1248 c 2,13,-1
 561 1248 l 2,14,15
 430 1248 430 1248 423 1226 c 0,16,17
 413 1194 413 1194 413 1084 c 2,18,-1
 413 710 l 2,19,20
 412 703 412 703 436 700.5 c 128,-1,21
 460 698 460 698 499 698 c 2,22,-1
 605 698 l 2,23,24
 655 698 655 698 683 699 c 128,-1,25
 711 700 711 700 735.5 705 c 128,-1,26
 760 710 760 710 771 718 c 128,-1,27
 782 726 782 726 792 740.5 c 128,-1,28
 802 755 802 755 807.5 775 c 128,-1,29
 813 795 813 795 821 825 c 0,30,31
 823 836 823 836 825 842 c 0,32,33
 828 856 828 856 855 856 c 0,34,35
 879 856 879 856 889 846 c 1,36,-1
 889 468 l 1,37,38
 881 460 881 460 857 460 c 0,39,40
 831 460 831 460 825 476 c 0,41,42
 804 555 804 555 794 576.5 c 128,-1,43
 784 598 784 598 769 608 c 0,44,45
 744 624 744 624 557 624 c 0,46,47
 413 624 413 624 413 606 c 2,48,-1
 413 232 l 2,49,50
 413 116 413 116 423 84 c 0,51,52
 427 70 427 70 487.5 61 c 128,-1,53
 548 52 548 52 581 52 c 1,54,55
 587 44 587 44 587.5 23 c 128,-1,56
 588 2 588 2 581 -6 c 1,57,58
 376 4 376 4 327 4 c 128,-1,59
 278 4 278 4 203 -1 c 128,-1,60
 128 -6 128 -6 91 -6 c 1,61,62
 84 2 84 2 84.5 23 c 128,-1,63
 85 44 85 44 91 52 c 1,64,65
 121 52 121 52 173 61 c 128,-1,66
 225 70 225 70 229 84 c 0,67,68
 239 116 239 116 239 232 c 2,69,-1
 239 1086 l 2,70,71
 239 1202 239 1202 229 1234 c 0,72,73
 225 1248 225 1248 173 1257 c 128,-1,74
 121 1266 121 1266 91 1266 c 1,75,76
 85 1274 85 1274 84.5 1295 c 128,-1,77
 84 1316 84 1316 91 1324 c 1,78,79
 296 1314 296 1314 327 1314 c 0,0,1
EndSplineSet
Validated: 1
EndChar

StartChar: G
Encoding: 39 71 41
Width: 1440
GlyphClass: 2
Flags: W
LayerCount: 4
Fore
SplineSet
1070 350 m 2,0,1
 1070 466 1070 466 1060 498 c 0,2,3
 1056 512 1056 512 1005 521 c 128,-1,4
 954 530 954 530 924 530 c 1,5,6
 918 538 918 538 917.5 559 c 128,-1,7
 917 580 917 580 924 588 c 1,8,9
 1129 578 1129 578 1158 578 c 0,10,11
 1177 578 1177 578 1382 588 c 1,12,13
 1389 580 1389 580 1388.5 559 c 128,-1,14
 1388 538 1388 538 1382 530 c 1,15,16
 1353 530 1353 530 1304.5 521 c 128,-1,17
 1256 512 1256 512 1252 498 c 0,18,19
 1242 466 1242 466 1242 350 c 2,20,-1
 1242 208 l 2,21,22
 1242 184 1242 184 1252 159.5 c 128,-1,23
 1262 135 1262 135 1262 128 c 0,24,25
 1262 119 1262 119 1254.5 112 c 128,-1,26
 1247 105 1247 105 1222 92 c 0,27,28
 1162 60 1162 60 1121.5 42.5 c 128,-1,29
 1081 25 1081 25 983.5 6.5 c 128,-1,30
 886 -12 886 -12 764 -12 c 0,31,32
 619 -12 619 -12 493 41 c 128,-1,33
 367 94 367 94 281 183 c 128,-1,34
 195 272 195 272 145.5 392 c 128,-1,35
 96 512 96 512 96 644 c 0,36,37
 96 783 96 783 147 909.5 c 128,-1,38
 198 1036 198 1036 286 1129.5 c 128,-1,39
 374 1223 374 1223 501 1278.5 c 128,-1,40
 628 1334 628 1334 772 1334 c 0,41,42
 1002 1334 1002 1334 1196 1292 c 1,43,44
 1242 1016 1242 1016 1242 996 c 0,45,46
 1243 987 1243 987 1228 978.5 c 128,-1,47
 1213 970 1213 970 1198 970 c 128,-1,48
 1183 970 1183 970 1174 976 c 1,49,50
 1117 1268 1117 1268 782 1268 c 0,51,52
 640 1268 640 1268 526 1180 c 128,-1,53
 412 1092 412 1092 353 960 c 128,-1,54
 294 828 294 828 294 686 c 0,55,56
 294 591 294 591 314 500.5 c 128,-1,57
 334 410 334 410 376.5 329 c 128,-1,58
 419 248 419 248 479.5 187 c 128,-1,59
 540 126 540 126 626 90 c 128,-1,60
 712 54 712 54 814 54 c 0,61,62
 928 54 928 54 1056 118 c 0,63,64
 1070 125 1070 125 1070 148 c 2,65,-1
 1070 350 l 2,0,1
EndSplineSet
Validated: 1
EndChar

StartChar: H
Encoding: 40 72 42
Width: 1452
GlyphClass: 2
Flags: W
LayerCount: 4
Fore
SplineSet
327 1314 m 0,0,1
 356 1314 356 1314 561 1324 c 1,2,3
 568 1316 568 1316 567.5 1292 c 128,-1,4
 567 1268 567 1268 561 1260 c 1,5,6
 531 1260 531 1260 479 1251 c 128,-1,7
 427 1242 427 1242 423 1228 c 0,8,9
 413 1196 413 1196 413 1080 c 2,10,-1
 413 730 l 1,11,-1
 417 724 l 1,12,13
 711 718 711 718 731 718 c 0,14,15
 767 718 767 718 1037 724 c 0,16,17
 1041 728 1041 728 1041 732 c 2,18,-1
 1041 1080 l 2,19,20
 1041 1196 1041 1196 1031 1228 c 0,21,22
 1027 1242 1027 1242 975 1251 c 128,-1,23
 923 1260 923 1260 893 1260 c 1,24,25
 887 1268 887 1268 886.5 1292 c 128,-1,26
 886 1316 886 1316 893 1324 c 1,27,28
 1098 1314 1098 1314 1129 1314 c 0,29,30
 1158 1314 1158 1314 1363 1324 c 1,31,32
 1370 1316 1370 1316 1369.5 1292 c 128,-1,33
 1369 1268 1369 1268 1363 1260 c 1,34,35
 1333 1260 1333 1260 1281 1251 c 128,-1,36
 1229 1242 1229 1242 1225 1228 c 0,37,38
 1215 1196 1215 1196 1215 1080 c 2,39,-1
 1215 238 l 2,40,41
 1215 122 1215 122 1225 90 c 0,42,43
 1229 76 1229 76 1281 67 c 128,-1,44
 1333 58 1333 58 1363 58 c 1,45,46
 1369 50 1369 50 1369.5 26 c 128,-1,47
 1370 2 1370 2 1363 -6 c 1,48,49
 1158 4 1158 4 1129 4 c 0,50,51
 1098 4 1098 4 893 -6 c 1,52,53
 886 2 886 2 886.5 26 c 128,-1,54
 887 50 887 50 893 58 c 1,55,56
 923 58 923 58 975 67 c 128,-1,57
 1027 76 1027 76 1031 90 c 0,58,59
 1041 122 1041 122 1041 238 c 2,60,-1
 1041 634 l 1,61,-1
 1037 642 l 1,62,63
 1013 643 1013 643 901.5 646.5 c 128,-1,64
 790 650 790 650 731 650 c 0,65,66
 439 650 439 650 415 638 c 1,67,-1
 413 634 l 1,68,-1
 413 238 l 2,69,70
 413 122 413 122 423 90 c 0,71,72
 427 76 427 76 479 67 c 128,-1,73
 531 58 531 58 561 58 c 1,74,75
 567 50 567 50 567.5 26 c 128,-1,76
 568 2 568 2 561 -6 c 1,77,78
 356 4 356 4 327 4 c 0,79,80
 296 4 296 4 91 -6 c 1,81,82
 84 2 84 2 84.5 26 c 128,-1,83
 85 50 85 50 91 58 c 1,84,85
 121 58 121 58 173 67 c 128,-1,86
 225 76 225 76 229 90 c 0,87,88
 239 122 239 122 239 238 c 2,89,-1
 239 1080 l 2,90,91
 239 1196 239 1196 229 1228 c 0,92,93
 225 1242 225 1242 173 1251 c 128,-1,94
 121 1260 121 1260 91 1260 c 1,95,96
 85 1268 85 1268 84.5 1292 c 128,-1,97
 84 1316 84 1316 91 1324 c 1,98,99
 296 1314 296 1314 327 1314 c 0,0,1
EndSplineSet
Validated: 1
EndChar

StartChar: I
Encoding: 41 73 43
Width: 648
GlyphClass: 2
Flags: W
LayerCount: 4
Fore
SplineSet
327 1314 m 0,0,1
 356 1314 356 1314 561 1324 c 1,2,3
 568 1316 568 1316 567.5 1295 c 128,-1,4
 567 1274 567 1274 561 1266 c 1,5,6
 531 1266 531 1266 479 1257 c 128,-1,7
 427 1248 427 1248 423 1234 c 0,8,9
 413 1202 413 1202 413 1086 c 2,10,-1
 413 232 l 2,11,12
 413 116 413 116 423 84 c 0,13,14
 427 70 427 70 479 61 c 128,-1,15
 531 52 531 52 561 52 c 1,16,17
 567 44 567 44 567.5 23 c 128,-1,18
 568 2 568 2 561 -6 c 1,19,20
 356 4 356 4 327 4 c 0,21,22
 296 4 296 4 91 -6 c 1,23,24
 84 2 84 2 84.5 23 c 128,-1,25
 85 44 85 44 91 52 c 1,26,27
 121 52 121 52 173 61 c 128,-1,28
 225 70 225 70 229 84 c 0,29,30
 239 116 239 116 239 232 c 2,31,-1
 239 1086 l 2,32,33
 239 1202 239 1202 229 1234 c 0,34,35
 225 1248 225 1248 173 1257 c 128,-1,36
 121 1266 121 1266 91 1266 c 1,37,38
 85 1274 85 1274 84.5 1295 c 128,-1,39
 84 1316 84 1316 91 1324 c 1,40,41
 296 1314 296 1314 327 1314 c 0,0,1
EndSplineSet
Validated: 1
EndChar

StartChar: J
Encoding: 42 74 44
Width: 626
GlyphClass: 2
Flags: W
LayerCount: 4
Fore
SplineSet
316 1314 m 0,0,1
 345 1314 345 1314 550 1324 c 1,2,3
 557 1316 557 1316 556.5 1295 c 128,-1,4
 556 1274 556 1274 550 1266 c 1,5,6
 520 1266 520 1266 468 1257 c 128,-1,7
 416 1248 416 1248 412 1234 c 0,8,9
 402 1202 402 1202 402 1086 c 2,10,-1
 402 242 l 2,11,12
 402 59 402 59 367.5 -77 c 128,-1,13
 333 -213 333 -213 269 -294.5 c 128,-1,14
 205 -376 205 -376 121.5 -415 c 128,-1,15
 38 -454 38 -454 -66 -454 c 0,16,17
 -90 -454 -90 -454 -132.5 -442.5 c 128,-1,18
 -175 -431 -175 -431 -192 -418 c 0,19,20
 -208 -402 -208 -402 -208 -372 c 0,21,22
 -208 -323 -208 -323 -183 -291.5 c 128,-1,23
 -158 -260 -158 -260 -112 -260 c 0,24,25
 -105 -260 -105 -260 -97.5 -261.5 c 128,-1,26
 -90 -263 -90 -263 -82 -267.5 c 128,-1,27
 -74 -272 -74 -272 -68.5 -275 c 128,-1,28
 -63 -278 -63 -278 -54 -285 c 128,-1,29
 -45 -292 -45 -292 -41.5 -295 c 128,-1,30
 -38 -298 -38 -298 -28 -307 c 128,-1,31
 -18 -316 -18 -316 -16 -318 c 0,32,33
 30 -360 30 -360 74 -360 c 0,34,35
 108 -360 108 -360 134 -334.5 c 128,-1,36
 160 -309 160 -309 182 -246.5 c 128,-1,37
 204 -184 204 -184 216 -63.5 c 128,-1,38
 228 57 228 57 228 232 c 2,39,-1
 228 1086 l 2,40,41
 228 1202 228 1202 218 1234 c 0,42,43
 214 1248 214 1248 162 1257 c 128,-1,44
 110 1266 110 1266 80 1266 c 1,45,46
 74 1274 74 1274 73.5 1295 c 128,-1,47
 73 1316 73 1316 80 1324 c 1,48,49
 285 1314 285 1314 316 1314 c 0,0,1
EndSplineSet
Validated: 1
EndChar

StartChar: K
Encoding: 43 75 45
Width: 1314
GlyphClass: 2
Flags: W
LayerCount: 4
Fore
SplineSet
327 1314 m 0,0,1
 356 1314 356 1314 561 1324 c 1,2,3
 568 1316 568 1316 567.5 1292 c 128,-1,4
 567 1268 567 1268 561 1260 c 1,5,6
 531 1260 531 1260 479 1251 c 128,-1,7
 427 1242 427 1242 423 1228 c 0,8,9
 413 1195 413 1195 413 1110 c 0,10,11
 413 1096 413 1096 413 1080 c 2,12,-1
 413 682 l 1,13,14
 465 714 465 714 639 884 c 0,15,16
 755 999 755 999 801 1048 c 128,-1,17
 847 1097 847 1097 893 1156 c 0,18,19
 921 1193 921 1193 921 1218 c 0,20,21
 921 1226 921 1226 918 1232.5 c 128,-1,22
 915 1239 915 1239 909 1243.5 c 128,-1,23
 903 1248 903 1248 896 1251.5 c 128,-1,24
 889 1255 889 1255 880 1257 c 128,-1,25
 871 1259 871 1259 863.5 1260 c 128,-1,26
 856 1261 856 1261 846 1261.5 c 128,-1,27
 836 1262 836 1262 830 1262 c 2,28,-1
 818 1262 l 1,29,-1
 809 1262 l 1,30,31
 804 1271 804 1271 804 1290.5 c 128,-1,32
 804 1310 804 1310 809 1324 c 1,33,34
 832 1323 832 1323 880.5 1319.5 c 128,-1,35
 929 1316 929 1316 967.5 1314 c 128,-1,36
 1006 1312 1006 1312 1039 1312 c 0,37,38
 1091 1312 1091 1312 1164 1317.5 c 128,-1,39
 1237 1323 1237 1323 1255 1324 c 1,40,41
 1259 1315 1259 1315 1258.5 1288.5 c 128,-1,42
 1258 1262 1258 1262 1251 1262 c 2,43,-1
 1235 1261 l 2,44,45
 1219 1260 1219 1260 1206 1258.5 c 128,-1,46
 1193 1257 1193 1257 1171 1252 c 128,-1,47
 1149 1247 1149 1247 1130.5 1239.5 c 128,-1,48
 1112 1232 1112 1232 1090.5 1219 c 128,-1,49
 1069 1206 1069 1206 1053 1188 c 0,50,51
 992 1122 992 1122 929 1057.5 c 128,-1,52
 866 993 866 993 826 954 c 128,-1,53
 786 915 786 915 708.5 841 c 128,-1,54
 631 767 631 767 590 728 c 0,55,56
 585 720 585 720 590 712 c 0,57,58
 603 697 603 697 646 646.5 c 128,-1,59
 689 596 689 596 703 580 c 128,-1,60
 717 564 717 564 755.5 519.5 c 128,-1,61
 794 475 794 475 810 456.5 c 128,-1,62
 826 438 826 438 860 399.5 c 128,-1,63
 894 361 894 361 912.5 341 c 128,-1,64
 931 321 931 321 960 289.5 c 128,-1,65
 989 258 989 258 1010 236.5 c 128,-1,66
 1031 215 1031 215 1055.5 190.5 c 128,-1,67
 1080 166 1080 166 1103 144 c 0,68,69
 1146 104 1146 104 1195.5 81 c 128,-1,70
 1245 58 1245 58 1321 52 c 1,71,72
 1327 41 1327 41 1324.5 20.5 c 128,-1,73
 1322 0 1322 0 1319 -6 c 1,74,75
 1098 -6 1098 -6 1035 16 c 0,76,77
 957 44 957 44 899 102 c 0,78,79
 844 156 844 156 449 608 c 0,80,81
 445 614 445 614 431 614 c 0,82,83
 421 614 421 614 413 610 c 1,84,-1
 413 238 l 2,85,86
 413 122 413 122 423 90 c 0,87,88
 427 76 427 76 479 67 c 128,-1,89
 531 58 531 58 561 58 c 1,90,91
 567 50 567 50 567.5 26 c 128,-1,92
 568 2 568 2 561 -6 c 1,93,94
 356 4 356 4 327 4 c 0,95,96
 296 4 296 4 91 -6 c 1,97,98
 84 2 84 2 84.5 26 c 128,-1,99
 85 50 85 50 91 58 c 1,100,101
 121 58 121 58 173 67 c 128,-1,102
 225 76 225 76 229 90 c 0,103,104
 239 122 239 122 239 238 c 2,105,-1
 239 1080 l 2,106,107
 239 1196 239 1196 229 1228 c 0,108,109
 225 1242 225 1242 173 1251 c 128,-1,110
 121 1260 121 1260 91 1260 c 1,111,112
 85 1268 85 1268 84.5 1292 c 128,-1,113
 84 1316 84 1316 91 1324 c 1,114,115
 296 1314 296 1314 327 1314 c 0,0,1
EndSplineSet
Validated: 1
EndChar

StartChar: L
Encoding: 44 76 46
Width: 1128
GlyphClass: 2
Flags: W
LayerCount: 4
Fore
SplineSet
413 232 m 2,0,1
 413 98 413 98 425 88 c 0,2,3
 443 74 443 74 469.5 71 c 128,-1,4
 496 68 496 68 567 68 c 2,5,-1
 681 68 l 2,6,7
 744 68 744 68 810 81.5 c 128,-1,8
 876 95 876 95 915 122 c 0,9,10
 997 178 997 178 1041 324 c 0,11,12
 1044 336 1044 336 1069 336 c 0,13,14
 1107 336 1107 336 1119 324 c 1,15,16
 1110 298 1110 298 1089 241 c 128,-1,17
 1068 184 1068 184 1055.5 148.5 c 128,-1,18
 1043 113 1043 113 1029.5 68 c 128,-1,19
 1016 23 1016 23 1011 -8 c 1,20,21
 908 -8 908 -8 688 -4 c 128,-1,22
 468 0 468 0 329 0 c 0,23,24
 280 0 280 0 204 -3 c 128,-1,25
 128 -6 128 -6 91 -6 c 1,26,27
 84 2 84 2 84.5 23 c 128,-1,28
 85 44 85 44 91 52 c 1,29,30
 121 52 121 52 173 61 c 128,-1,31
 225 70 225 70 229 84 c 0,32,33
 239 116 239 116 239 232 c 2,34,-1
 239 1086 l 2,35,36
 239 1202 239 1202 229 1234 c 0,37,38
 225 1248 225 1248 173 1257 c 128,-1,39
 121 1266 121 1266 91 1266 c 1,40,41
 85 1274 85 1274 84.5 1295 c 128,-1,42
 84 1316 84 1316 91 1324 c 1,43,44
 296 1314 296 1314 327 1314 c 0,45,46
 356 1314 356 1314 561 1324 c 1,47,48
 568 1316 568 1316 567.5 1295 c 128,-1,49
 567 1274 567 1274 561 1266 c 1,50,51
 531 1266 531 1266 479 1257 c 128,-1,52
 427 1248 427 1248 423 1234 c 0,53,54
 413 1201 413 1201 413 1116 c 0,55,56
 413 1102 413 1102 413 1086 c 2,57,-1
 413 232 l 2,0,1
EndSplineSet
Validated: 1
EndChar

StartChar: M
Encoding: 45 77 47
Width: 1814
GlyphClass: 2
Flags: W
LayerCount: 4
Fore
SplineSet
325 1314 m 0,0,1
 377 1314 377 1314 487 1324 c 1,2,3
 504 1270 504 1270 577.5 1094 c 128,-1,4
 651 918 651 918 753 675.5 c 128,-1,5
 855 433 855 433 911 292 c 0,6,7
 913 288 913 288 919 288 c 0,8,9
 926 288 926 288 929 296 c 0,10,11
 1221 1049 1221 1049 1235 1084 c 2,12,-1
 1323 1324 l 1,13,14
 1451 1316 1451 1316 1481 1316 c 0,15,16
 1605 1316 1605 1316 1705 1324 c 1,17,-1
 1711 1266 l 1,18,19
 1683 1266 1683 1266 1629.5 1254.5 c 128,-1,20
 1576 1243 1576 1243 1569 1230 c 0,21,22
 1559 1208 1559 1208 1559 1154 c 0,23,24
 1561 1093 1561 1093 1564.5 938.5 c 128,-1,25
 1568 784 1568 784 1572.5 576.5 c 128,-1,26
 1577 369 1577 369 1579 280 c 0,27,28
 1583 140 1583 140 1603 86 c 0,29,30
 1609 68 1609 68 1660.5 60 c 128,-1,31
 1712 52 1712 52 1743 52 c 1,32,33
 1750 40 1750 40 1750 21 c 128,-1,34
 1750 2 1750 2 1747 -6 c 1,35,36
 1547 4 1547 4 1509 4 c 0,37,38
 1468 4 1468 4 1431 2.5 c 128,-1,39
 1394 1 1394 1 1347 -2 c 128,-1,40
 1300 -5 1300 -5 1269 -6 c 1,41,42
 1265 -2 1265 -2 1264.5 18.5 c 128,-1,43
 1264 39 1264 39 1269 52 c 1,44,45
 1293 52 1293 52 1338 58.5 c 128,-1,46
 1383 65 1383 65 1399 74 c 0,47,48
 1417 84 1417 84 1417 158 c 0,49,50
 1417 172 1417 172 1415 215.5 c 128,-1,51
 1413 259 1413 259 1413 274 c 0,52,53
 1396 890 1396 890 1387 1130 c 0,54,55
 1387 1141 1387 1141 1382.5 1155.5 c 128,-1,56
 1378 1170 1378 1170 1369 1170 c 0,57,58
 1365 1170 1365 1170 1359 1156 c 0,59,60
 1313 1042 1313 1042 937 98 c 0,61,62
 927 76 927 76 901 37.5 c 128,-1,63
 875 -1 875 -1 861 -4 c 0,64,65
 858 -5 858 -5 843 0 c 1,66,-1
 355 1168 l 1,67,68
 351 976 351 976 344.5 725.5 c 128,-1,69
 338 475 338 475 333.5 314.5 c 128,-1,70
 329 154 329 154 329 150 c 0,71,72
 329 109 329 109 337 88 c 0,73,74
 345 69 345 69 403 60.5 c 128,-1,75
 461 52 461 52 495 52 c 1,76,77
 502 44 502 44 502 23 c 128,-1,78
 502 2 502 2 499 -6 c 1,79,80
 472 -5 472 -5 432 -2 c 128,-1,81
 392 1 392 1 359 2.5 c 128,-1,82
 326 4 326 4 287 4 c 0,83,84
 246 4 246 4 210.5 2.5 c 128,-1,85
 175 1 175 1 130 -2 c 128,-1,86
 85 -5 85 -5 53 -6 c 1,87,88
 49 -2 49 -2 48.5 18.5 c 128,-1,89
 48 39 48 39 53 52 c 1,90,91
 86 52 86 52 144.5 61.5 c 128,-1,92
 203 71 203 71 215 88 c 0,93,94
 236 118 236 118 239 188 c 0,95,96
 267 935 267 935 267 1144 c 0,97,98
 267 1202 267 1202 259 1224 c 0,99,100
 254 1240 254 1240 199.5 1253 c 128,-1,101
 145 1266 145 1266 119 1266 c 0,102,103
 116 1266 116 1266 116 1293.5 c 128,-1,104
 116 1321 116 1321 119 1324 c 0,105,106
 154 1322 154 1322 189.5 1319.5 c 128,-1,107
 225 1317 225 1317 254.5 1315.5 c 128,-1,108
 284 1314 284 1314 325 1314 c 0,0,1
EndSplineSet
Validated: 1
EndChar

StartChar: N
Encoding: 46 78 48
Width: 1552
GlyphClass: 2
Flags: W
LayerCount: 4
Fore
SplineSet
286 1320 m 0,0,1
 382 1320 382 1320 438 1324 c 1,2,3
 488 1246 488 1246 798 868.5 c 128,-1,4
 1108 491 1108 491 1222 332 c 1,5,-1
 1222 448 l 1,6,-1
 1222 1090 l 2,7,8
 1222 1152 1222 1152 1219 1179 c 128,-1,9
 1216 1206 1216 1206 1202 1228 c 0,10,11
 1194 1242 1194 1242 1136.5 1255 c 128,-1,12
 1079 1268 1079 1268 1050 1268 c 1,13,14
 1043 1278 1043 1278 1042.5 1298 c 128,-1,15
 1042 1318 1042 1318 1046 1326 c 1,16,17
 1246 1316 1246 1316 1276 1316 c 0,18,19
 1317 1316 1317 1316 1348.5 1317.5 c 128,-1,20
 1380 1319 1380 1319 1418 1322 c 128,-1,21
 1456 1325 1456 1325 1490 1326 c 1,22,23
 1505 1301 1505 1301 1490 1268 c 1,24,25
 1462 1268 1462 1268 1402.5 1256 c 128,-1,26
 1343 1244 1343 1244 1334 1228 c 0,27,28
 1321 1207 1321 1207 1317.5 1180 c 128,-1,29
 1314 1153 1314 1153 1314 1092 c 2,30,-1
 1314 278 l 2,31,32
 1314 106 1314 106 1318 2 c 0,33,34
 1316 -10 1316 -10 1292 -10 c 0,35,36
 1281 -10 1281 -10 1260.5 1 c 128,-1,37
 1240 12 1240 12 1222 36 c 2,38,-1
 350 1138 l 1,39,-1
 350 230 l 2,40,41
 350 168 350 168 353 141 c 128,-1,42
 356 114 356 114 370 92 c 0,43,44
 378 78 378 78 434.5 65 c 128,-1,45
 491 52 491 52 520 52 c 1,46,47
 527 42 527 42 527.5 22 c 128,-1,48
 528 2 528 2 524 -6 c 1,49,50
 324 4 324 4 296 4 c 0,51,52
 255 4 255 4 223.5 2.5 c 128,-1,53
 192 1 192 1 154 -2 c 128,-1,54
 116 -5 116 -5 82 -6 c 1,55,56
 67 19 67 19 82 52 c 1,57,58
 110 52 110 52 169.5 64 c 128,-1,59
 229 76 229 76 238 92 c 0,60,61
 251 113 251 113 254.5 140 c 128,-1,62
 258 167 258 167 258 228 c 2,63,-1
 258 1096 l 2,64,65
 258 1157 258 1157 254.5 1184 c 128,-1,66
 251 1211 251 1211 238 1232 c 0,67,68
 229 1248 229 1248 169.5 1260 c 128,-1,69
 110 1272 110 1272 82 1272 c 1,70,71
 67 1305 67 1305 82 1330 c 1,72,73
 114 1329 114 1329 181 1324.5 c 128,-1,74
 248 1320 248 1320 286 1320 c 0,0,1
EndSplineSet
Validated: 1
EndChar

StartChar: O
Encoding: 47 79 49
Width: 1496
GlyphClass: 2
Flags: W
LayerCount: 4
Fore
SplineSet
716 1266 m 0,0,1
 629 1266 629 1266 557.5 1232.5 c 128,-1,2
 486 1199 486 1199 438.5 1144 c 128,-1,3
 391 1089 391 1089 358 1015 c 128,-1,4
 325 941 325 941 310.5 862 c 128,-1,5
 296 783 296 783 296 700 c 0,6,7
 296 582 296 582 328.5 467 c 128,-1,8
 361 352 361 352 420 258 c 128,-1,9
 479 164 479 164 572.5 106 c 128,-1,10
 666 48 666 48 778 48 c 0,11,12
 865 48 865 48 937 81.5 c 128,-1,13
 1009 115 1009 115 1056.5 170.5 c 128,-1,14
 1104 226 1104 226 1137.5 300.5 c 128,-1,15
 1171 375 1171 375 1185.5 455 c 128,-1,16
 1200 535 1200 535 1200 618 c 0,17,18
 1200 736 1200 736 1167 850.5 c 128,-1,19
 1134 965 1134 965 1074.5 1058 c 128,-1,20
 1015 1151 1015 1151 921.5 1208.5 c 128,-1,21
 828 1266 828 1266 716 1266 c 0,0,1
746 1334 m 0,22,23
 877 1334 877 1334 996 1283.5 c 128,-1,24
 1115 1233 1115 1233 1204 1145 c 128,-1,25
 1293 1057 1293 1057 1345.5 929.5 c 128,-1,26
 1398 802 1398 802 1398 656 c 0,27,28
 1398 519 1398 519 1345.5 393.5 c 128,-1,29
 1293 268 1293 268 1204.5 177.5 c 128,-1,30
 1116 87 1116 87 996 33.5 c 128,-1,31
 876 -20 876 -20 746 -20 c 0,32,33
 615 -20 615 -20 496.5 30.5 c 128,-1,34
 378 81 378 81 290 169 c 128,-1,35
 202 257 202 257 150 384 c 128,-1,36
 98 511 98 511 98 656 c 0,37,38
 98 794 98 794 150 919.5 c 128,-1,39
 202 1045 202 1045 289.5 1135.5 c 128,-1,40
 377 1226 377 1226 496.5 1280 c 128,-1,41
 616 1334 616 1334 746 1334 c 0,22,23
EndSplineSet
Validated: 1
EndChar

StartChar: P
Encoding: 48 80 50
Width: 1096
GlyphClass: 2
Flags: W
LayerCount: 4
Fore
SplineSet
1036 958 m 0,0,1
 1036 776 1036 776 914.5 666 c 128,-1,2
 793 556 793 556 596 556 c 0,3,4
 542 556 542 556 510 572 c 1,5,6
 482 591 482 591 482 616 c 0,7,8
 482 618 482 618 483 620.5 c 128,-1,9
 484 623 484 623 486 625 c 128,-1,10
 488 627 488 627 492 626 c 0,11,12
 543 612 543 612 568 612 c 0,13,14
 692 612 692 612 772 695 c 128,-1,15
 852 778 852 778 852 924 c 0,16,17
 852 1077 852 1077 768 1165.5 c 128,-1,18
 684 1254 684 1254 522 1254 c 0,19,20
 431 1254 431 1254 422 1234 c 0,21,22
 412 1210 412 1210 412 1084 c 2,23,-1
 412 232 l 2,24,25
 412 116 412 116 422 84 c 0,26,27
 426 70 426 70 478 61 c 128,-1,28
 530 52 530 52 560 52 c 1,29,30
 566 44 566 44 566.5 23 c 128,-1,31
 567 2 567 2 560 -6 c 1,32,33
 355 4 355 4 326 4 c 0,34,35
 295 4 295 4 90 -6 c 1,36,37
 83 2 83 2 83.5 23 c 128,-1,38
 84 44 84 44 90 52 c 1,39,40
 120 52 120 52 172 61 c 128,-1,41
 224 70 224 70 228 84 c 0,42,43
 238 116 238 116 238 232 c 2,44,-1
 238 1086 l 2,45,46
 238 1202 238 1202 228 1234 c 0,47,48
 224 1248 224 1248 172 1257 c 128,-1,49
 120 1266 120 1266 90 1266 c 1,50,51
 84 1274 84 1274 83.5 1295 c 128,-1,52
 83 1316 83 1316 90 1324 c 1,53,54
 295 1314 295 1314 326 1314 c 0,55,56
 360 1314 360 1314 453 1316 c 128,-1,57
 546 1318 546 1318 610 1318 c 0,58,59
 719 1318 719 1318 814.5 1277.5 c 128,-1,60
 910 1237 910 1237 973 1153 c 128,-1,61
 1036 1069 1036 1069 1036 958 c 0,0,1
EndSplineSet
Validated: 1
EndChar

StartChar: Q
Encoding: 49 81 51
Width: 1494
GlyphClass: 2
Flags: W
LayerCount: 4
Fore
SplineSet
716 1266 m 0,0,1
 629 1266 629 1266 557.5 1232.5 c 128,-1,2
 486 1199 486 1199 438.5 1144 c 128,-1,3
 391 1089 391 1089 358 1015 c 128,-1,4
 325 941 325 941 310.5 862 c 128,-1,5
 296 783 296 783 296 700 c 0,6,7
 296 582 296 582 328.5 467 c 128,-1,8
 361 352 361 352 420 258 c 128,-1,9
 479 164 479 164 572.5 106 c 128,-1,10
 666 48 666 48 778 48 c 0,11,12
 865 48 865 48 937 81.5 c 128,-1,13
 1009 115 1009 115 1056.5 170.5 c 128,-1,14
 1104 226 1104 226 1137.5 300.5 c 128,-1,15
 1171 375 1171 375 1185.5 455 c 128,-1,16
 1200 535 1200 535 1200 618 c 0,17,18
 1200 736 1200 736 1167 850.5 c 128,-1,19
 1134 965 1134 965 1074.5 1058 c 128,-1,20
 1015 1151 1015 1151 921.5 1208.5 c 128,-1,21
 828 1266 828 1266 716 1266 c 0,0,1
746 1334 m 0,22,23
 877 1334 877 1334 996 1283.5 c 128,-1,24
 1115 1233 1115 1233 1204 1145 c 128,-1,25
 1293 1057 1293 1057 1345.5 929.5 c 128,-1,26
 1398 802 1398 802 1398 656 c 0,27,28
 1398 430 1398 430 1266.5 251 c 128,-1,29
 1135 72 1135 72 932 8 c 1,30,31
 987 -18 987 -18 1050.5 -56 c 128,-1,32
 1114 -94 1114 -94 1148 -113 c 128,-1,33
 1182 -132 1182 -132 1239.5 -147 c 128,-1,34
 1297 -162 1297 -162 1370 -162 c 0,35,36
 1470 -162 1470 -162 1512 -150 c 1,37,38
 1539 -150 1539 -150 1548 -164 c 0,39,40
 1550 -168 1550 -168 1550 -170 c 0,41,42
 1454 -221 1454 -221 1378 -246.5 c 128,-1,43
 1302 -272 1302 -272 1218 -272 c 0,44,45
 1158 -272 1158 -272 1096.5 -250.5 c 128,-1,46
 1035 -229 1035 -229 977 -195 c 128,-1,47
 919 -161 919 -161 861 -125 c 128,-1,48
 803 -89 803 -89 730 -53.5 c 128,-1,49
 657 -18 657 -18 586 0 c 0,50,51
 372 54 372 54 235 232.5 c 128,-1,52
 98 411 98 411 98 656 c 0,53,54
 98 794 98 794 150 919.5 c 128,-1,55
 202 1045 202 1045 289.5 1135.5 c 128,-1,56
 377 1226 377 1226 496.5 1280 c 128,-1,57
 616 1334 616 1334 746 1334 c 0,22,23
EndSplineSet
Validated: 1
EndChar

StartChar: R
Encoding: 50 82 52
Width: 1242
GlyphClass: 2
Flags: W
LayerCount: 4
Fore
SplineSet
610 1318 m 0,0,1
 680 1318 680 1318 750.5 1295.5 c 128,-1,2
 821 1273 821 1273 881.5 1231 c 128,-1,3
 942 1189 942 1189 979.5 1121.5 c 128,-1,4
 1017 1054 1017 1054 1017 972 c 0,5,6
 1017 869 1017 869 933.5 773.5 c 128,-1,7
 850 678 850 678 744 642 c 1,8,9
 873 427 873 427 1067 172 c 0,10,11
 1112 113 1112 113 1162.5 85.5 c 128,-1,12
 1213 58 1213 58 1293 52 c 1,13,14
 1299 41 1299 41 1296.5 20.5 c 128,-1,15
 1294 0 1294 0 1291 -6 c 1,16,17
 1096 -6 1096 -6 1027 18 c 0,18,19
 963 41 963 41 929 72 c 0,20,21
 912 87 912 87 897 106 c 0,22,23
 871 141 871 141 768.5 293 c 128,-1,24
 666 445 666 445 579 580 c 0,25,26
 563 604 563 604 519 604 c 2,27,-1
 413 604 l 1,28,-1
 413 232 l 2,29,30
 413 116 413 116 423 84 c 0,31,32
 427 70 427 70 479 61 c 128,-1,33
 531 52 531 52 561 52 c 1,34,35
 567 44 567 44 567.5 23 c 128,-1,36
 568 2 568 2 561 -6 c 1,37,38
 356 4 356 4 327 4 c 0,39,40
 296 4 296 4 91 -6 c 1,41,42
 84 2 84 2 84.5 23 c 128,-1,43
 85 44 85 44 91 52 c 1,44,45
 121 52 121 52 173 61 c 128,-1,46
 225 70 225 70 229 84 c 0,47,48
 237 109 237 109 239 232 c 2,49,-1
 238 1086 l 2,50,51
 238 1202 238 1202 228 1234 c 0,52,53
 224 1248 224 1248 172 1257 c 128,-1,54
 120 1266 120 1266 90 1266 c 1,55,56
 84 1274 84 1274 83.5 1295 c 128,-1,57
 83 1316 83 1316 90 1324 c 1,58,59
 295 1314 295 1314 326 1314 c 0,60,61
 360 1314 360 1314 453 1316 c 128,-1,62
 546 1318 546 1318 610 1318 c 0,0,1
830 954 m 0,63,64
 830 1093 830 1093 755.5 1173.5 c 128,-1,65
 681 1254 681 1254 522 1254 c 0,66,67
 431 1254 431 1254 422 1234 c 0,68,69
 412 1210 412 1210 412 1084 c 2,70,-1
 413 666 l 1,71,-1
 520 666 l 2,72,73
 643 666 643 666 736.5 746.5 c 128,-1,74
 830 827 830 827 830 954 c 0,63,64
EndSplineSet
Validated: 1
EndChar

StartChar: S
Encoding: 51 83 53
Width: 1004
GlyphClass: 2
Flags: W
LayerCount: 4
Fore
SplineSet
522 1332 m 0,0,1
 566 1332 566 1332 604.5 1327 c 128,-1,2
 643 1322 643 1322 668 1315.5 c 128,-1,3
 693 1309 693 1309 740 1296.5 c 128,-1,4
 787 1284 787 1284 824 1276 c 1,5,6
 837 1189 837 1189 852 992 c 0,7,8
 853 983 853 983 838 976.5 c 128,-1,9
 823 970 823 970 810 970 c 0,10,11
 796 970 796 970 788 978 c 1,12,13
 784 1009 784 1009 771 1046 c 128,-1,14
 758 1083 758 1083 733 1122 c 128,-1,15
 708 1161 708 1161 676.5 1192.5 c 128,-1,16
 645 1224 645 1224 601 1244 c 128,-1,17
 557 1264 557 1264 508 1264 c 0,18,19
 450 1264 450 1264 405.5 1243.5 c 128,-1,20
 361 1223 361 1223 337 1189 c 128,-1,21
 313 1155 313 1155 301.5 1118 c 128,-1,22
 290 1081 290 1081 290 1042 c 0,23,24
 290 1013 290 1013 297 986 c 128,-1,25
 304 959 304 959 314.5 938 c 128,-1,26
 325 917 325 917 344.5 895.5 c 128,-1,27
 364 874 364 874 380 859 c 128,-1,28
 396 844 396 844 424 824.5 c 128,-1,29
 452 805 452 805 470 793.5 c 128,-1,30
 488 782 488 782 520.5 762.5 c 128,-1,31
 553 743 553 743 570 732 c 0,32,33
 586 722 586 722 622 700 c 128,-1,34
 658 678 658 678 680.5 664 c 128,-1,35
 703 650 703 650 737.5 625.5 c 128,-1,36
 772 601 772 601 794 581.5 c 128,-1,37
 816 562 816 562 842 533.5 c 128,-1,38
 868 505 868 505 883 478 c 128,-1,39
 898 451 898 451 908 416.5 c 128,-1,40
 918 382 918 382 918 346 c 0,41,42
 918 266 918 266 883 196.5 c 128,-1,43
 848 127 848 127 789.5 80 c 128,-1,44
 731 33 731 33 655.5 6.5 c 128,-1,45
 580 -20 580 -20 500 -20 c 0,46,47
 453 -20 453 -20 398.5 -13 c 128,-1,48
 344 -6 344 -6 308 1 c 128,-1,49
 272 8 272 8 216.5 21 c 128,-1,50
 161 34 161 34 140 38 c 1,51,52
 124 117 124 117 111 220.5 c 128,-1,53
 98 324 98 324 98 348 c 1,54,55
 122 372 122 372 150 372 c 0,56,57
 169 372 169 372 172 354 c 0,58,59
 178 325 178 325 189.5 292.5 c 128,-1,60
 201 260 201 260 227 214 c 128,-1,61
 253 168 253 168 287.5 133 c 128,-1,62
 322 98 322 98 379 73 c 128,-1,63
 436 48 436 48 504 48 c 0,64,65
 606 48 606 48 675 113.5 c 128,-1,66
 744 179 744 179 744 292 c 0,67,68
 744 322 744 322 738 349 c 128,-1,69
 732 376 732 376 722.5 396 c 128,-1,70
 713 416 713 416 695.5 435.5 c 128,-1,71
 678 455 678 455 663 468 c 128,-1,72
 648 481 648 481 622.5 497.5 c 128,-1,73
 597 514 597 514 578.5 524.5 c 128,-1,74
 560 535 560 535 528.5 552 c 128,-1,75
 497 569 497 569 478 580 c 0,76,77
 436 605 436 605 424.5 611.5 c 128,-1,78
 413 618 413 618 373 643 c 128,-1,79
 333 668 333 668 318.5 679.5 c 128,-1,80
 304 691 304 691 270.5 717 c 128,-1,81
 237 743 237 743 223 760.5 c 128,-1,82
 209 778 209 778 187 806 c 128,-1,83
 165 834 165 834 155.5 859 c 128,-1,84
 146 884 146 884 138 915.5 c 128,-1,85
 130 947 130 947 130 980 c 0,86,87
 130 1082 130 1082 186.5 1164 c 128,-1,88
 243 1246 243 1246 332 1289 c 128,-1,89
 421 1332 421 1332 522 1332 c 0,0,1
EndSplineSet
Validated: 1
EndChar

StartChar: T
Encoding: 52 84 54
Width: 1252
GlyphClass: 2
Flags: W
LayerCount: 4
Fore
SplineSet
1016 1322 m 2,0,1
 1039 1322 1039 1322 1078 1332 c 128,-1,2
 1117 1342 1117 1342 1136 1352 c 0,3,4
 1159 1364 1159 1364 1174 1356 c 1,5,6
 1198 1147 1198 1147 1226 1012 c 1,7,8
 1210 996 1210 996 1188 998 c 0,9,10
 1167 998 1167 998 1160 1008 c 1,11,12
 1138 1119 1138 1119 1089 1185.5 c 128,-1,13
 1040 1252 1040 1252 968 1252 c 2,14,-1
 714 1252 l 1,15,-1
 714 232 l 2,16,17
 714 116 714 116 724 84 c 0,18,19
 728 70 728 70 780 61 c 128,-1,20
 832 52 832 52 862 52 c 1,21,22
 868 44 868 44 868.5 23 c 128,-1,23
 869 2 869 2 862 -6 c 1,24,25
 657 4 657 4 628 4 c 0,26,27
 597 4 597 4 392 -6 c 1,28,29
 385 2 385 2 385.5 23 c 128,-1,30
 386 44 386 44 392 52 c 1,31,32
 422 52 422 52 474 61 c 128,-1,33
 526 70 526 70 530 84 c 0,34,35
 540 116 540 116 540 232 c 2,36,-1
 540 1252 l 1,37,-1
 282 1252 l 2,38,39
 210 1252 210 1252 161 1185.5 c 128,-1,40
 112 1119 112 1119 90 1008 c 1,41,42
 83 998 83 998 62 998 c 0,43,44
 40 996 40 996 24 1012 c 1,45,46
 52 1147 52 1147 76 1356 c 1,47,48
 93 1364 93 1364 122 1350 c 0,49,50
 141 1340 141 1340 176 1331 c 128,-1,51
 211 1322 211 1322 234 1322 c 2,52,-1
 1016 1322 l 2,0,1
EndSplineSet
Validated: 1
EndChar

StartChar: U
Encoding: 53 85 55
Width: 1446
GlyphClass: 2
Flags: W
LayerCount: 4
Fore
SplineSet
295 1314 m 0,0,1
 324 1314 324 1314 529 1324 c 1,2,3
 536 1316 536 1316 535.5 1295 c 128,-1,4
 535 1274 535 1274 529 1266 c 1,5,6
 499 1266 499 1266 447 1257 c 128,-1,7
 395 1248 395 1248 391 1234 c 0,8,9
 381 1202 381 1202 381 1086 c 2,10,-1
 381 592 l 2,11,12
 381 346 381 346 479 224 c 0,13,14
 573 108 573 108 753 108 c 0,15,16
 1133 108 1133 108 1141 548 c 1,17,-1
 1141 1090 l 2,18,19
 1141 1152 1141 1152 1138 1179 c 128,-1,20
 1135 1206 1135 1206 1121 1228 c 0,21,22
 1113 1242 1113 1242 1059.5 1255 c 128,-1,23
 1006 1268 1006 1268 977 1268 c 1,24,25
 970 1278 970 1278 969.5 1298 c 128,-1,26
 969 1318 969 1318 973 1326 c 1,27,28
 1173 1316 1173 1316 1195 1316 c 0,29,30
 1236 1316 1236 1316 1267.5 1317.5 c 128,-1,31
 1299 1319 1299 1319 1337 1322 c 128,-1,32
 1375 1325 1375 1325 1409 1326 c 1,33,34
 1424 1301 1424 1301 1409 1268 c 1,35,36
 1381 1268 1381 1268 1321.5 1256 c 128,-1,37
 1262 1244 1262 1244 1253 1228 c 0,38,39
 1240 1207 1240 1207 1236.5 1180 c 128,-1,40
 1233 1153 1233 1153 1233 1092 c 2,41,-1
 1233 552 l 2,42,43
 1233 264 1233 264 1095 128 c 128,-1,44
 957 -8 957 -8 711 -8 c 0,45,46
 492 -8 492 -8 354 124 c 0,47,48
 207 263 207 263 207 502 c 2,49,-1
 207 1086 l 2,50,51
 207 1202 207 1202 197 1234 c 0,52,53
 193 1248 193 1248 141 1257 c 128,-1,54
 89 1266 89 1266 59 1266 c 1,55,56
 53 1274 53 1274 52.5 1295 c 128,-1,57
 52 1316 52 1316 59 1324 c 1,58,59
 264 1314 264 1314 295 1314 c 0,0,1
EndSplineSet
Validated: 1
EndChar

StartChar: V
Encoding: 54 86 56
Width: 1276
GlyphClass: 2
Flags: W
LayerCount: 4
Fore
SplineSet
219 1314 m 0,0,1
 267 1314 267 1314 467 1324 c 1,2,3
 470 1315 470 1315 469.5 1291 c 128,-1,4
 469 1267 469 1267 463 1266 c 0,5,6
 454 1266 454 1266 437 1263.5 c 128,-1,7
 420 1261 420 1261 397.5 1254.5 c 128,-1,8
 375 1248 375 1248 359 1233.5 c 128,-1,9
 343 1219 343 1219 343 1200 c 0,10,11
 343 1159 343 1159 378 1064 c 0,12,13
 565 554 565 554 676 258 c 1,14,15
 683 272 683 272 735 399.5 c 128,-1,16
 787 527 787 527 863.5 716 c 128,-1,17
 940 905 940 905 995 1046 c 0,18,19
 1031 1138 1031 1138 1031 1186 c 0,20,21
 1031 1208 1031 1208 1014.5 1225 c 128,-1,22
 998 1242 998 1242 973.5 1249.5 c 128,-1,23
 949 1257 949 1257 930 1260.5 c 128,-1,24
 911 1264 911 1264 899 1264 c 0,25,26
 892 1267 892 1267 892 1290.5 c 128,-1,27
 892 1314 892 1314 899 1322 c 1,28,29
 1047 1314 1047 1314 1107 1314 c 0,30,31
 1148 1314 1148 1314 1177.5 1315.5 c 128,-1,32
 1207 1317 1207 1317 1240.5 1320 c 128,-1,33
 1274 1323 1274 1323 1303 1324 c 1,34,35
 1307 1316 1307 1316 1305.5 1291 c 128,-1,36
 1304 1266 1304 1266 1299 1266 c 0,37,38
 1277 1266 1277 1266 1235 1253 c 128,-1,39
 1193 1240 1193 1240 1171 1214 c 0,40,41
 1133 1170 1133 1170 1071 1012 c 0,42,43
 903 590 903 590 683 64 c 0,44,45
 655 -4 655 -4 607 -4 c 0,46,47
 603 -4 603 -4 599.5 1.5 c 128,-1,48
 596 7 596 7 592 18 c 2,49,-1
 587 28 l 1,50,51
 547 132 547 132 420.5 469 c 128,-1,52
 294 806 294 806 207 1028 c 0,53,54
 159 1153 159 1153 115 1220 c 0,55,56
 101 1241 101 1241 57 1253.5 c 128,-1,57
 13 1266 13 1266 -13 1266 c 0,58,59
 -16 1266 -16 1266 -16 1293.5 c 128,-1,60
 -16 1321 -16 1321 -13 1324 c 0,61,62
 19 1323 19 1323 63 1320 c 128,-1,63
 107 1317 107 1317 142.5 1315.5 c 128,-1,64
 178 1314 178 1314 219 1314 c 0,0,1
EndSplineSet
Validated: 1
EndChar

StartChar: W
Encoding: 55 87 57
Width: 1800
GlyphClass: 2
Flags: W
LayerCount: 4
Fore
SplineSet
235 1314 m 0,0,1
 274 1314 274 1314 308 1315.5 c 128,-1,2
 342 1317 342 1317 383.5 1320 c 128,-1,3
 425 1323 425 1323 451 1324 c 1,4,5
 454 1315 454 1315 453.5 1291 c 128,-1,6
 453 1267 453 1267 447 1266 c 0,7,8
 438 1266 438 1266 421 1263.5 c 128,-1,9
 404 1261 404 1261 381.5 1254.5 c 128,-1,10
 359 1248 359 1248 343 1233.5 c 128,-1,11
 327 1219 327 1219 327 1200 c 128,-1,12
 327 1181 327 1181 357 1070 c 0,13,14
 382 979 382 979 468 698.5 c 128,-1,15
 554 418 554 418 590 296 c 1,16,17
 640 462 640 462 752.5 815.5 c 128,-1,18
 865 1169 865 1169 892 1258 c 0,19,20
 900 1285 900 1285 923 1304.5 c 128,-1,21
 946 1324 946 1324 964 1324 c 0,22,23
 973 1324 973 1324 988 1292 c 1,24,25
 1251 464 1251 464 1306 302 c 1,26,27
 1335 406 1335 406 1377.5 554 c 128,-1,28
 1420 702 1420 702 1451 812 c 128,-1,29
 1482 922 1482 922 1515 1048 c 0,30,31
 1539 1144 1539 1144 1539 1188 c 0,32,33
 1539 1210 1539 1210 1521.5 1227 c 128,-1,34
 1504 1244 1504 1244 1479.5 1251.5 c 128,-1,35
 1455 1259 1455 1259 1435 1262.5 c 128,-1,36
 1415 1266 1415 1266 1403 1266 c 0,37,38
 1396 1269 1396 1269 1396 1292.5 c 128,-1,39
 1396 1316 1396 1316 1403 1324 c 1,40,41
 1588 1314 1588 1314 1619 1314 c 0,42,43
 1660 1314 1660 1314 1688 1315.5 c 128,-1,44
 1716 1317 1716 1317 1748 1320 c 128,-1,45
 1780 1323 1780 1323 1809 1324 c 1,46,47
 1813 1316 1813 1316 1811.5 1291 c 128,-1,48
 1810 1266 1810 1266 1805 1266 c 0,49,50
 1788 1266 1788 1266 1746 1251 c 128,-1,51
 1704 1236 1704 1236 1678 1214 c 0,52,53
 1641 1183 1641 1183 1606 1062 c 0,54,55
 1560 904 1560 904 1468.5 582.5 c 128,-1,56
 1377 261 1377 261 1319 64 c 0,57,58
 1312 38 1312 38 1287.5 17 c 128,-1,59
 1263 -4 1263 -4 1243 -4 c 0,60,61
 1238 -4 1238 -4 1231.5 8 c 128,-1,62
 1225 20 1225 20 1223 28 c 0,63,64
 1195 109 1195 109 1152 240 c 2,65,-1
 1064 504 l 2,66,67
 1021 635 1021 635 983 751 c 128,-1,68
 945 867 945 867 920 944 c 0,69,70
 896 1016 l 1,71,72
 843 841 843 841 746.5 544.5 c 128,-1,73
 650 248 650 248 595 64 c 0,74,75
 588 38 588 38 563.5 17 c 128,-1,76
 539 -4 539 -4 519 -4 c 0,77,78
 514 -4 514 -4 507.5 8 c 128,-1,79
 501 20 501 20 499 28 c 0,80,81
 432 241 432 241 324.5 591.5 c 128,-1,82
 217 942 217 942 179 1064 c 0,83,84
 177 1072 177 1072 170 1095.5 c 128,-1,85
 163 1119 163 1119 161 1125.5 c 128,-1,86
 159 1132 159 1132 153 1149.5 c 128,-1,87
 147 1167 147 1167 143.5 1173.5 c 128,-1,88
 140 1180 140 1180 134 1191.5 c 128,-1,89
 128 1203 128 1203 121.5 1210.5 c 128,-1,90
 115 1218 115 1218 107 1226 c 0,91,92
 88 1244 88 1244 50.5 1255 c 128,-1,93
 13 1266 13 1266 -9 1266 c 0,94,95
 -12 1266 -12 1266 -12 1293.5 c 128,-1,96
 -12 1321 -12 1321 -9 1324 c 0,97,98
 221 1314 221 1314 235 1314 c 0,0,1
EndSplineSet
Validated: 1
EndChar

StartChar: X
Encoding: 56 88 58
Width: 1336
GlyphClass: 2
Flags: W
LayerCount: 4
Fore
SplineSet
319 1314 m 0,0,1
 375 1314 375 1314 575 1324 c 1,2,3
 579 1315 579 1315 578.5 1290.5 c 128,-1,4
 578 1266 578 1266 571 1266 c 0,5,6
 552 1266 552 1266 527 1261.5 c 128,-1,7
 502 1257 502 1257 476.5 1241.5 c 128,-1,8
 451 1226 451 1226 451 1202 c 0,9,10
 451 1176 451 1176 475 1142 c 2,11,-1
 707 786 l 1,12,13
 739 829 739 829 794 901.5 c 128,-1,14
 849 974 849 974 880.5 1015.5 c 128,-1,15
 912 1057 912 1057 946 1104.5 c 128,-1,16
 980 1152 980 1152 998 1180 c 0,17,18
 1007 1194 1007 1194 1007 1212 c 0,19,20
 1007 1223 1007 1223 997.5 1233.5 c 128,-1,21
 988 1244 988 1244 956 1254 c 128,-1,22
 924 1264 924 1264 872 1264 c 0,23,24
 866 1265 866 1265 864.5 1288.5 c 128,-1,25
 863 1312 863 1312 868 1322 c 1,26,27
 1001 1312 1001 1312 1075 1312 c 0,28,29
 1175 1312 1175 1312 1295 1322 c 1,30,31
 1300 1315 1300 1315 1299.5 1293.5 c 128,-1,32
 1299 1272 1299 1272 1291 1264 c 1,33,34
 1276 1264 1276 1264 1250.5 1259.5 c 128,-1,35
 1225 1255 1225 1255 1182.5 1235 c 128,-1,36
 1140 1215 1140 1215 1113 1184 c 0,37,38
 931 968 931 968 745 720 c 1,39,-1
 1139 132 l 2,40,41
 1165 92 1165 92 1221.5 72 c 128,-1,42
 1278 52 1278 52 1335 52 c 1,43,44
 1340 43 1340 43 1339.5 21 c 128,-1,45
 1339 -1 1339 -1 1337 -6 c 1,46,47
 1310 -5 1310 -5 1270.5 -2 c 128,-1,48
 1231 1 1231 1 1199.5 2.5 c 128,-1,49
 1168 4 1168 4 1131 4 c 0,50,51
 1081 4 1081 4 1036 2.5 c 128,-1,52
 991 1 991 1 934 -2 c 128,-1,53
 877 -5 877 -5 839 -6 c 1,54,55
 832 2 832 2 832 27 c 128,-1,56
 832 52 832 52 839 52 c 0,57,58
 866 52 866 52 910.5 67.5 c 128,-1,59
 955 83 955 83 955 108 c 0,60,61
 955 112 955 112 945 132 c 2,62,-1
 640 602 l 1,63,64
 544 474 544 474 437 323 c 128,-1,65
 330 172 330 172 309 132 c 1,66,67
 299 102 299 102 299 100 c 0,68,69
 299 87 299 87 313.5 76.5 c 128,-1,70
 328 66 328 66 364 59 c 128,-1,71
 400 52 400 52 453 52 c 1,72,73
 459 44 459 44 459.5 21 c 128,-1,74
 460 -2 460 -2 457 -6 c 1,75,76
 272 4 272 4 231 4 c 0,77,78
 185 4 185 4 -15 -6 c 1,79,80
 -19 4 -19 4 -17 25.5 c 128,-1,81
 -15 47 -15 47 -11 52 c 1,82,83
 23 52 23 52 95 73 c 128,-1,84
 167 94 167 94 203 140 c 0,85,86
 270 226 270 226 333 310.5 c 128,-1,87
 396 395 396 395 470 495.5 c 128,-1,88
 544 596 544 596 595 664 c 1,89,-1
 313 1096 l 2,90,91
 277 1152 277 1152 249.5 1181.5 c 128,-1,92
 222 1211 222 1211 181 1234 c 0,93,94
 157 1248 157 1248 123 1257 c 128,-1,95
 89 1266 89 1266 69 1266 c 0,96,97
 62 1266 62 1266 62 1291 c 128,-1,98
 62 1316 62 1316 69 1324 c 1,99,100
 103 1323 103 1323 151 1320 c 128,-1,101
 199 1317 199 1317 237 1315.5 c 128,-1,102
 275 1314 275 1314 319 1314 c 0,0,1
EndSplineSet
Validated: 1
EndChar

StartChar: Y
Encoding: 57 89 59
Width: 1196
GlyphClass: 2
Flags: W
LayerCount: 4
Fore
SplineSet
522 232 m 2,0,-1
 522 534 l 2,1,2
 522 562 522 562 508 590 c 0,3,4
 446 703 446 703 361.5 852 c 128,-1,5
 277 1001 277 1001 224 1096 c 0,6,7
 193 1150 193 1150 164.5 1179.5 c 128,-1,8
 136 1209 136 1209 92 1234 c 0,9,10
 68 1248 68 1248 34 1257 c 128,-1,11
 0 1266 0 1266 -20 1266 c 0,12,13
 -28 1266 -28 1266 -28 1291 c 128,-1,14
 -28 1316 -28 1316 -20 1324 c 1,15,16
 14 1323 14 1323 62 1320 c 128,-1,17
 110 1317 110 1317 148 1315.5 c 128,-1,18
 186 1314 186 1314 230 1314 c 0,19,20
 286 1314 286 1314 486 1324 c 1,21,22
 490 1315 490 1315 489.5 1290.5 c 128,-1,23
 489 1266 489 1266 482 1266 c 0,24,25
 463 1266 463 1266 438 1261.5 c 128,-1,26
 413 1257 413 1257 387.5 1241.5 c 128,-1,27
 362 1226 362 1226 362 1202 c 0,28,29
 362 1181 362 1181 386 1142 c 2,30,-1
 664 662 l 1,31,32
 732 784 732 784 815.5 951.5 c 128,-1,33
 899 1119 899 1119 924 1180 c 0,34,35
 930 1194 930 1194 930 1210 c 0,36,37
 930 1222 930 1222 919.5 1233 c 128,-1,38
 909 1244 909 1244 875.5 1254 c 128,-1,39
 842 1264 842 1264 790 1264 c 0,40,41
 786 1264 786 1264 784.5 1291 c 128,-1,42
 783 1318 783 1318 786 1322 c 1,43,44
 971 1312 971 1312 986 1312 c 0,45,46
 1033 1312 1033 1312 1067.5 1313.5 c 128,-1,47
 1102 1315 1102 1315 1141 1318 c 128,-1,48
 1180 1321 1180 1321 1206 1322 c 1,49,50
 1209 1313 1209 1313 1207.5 1288.5 c 128,-1,51
 1206 1264 1206 1264 1202 1264 c 0,52,53
 1188 1264 1188 1264 1172.5 1262.5 c 128,-1,54
 1157 1261 1157 1261 1126 1254.5 c 128,-1,55
 1095 1248 1095 1248 1067.5 1230 c 128,-1,56
 1040 1212 1040 1212 1024 1184 c 0,57,58
 963 1077 963 1077 708 602 c 0,59,60
 698 584 698 584 698 540 c 2,61,-1
 696 232 l 2,62,63
 696 116 696 116 706 84 c 0,64,65
 710 70 710 70 762 61 c 128,-1,66
 814 52 814 52 844 52 c 1,67,68
 850 44 850 44 850.5 23 c 128,-1,69
 851 2 851 2 844 -6 c 1,70,71
 639 4 639 4 610 4 c 0,72,73
 579 4 579 4 374 -6 c 1,74,75
 367 2 367 2 367.5 23 c 128,-1,76
 368 44 368 44 374 52 c 1,77,78
 404 52 404 52 456 61 c 128,-1,79
 508 70 508 70 512 84 c 0,80,81
 522 116 522 116 522 232 c 2,0,-1
EndSplineSet
Validated: 1
EndChar

StartChar: Z
Encoding: 58 90 60
Width: 1266
GlyphClass: 2
Flags: W
LayerCount: 4
Fore
SplineSet
432 1252 m 2,0,1
 332 1252 332 1252 263 1183.5 c 128,-1,2
 194 1115 194 1115 160 990 c 0,3,4
 155 982 155 982 138 982 c 0,5,6
 125 982 125 982 108 987.5 c 128,-1,7
 91 993 91 993 86 998 c 1,8,9
 133 1126 133 1126 152 1338 c 1,10,11
 264 1322 264 1322 316 1322 c 2,12,-1
 704 1322 l 2,13,14
 844 1322 844 1322 1124 1342 c 0,15,16
 1131 1340 1131 1340 1145.5 1324.5 c 128,-1,17
 1160 1309 1160 1309 1160 1298 c 0,18,19
 1158 1291 1158 1291 946.5 984 c 128,-1,20
 735 677 735 677 524 374 c 2,21,-1
 314 70 l 1,22,-1
 836 70 l 2,23,24
 953 70 953 70 1022 141 c 0,25,26
 1032 152 1032 152 1042 164.5 c 128,-1,27
 1052 177 1052 177 1059 187.5 c 128,-1,28
 1066 198 1066 198 1075 214.5 c 128,-1,29
 1084 231 1084 231 1088 239 c 128,-1,30
 1092 247 1092 247 1100 266 c 128,-1,31
 1108 285 1108 285 1110 290 c 128,-1,32
 1112 295 1112 295 1120 316 c 128,-1,33
 1128 337 1128 337 1128 338 c 0,34,35
 1131 344 1131 344 1156 344 c 0,36,37
 1186 344 1186 344 1204 326 c 1,38,39
 1190 281 1190 281 1172.5 224.5 c 128,-1,40
 1155 168 1155 168 1146.5 139.5 c 128,-1,41
 1138 111 1138 111 1127 73.5 c 128,-1,42
 1116 36 1116 36 1108 0 c 1,43,-1
 106 0 l 2,44,45
 89 0 89 0 76.5 9.5 c 128,-1,46
 64 19 64 19 70 28 c 2,47,-1
 920 1252 l 1,48,-1
 432 1252 l 2,0,1
EndSplineSet
Validated: 1
EndChar

StartChar: bracketleft
Encoding: 59 91 61
Width: 518
GlyphClass: 2
Flags: W
LayerCount: 4
Fore
SplineSet
196 1436 m 0,0,1
 269 1436 269 1436 345.5 1439 c 128,-1,2
 422 1442 422 1442 462 1445 c 2,3,-1
 502 1448 l 1,4,5
 508 1442 508 1442 508 1430 c 0,6,7
 508 1405 508 1405 488 1398 c 0,8,9
 454 1386 454 1386 395.5 1374.5 c 128,-1,10
 337 1363 337 1363 296 1358 c 2,11,-1
 254 1352 l 1,12,-1
 254 -192 l 1,13,14
 412 -212 412 -212 488 -238 c 0,15,16
 508 -245 508 -245 508 -270 c 0,17,18
 508 -275 508 -275 506.5 -279.5 c 128,-1,19
 505 -284 505 -284 504 -286 c 2,20,-1
 502 -288 l 1,21,22
 360 -276 360 -276 196 -276 c 0,23,24
 180 -276 180 -276 170.5 -264 c 128,-1,25
 161 -252 161 -252 159.5 -243.5 c 128,-1,26
 158 -235 158 -235 158 -230 c 2,27,-1
 158 1390 l 2,28,29
 158 1395 158 1395 159.5 1403.5 c 128,-1,30
 161 1412 161 1412 170.5 1424 c 128,-1,31
 180 1436 180 1436 196 1436 c 0,0,1
EndSplineSet
Validated: 1
Substitution2: "'smcp' Lowercase to Small Capitals lookup 12 subtable" bracketleft.sc
EndChar

StartChar: backslash
Encoding: 60 92 62
Width: 802
GlyphClass: 2
Flags: W
LayerCount: 4
Fore
SplineSet
62 1500 m 1,0,1
 70 1514 70 1514 102 1514 c 0,2,3
 118 1514 118 1514 136 1504 c 128,-1,4
 154 1494 154 1494 158 1482 c 0,5,6
 738 -22 738 -22 738 -34 c 0,7,8
 736 -41 736 -41 722.5 -48.5 c 128,-1,9
 709 -56 709 -56 692 -56 c 0,10,11
 681 -56 681 -56 667.5 -47 c 128,-1,12
 654 -38 654 -38 650 -28 c 0,13,14
 144 1288 144 1288 62 1500 c 1,0,1
EndSplineSet
Validated: 1
Substitution2: "'smcp' Lowercase to Small Capitals lookup 12 subtable" backslash.sc
EndChar

StartChar: bracketright
Encoding: 61 93 63
Width: 520
GlyphClass: 2
Flags: W
LayerCount: 4
Fore
SplineSet
324 1436 m 0,0,1
 340 1436 340 1436 349.5 1424 c 128,-1,2
 359 1412 359 1412 360.5 1403.5 c 128,-1,3
 362 1395 362 1395 362 1390 c 2,4,-1
 362 -230 l 2,5,6
 362 -235 362 -235 360.5 -243.5 c 128,-1,7
 359 -252 359 -252 349.5 -264 c 128,-1,8
 340 -276 340 -276 324 -276 c 0,9,10
 251 -276 251 -276 174.5 -279 c 128,-1,11
 98 -282 98 -282 58 -285 c 2,12,-1
 18 -288 l 1,13,14
 12 -282 12 -282 12 -270 c 0,15,16
 12 -245 12 -245 32 -238 c 0,17,18
 66 -226 66 -226 124.5 -214.5 c 128,-1,19
 183 -203 183 -203 224 -198 c 2,20,-1
 266 -192 l 1,21,-1
 266 1352 l 1,22,23
 108 1372 108 1372 32 1398 c 0,24,25
 12 1405 12 1405 12 1430 c 0,26,27
 12 1435 12 1435 13.5 1439.5 c 128,-1,28
 15 1444 15 1444 16 1446 c 2,29,-1
 18 1448 l 1,30,31
 160 1436 160 1436 324 1436 c 0,0,1
EndSplineSet
Validated: 1
Substitution2: "'smcp' Lowercase to Small Capitals lookup 12 subtable" bracketright.sc
EndChar

StartChar: asciicircum
Encoding: 62 94 64
Width: 780
GlyphClass: 2
Flags: W
LayerCount: 4
Fore
SplineSet
372 1290 m 0,0,1
 391 1290 391 1290 404 1264 c 0,2,3
 440 1193 440 1193 472 1136 c 128,-1,4
 504 1079 504 1079 550 1001 c 128,-1,5
 596 923 596 923 622 878 c 1,6,7
 622 864 622 864 612 855 c 128,-1,8
 602 846 602 846 592 846 c 1,9,10
 551 889 551 889 496 953.5 c 128,-1,11
 441 1018 441 1018 406 1061 c 2,12,-1
 372 1104 l 1,13,14
 246 942 246 942 154 846 c 1,15,16
 144 846 144 846 133 855 c 128,-1,17
 122 864 122 864 122 878 c 1,18,19
 151 928 151 928 195 1002 c 128,-1,20
 239 1076 239 1076 272.5 1134.5 c 128,-1,21
 306 1193 306 1193 342 1264 c 0,22,23
 355 1290 355 1290 372 1290 c 0,0,1
EndSplineSet
Validated: 1
Substitution2: "'smcp' Lowercase to Small Capitals lookup 12 subtable" asciicircum.sc
EndChar

StartChar: underscore
Encoding: 63 95 65
Width: 1010
GlyphClass: 2
Flags: W
LayerCount: 4
Fore
SplineSet
28 -66 m 0,0,1
 38 26 38 26 58 26 c 2,2,-1
 956 26 l 2,3,4
 964 26 964 26 964 16 c 0,5,6
 964 -1 964 -1 944 -74 c 0,7,8
 942 -79 942 -79 939 -82 c 128,-1,9
 936 -85 936 -85 934 -86 c 2,10,-1
 932 -86 l 1,11,-1
 42 -86 l 2,12,13
 28 -86 28 -86 28 -66 c 0,0,1
EndSplineSet
Validated: 1
EndChar

StartChar: a
Encoding: 65 97 67
Width: 862
GlyphClass: 2
Flags: W
LayerCount: 4
Fore
SplineSet
374 92 m 0,0,1
 423 92 423 92 485.5 124.5 c 128,-1,2
 548 157 548 157 548 174 c 2,3,-1
 548 446 l 1,4,5
 393 400 393 400 362 388 c 0,6,7
 305 366 305 366 272.5 326.5 c 128,-1,8
 240 287 240 287 240 232 c 0,9,10
 240 176 240 176 279 134 c 128,-1,11
 318 92 318 92 374 92 c 0,0,1
482 872 m 0,12,13
 569 872 569 872 634.5 792 c 128,-1,14
 700 712 700 712 700 598 c 2,15,-1
 700 186 l 2,16,17
 700 92 700 92 762 92 c 0,18,19
 771 92 771 92 779.5 93.5 c 128,-1,20
 788 95 788 95 794 97.5 c 128,-1,21
 800 100 800 100 806.5 103.5 c 128,-1,22
 813 107 813 107 816.5 109.5 c 128,-1,23
 820 112 820 112 823.5 115 c 128,-1,24
 827 118 827 118 828 118 c 0,25,26
 836 118 836 118 836 102 c 0,27,28
 836 81 836 81 826 64 c 1,29,30
 803 43 803 43 753.5 15.5 c 128,-1,31
 704 -12 704 -12 676 -12 c 0,32,33
 634 -12 634 -12 599 28.5 c 128,-1,34
 564 69 564 69 554 118 c 1,35,36
 525 89 525 89 439.5 36.5 c 128,-1,37
 354 -16 354 -16 308 -16 c 0,38,39
 209 -16 209 -16 141.5 50.5 c 128,-1,40
 74 117 74 117 74 214 c 0,41,42
 74 271 74 271 105.5 315.5 c 128,-1,43
 137 360 137 360 174 374 c 0,44,45
 207 386 207 386 294 416 c 128,-1,46
 381 446 381 446 439.5 467 c 128,-1,47
 498 488 498 488 524 500 c 0,48,49
 539 506 539 506 543.5 515 c 128,-1,50
 548 524 548 524 548 550 c 2,51,-1
 548 604 l 2,52,53
 548 675 548 675 497.5 735.5 c 128,-1,54
 447 796 447 796 376 796 c 0,55,56
 326 796 326 796 301.5 765.5 c 128,-1,57
 277 735 277 735 266 672 c 0,58,59
 249 576 249 576 172 576 c 0,60,61
 142 576 142 576 123 602 c 128,-1,62
 104 628 104 628 104 660 c 0,63,64
 104 668 104 668 108.5 684.5 c 128,-1,65
 113 701 113 701 118 708 c 0,66,67
 180 766 180 766 282.5 819 c 128,-1,68
 385 872 385 872 482 872 c 0,12,13
EndSplineSet
Validated: 1
Substitution2: "'smcp' Lowercase to Small Capitals lookup 12 subtable" a.sc
EndChar

StartChar: b
Encoding: 66 98 68
Width: 996
GlyphClass: 2
Flags: W
LayerCount: 4
Fore
SplineSet
423 -14 m 0,0,1
 380 -14 380 -14 275 16 c 0,2,3
 270 17 270 17 254 22 c 128,-1,4
 238 27 238 27 231.5 28.5 c 128,-1,5
 225 30 225 30 211 32.5 c 128,-1,6
 197 35 197 35 188.5 35 c 128,-1,7
 180 35 180 35 168 33.5 c 128,-1,8
 156 32 156 32 145 28 c 0,9,10
 138 28 138 28 128.5 45.5 c 128,-1,11
 119 63 119 63 119 72 c 0,12,13
 143 125 143 125 143 220 c 2,14,-1
 143 1116 l 2,15,16
 143 1196 143 1196 133 1220 c 0,17,18
 118 1256 118 1256 11 1256 c 0,19,20
 10 1256 10 1256 9 1268.5 c 128,-1,21
 8 1281 8 1281 8.5 1294 c 128,-1,22
 9 1307 9 1307 13 1308 c 0,23,24
 151 1322 151 1322 297 1388 c 0,25,26
 304 1388 304 1388 311.5 1377.5 c 128,-1,27
 319 1367 319 1367 319 1356 c 0,28,29
 297 1292 297 1292 297 1182 c 2,30,-1
 297 788 l 1,31,32
 297 779 l 0,33,34
 297 776 297 776 298.5 770.5 c 128,-1,35
 300 765 300 765 302 765.5 c 128,-1,36
 304 766 304 766 309 768 c 0,37,38
 350 798 350 798 426 837 c 128,-1,39
 502 876 502 876 551 876 c 0,40,41
 637 876 637 876 708.5 838 c 128,-1,42
 780 800 780 800 824.5 739 c 128,-1,43
 869 678 869 678 893 607 c 128,-1,44
 917 536 917 536 917 466 c 0,45,46
 917 369 917 369 879.5 280.5 c 128,-1,47
 842 192 842 192 777 127.5 c 128,-1,48
 712 63 712 63 619.5 24.5 c 128,-1,49
 527 -14 527 -14 423 -14 c 0,0,1
455 758 m 0,50,51
 419 758 419 758 371 739 c 128,-1,52
 323 720 323 720 307 704 c 0,53,54
 297 694 297 694 297 682 c 2,55,-1
 297 196 l 2,56,57
 297 135 297 135 355 94.5 c 128,-1,58
 413 54 413 54 483 54 c 128,-1,59
 553 54 553 54 615 103.5 c 128,-1,60
 677 153 677 153 713 230.5 c 128,-1,61
 749 308 749 308 749 388 c 0,62,63
 749 561 749 561 669.5 659.5 c 128,-1,64
 590 758 590 758 455 758 c 0,50,51
EndSplineSet
Validated: 1
Substitution2: "'smcp' Lowercase to Small Capitals lookup 12 subtable" b.sc
EndChar

StartChar: c
Encoding: 67 99 69
Width: 846
GlyphClass: 2
Flags: W
LayerCount: 4
Fore
SplineSet
764 772 m 0,0,1
 764 723 764 723 741 699.5 c 128,-1,2
 718 676 718 676 688 676 c 0,3,4
 668 676 668 676 648 689 c 128,-1,5
 628 702 628 702 605.5 722.5 c 128,-1,6
 583 743 583 743 572 750 c 0,7,8
 538 773 538 773 516.5 780.5 c 128,-1,9
 495 788 495 788 458 788 c 0,10,11
 372 788 372 788 303 695.5 c 128,-1,12
 234 603 234 603 234 454 c 0,13,14
 234 286 234 286 324.5 201 c 128,-1,15
 415 116 415 116 558 116 c 0,16,17
 630 116 630 116 684.5 149 c 128,-1,18
 739 182 739 182 770 218 c 0,19,20
 771 218 771 218 775 214.5 c 128,-1,21
 779 211 779 211 782.5 204 c 128,-1,22
 786 197 786 197 786 190 c 0,23,24
 786 174 786 174 774 154 c 0,25,26
 758 128 758 128 734 102 c 128,-1,27
 710 76 710 76 674 48 c 128,-1,28
 638 20 638 20 587.5 2 c 128,-1,29
 537 -16 537 -16 482 -16 c 0,30,31
 365 -16 365 -16 271 42 c 128,-1,32
 177 100 177 100 127.5 191.5 c 128,-1,33
 78 283 78 283 78 388 c 0,34,35
 78 472 78 472 108.5 550 c 128,-1,36
 139 628 139 628 189.5 686 c 128,-1,37
 240 744 240 744 303 787.5 c 128,-1,38
 366 831 366 831 433.5 853.5 c 128,-1,39
 501 876 501 876 564 876 c 0,40,41
 672 876 672 876 744 828 c 0,42,43
 751 821 751 821 757.5 803.5 c 128,-1,44
 764 786 764 786 764 772 c 0,0,1
EndSplineSet
Validated: 1
Substitution2: "'smcp' Lowercase to Small Capitals lookup 12 subtable" c.sc
EndChar

StartChar: d
Encoding: 68 100 70
Width: 1030
GlyphClass: 2
Flags: W
LayerCount: 4
Fore
SplineSet
554 876 m 0,0,1
 584 876 584 876 630 869 c 128,-1,2
 676 862 676 862 692 856 c 0,3,4
 702 856 702 856 702 898 c 2,5,-1
 702 1116 l 2,6,7
 702 1196 702 1196 692 1220 c 0,8,9
 677 1256 677 1256 570 1256 c 0,10,11
 569 1256 569 1256 568 1268.5 c 128,-1,12
 567 1281 567 1281 567.5 1294 c 128,-1,13
 568 1307 568 1307 572 1308 c 0,14,15
 710 1322 710 1322 856 1388 c 0,16,17
 863 1388 863 1388 870.5 1377.5 c 128,-1,18
 878 1367 878 1367 878 1356 c 0,19,20
 856 1292 856 1292 856 1182 c 2,21,-1
 856 326 l 2,22,23
 856 163 856 163 870 130 c 0,24,25
 876 118 876 118 895 110 c 128,-1,26
 914 102 914 102 933 99.5 c 128,-1,27
 952 97 952 97 969.5 95.5 c 128,-1,28
 987 94 987 94 988 94 c 0,29,30
 994 91 994 91 994 70 c 0,31,32
 994 64 994 64 989 52 c 128,-1,33
 984 40 984 40 978 40 c 0,34,35
 949 38 949 38 911.5 32 c 128,-1,36
 874 26 874 26 841.5 18 c 128,-1,37
 809 10 809 10 781 2 c 128,-1,38
 753 -6 753 -6 736 -11 c 2,39,-1
 718 -16 l 1,40,41
 702 -16 702 -16 702 22 c 2,42,-1
 702 92 l 2,43,44
 700 105 700 105 696 104 c 0,45,46
 666 72 666 72 580 28 c 128,-1,47
 494 -16 494 -16 430 -16 c 0,48,49
 290 -16 290 -16 184 108.5 c 128,-1,50
 78 233 78 233 78 412 c 0,51,52
 78 505 78 505 127 594 c 128,-1,53
 176 683 176 683 248.5 743 c 128,-1,54
 321 803 321 803 403.5 839.5 c 128,-1,55
 486 876 486 876 554 876 c 0,0,1
490 792 m 0,56,57
 381 792 381 792 313.5 692.5 c 128,-1,58
 246 593 246 593 246 460 c 0,59,60
 246 312 246 312 321.5 210 c 128,-1,61
 397 108 397 108 528 108 c 0,62,63
 592 108 592 108 647 135 c 128,-1,64
 702 162 702 162 702 188 c 2,65,-1
 702 694 l 2,66,67
 702 729 702 729 637 760.5 c 128,-1,68
 572 792 572 792 490 792 c 0,56,57
EndSplineSet
Validated: 1
Substitution2: "'smcp' Lowercase to Small Capitals lookup 12 subtable" d.sc
EndChar

StartChar: e
Encoding: 69 101 71
Width: 860
GlyphClass: 2
Flags: W
LayerCount: 4
Fore
SplineSet
232 570 m 2,0,1
 558 570 l 0,2,3
 601 570 601 570 604 616 c 0,4,5
 605 636 605 636 596 666 c 128,-1,6
 587 696 587 696 569 728 c 128,-1,7
 551 760 551 760 517 782 c 128,-1,8
 483 804 483 804 440 804 c 0,9,10
 393 804 393 804 354 780 c 128,-1,11
 315 756 315 756 292.5 721.5 c 128,-1,12
 270 687 270 687 255.5 652.5 c 128,-1,13
 241 618 241 618 235.5 594 c 128,-1,14
 230 570 230 570 232 570 c 2,0,1
222 496 m 1,15,16
 222 489 222 489 222 481 c 0,17,18
 222 309 222 309 312 212 c 0,19,20
 407 112 407 112 548 112 c 0,21,22
 620 112 620 112 678.5 147 c 128,-1,23
 737 182 737 182 768 218 c 0,24,25
 769 218 769 218 773 214.5 c 128,-1,26
 777 211 777 211 780.5 204 c 128,-1,27
 784 197 784 197 784 190 c 0,28,29
 784 174 784 174 772 154 c 0,30,31
 756 128 756 128 732 102 c 128,-1,32
 708 76 708 76 672 48 c 128,-1,33
 636 20 636 20 585.5 2 c 128,-1,34
 535 -16 535 -16 480 -16 c 0,35,36
 305 -16 305 -16 192.5 102.5 c 128,-1,37
 80 221 80 221 80 400 c 0,38,39
 80 497 80 497 117 587 c 128,-1,40
 154 677 154 677 211 739 c 128,-1,41
 268 801 268 801 338 838.5 c 128,-1,42
 408 876 408 876 474 876 c 0,43,44
 542 876 542 876 597 855 c 128,-1,45
 652 834 652 834 684 803.5 c 128,-1,46
 716 773 716 773 737 734 c 128,-1,47
 758 695 758 695 766 663 c 128,-1,48
 774 631 774 631 774 604 c 0,49,50
 774 558 774 558 763.5 534.5 c 128,-1,51
 753 511 753 511 726 510 c 0,52,53
 685 507 685 507 466.5 501.5 c 128,-1,54
 248 496 248 496 222 496 c 1,15,16
EndSplineSet
Validated: 1
Substitution2: "'smcp' Lowercase to Small Capitals lookup 12 subtable" e.sc
EndChar

StartChar: f
Encoding: 70 102 72
Width: 616
GlyphClass: 2
Flags: W
LayerCount: 4
Fore
SplineSet
539 1394 m 0,0,1
 582 1394 582 1394 595.5 1390 c 128,-1,2
 609 1386 609 1386 633 1370 c 0,3,4
 640 1363 640 1363 646.5 1345.5 c 128,-1,5
 653 1328 653 1328 653 1314 c 0,6,7
 653 1289 653 1289 644.5 1271.5 c 128,-1,8
 636 1254 636 1254 622 1246.5 c 128,-1,9
 608 1239 608 1239 596.5 1236.5 c 128,-1,10
 585 1234 585 1234 573 1234 c 0,11,12
 555 1234 555 1234 515 1256 c 0,13,14
 482 1274 482 1274 457 1274 c 0,15,16
 408 1274 408 1274 377 1224 c 0,17,18
 347 1177 347 1177 347 1092 c 0,19,20
 347 1089 347 1089 347 1086 c 2,21,-1
 347 838 l 1,22,-1
 583 838 l 2,23,24
 593 838 593 838 593 816 c 0,25,26
 593 784 593 784 565 756 c 1,27,-1
 347 756 l 1,28,-1
 347 232 l 2,29,30
 347 116 347 116 357 84 c 0,31,32
 361 70 361 70 411 61 c 128,-1,33
 461 52 461 52 491 52 c 1,34,35
 497 44 497 44 497.5 23 c 128,-1,36
 498 2 498 2 491 -6 c 1,37,38
 286 4 286 4 269 4 c 0,39,40
 234 4 234 4 201.5 2.5 c 128,-1,41
 169 1 169 1 127 -2 c 128,-1,42
 85 -5 85 -5 57 -6 c 1,43,44
 50 2 50 2 50.5 23 c 128,-1,45
 51 44 51 44 57 52 c 1,46,47
 86 52 86 52 132.5 61 c 128,-1,48
 179 70 179 70 183 84 c 0,49,50
 193 116 193 116 193 232 c 2,51,-1
 193 756 l 1,52,-1
 77 756 l 2,53,54
 67 756 67 756 67 774 c 0,55,56
 67 779 67 779 89 804.5 c 128,-1,57
 111 830 111 830 119 838 c 1,58,-1
 193 838 l 1,59,-1
 193 876 l 2,60,61
 193 979 193 979 230 1078.5 c 128,-1,62
 267 1178 267 1178 320.5 1245 c 128,-1,63
 374 1312 374 1312 433.5 1353 c 128,-1,64
 493 1394 493 1394 539 1394 c 0,0,1
EndSplineSet
Validated: 1
Substitution2: "'smcp' Lowercase to Small Capitals lookup 12 subtable" f.sc
EndChar

StartChar: g
Encoding: 71 103 73
Width: 932
GlyphClass: 2
Flags: W
LayerCount: 4
Fore
SplineSet
430 818 m 0,0,1
 349 818 349 818 301.5 747 c 128,-1,2
 254 676 254 676 254 584 c 0,3,4
 254 486 254 486 306.5 410 c 128,-1,5
 359 334 359 334 446 334 c 0,6,7
 524 334 524 334 570 403.5 c 128,-1,8
 616 473 616 473 616 562 c 0,9,10
 616 664 616 664 566.5 741 c 128,-1,11
 517 818 517 818 430 818 c 0,0,1
510 -8 m 0,12,13
 342 -8 342 -8 324 -18 c 0,14,15
 280 -43 280 -43 242 -80 c 128,-1,16
 204 -117 204 -117 204 -152 c 0,17,18
 204 -252 204 -252 275.5 -314 c 128,-1,19
 347 -376 347 -376 472 -376 c 0,20,21
 540 -376 540 -376 610.5 -346 c 128,-1,22
 681 -316 681 -316 727.5 -265.5 c 128,-1,23
 774 -215 774 -215 774 -162 c 0,24,25
 774 -139 774 -139 759 -113.5 c 128,-1,26
 744 -88 744 -88 714 -63.5 c 128,-1,27
 684 -39 684 -39 630.5 -23.5 c 128,-1,28
 577 -8 577 -8 510 -8 c 0,12,13
602 134 m 2,29,30
 722 134 722 134 817 70.5 c 128,-1,31
 912 7 912 7 912 -76 c 0,32,33
 912 -137 912 -137 869 -204 c 128,-1,34
 826 -271 826 -271 756.5 -326 c 128,-1,35
 687 -381 687 -381 589.5 -417 c 128,-1,36
 492 -453 492 -453 392 -454 c 0,37,38
 389 -454 389 -454 386 -454 c 0,39,40
 304 -454 304 -454 230 -429 c 0,41,42
 153 -403 153 -403 99.5 -345.5 c 128,-1,43
 46 -288 46 -288 46 -210 c 0,44,45
 46 -179 46 -179 68.5 -146 c 128,-1,46
 91 -113 91 -113 127.5 -85 c 128,-1,47
 164 -57 164 -57 195.5 -37.5 c 128,-1,48
 227 -18 227 -18 258 -2 c 1,49,50
 195 18 195 18 144.5 67 c 128,-1,51
 94 116 94 116 94 184 c 1,52,53
 117 211 117 211 174.5 255 c 128,-1,54
 232 299 232 299 266 320 c 1,55,56
 192 361 192 361 146 432 c 128,-1,57
 100 503 100 503 100 576 c 0,58,59
 100 697 100 697 198.5 787.5 c 128,-1,60
 297 878 297 878 438 878 c 0,61,62
 462 878 462 878 485 875.5 c 128,-1,63
 508 873 508 873 530.5 866 c 128,-1,64
 553 859 553 859 563.5 856 c 128,-1,65
 574 853 574 853 597 844 c 2,66,-1
 620 834 l 2,67,68
 646 824 646 824 666 820 c 1,69,-1
 880 850 l 1,70,71
 900 844 900 844 900 830 c 0,72,73
 900 817 900 817 884 786.5 c 128,-1,74
 868 756 868 756 854 748 c 1,75,-1
 722 756 l 2,76,77
 714 756 714 756 714 750 c 1,78,79
 728 736 728 736 749 681.5 c 128,-1,80
 770 627 770 627 770 568 c 0,81,82
 770 458 770 458 670.5 366 c 128,-1,83
 571 274 571 274 432 274 c 0,84,85
 407 274 407 274 371 280 c 128,-1,86
 335 286 335 286 320 292 c 1,87,88
 290 275 290 275 268 250.5 c 128,-1,89
 246 226 246 226 246 204 c 0,90,91
 246 184 246 184 279.5 159 c 128,-1,92
 313 134 313 134 366 134 c 2,93,-1
 602 134 l 2,29,30
EndSplineSet
Validated: 1
Substitution2: "'smcp' Lowercase to Small Capitals lookup 12 subtable" g.sc
EndChar

StartChar: h
Encoding: 72 104 74
Width: 1032
GlyphClass: 2
Flags: W
LayerCount: 4
Fore
SplineSet
615 876 m 0,0,1
 680 876 680 876 725 859 c 128,-1,2
 770 842 770 842 799 811 c 128,-1,3
 828 780 828 780 844.5 726 c 128,-1,4
 861 672 861 672 867 608 c 128,-1,5
 873 544 873 544 873 452 c 2,6,-1
 873 232 l 2,7,8
 873 116 873 116 883 84 c 0,9,10
 887 70 887 70 933.5 61 c 128,-1,11
 980 52 980 52 1009 52 c 1,12,13
 1015 44 1015 44 1015.5 23 c 128,-1,14
 1016 2 1016 2 1009 -6 c 1,15,16
 804 4 804 4 795 4 c 0,17,18
 760 4 760 4 727.5 2.5 c 128,-1,19
 695 1 695 1 653 -2 c 128,-1,20
 611 -5 611 -5 583 -6 c 1,21,22
 576 2 576 2 576.5 23 c 128,-1,23
 577 44 577 44 583 52 c 1,24,25
 612 52 612 52 658.5 61 c 128,-1,26
 705 70 705 70 709 84 c 0,27,28
 719 116 719 116 719 232 c 2,29,-1
 719 432 l 2,30,31
 719 621 719 621 678.5 690.5 c 128,-1,32
 638 760 638 760 523 760 c 0,33,34
 489 760 489 760 442.5 736 c 128,-1,35
 396 712 396 712 364.5 686 c 128,-1,36
 333 660 333 660 333 650 c 2,37,-1
 333 232 l 2,38,39
 333 116 333 116 343 84 c 0,40,41
 347 70 347 70 393.5 61 c 128,-1,42
 440 52 440 52 469 52 c 1,43,44
 475 44 475 44 475.5 23 c 128,-1,45
 476 2 476 2 469 -6 c 1,46,47
 264 4 264 4 255 4 c 0,48,49
 220 4 220 4 187.5 2.5 c 128,-1,50
 155 1 155 1 113 -2 c 128,-1,51
 71 -5 71 -5 43 -6 c 1,52,53
 36 2 36 2 36.5 23 c 128,-1,54
 37 44 37 44 43 52 c 1,55,56
 72 52 72 52 118.5 61 c 128,-1,57
 165 70 165 70 169 84 c 0,58,59
 179 116 179 116 179 232 c 2,60,-1
 179 1116 l 2,61,62
 179 1196 179 1196 169 1220 c 0,63,64
 154 1256 154 1256 47 1256 c 0,65,66
 46 1256 46 1256 45 1268.5 c 128,-1,67
 44 1281 44 1281 44.5 1294 c 128,-1,68
 45 1307 45 1307 49 1308 c 0,69,70
 187 1322 187 1322 333 1388 c 0,71,72
 340 1388 340 1388 347.5 1377.5 c 128,-1,73
 355 1367 355 1367 355 1356 c 0,74,75
 333 1292 333 1292 333 1182 c 2,76,-1
 333 730 l 2,77,78
 333 726 333 726 339 726 c 0,79,80
 341 726 341 726 345 730 c 0,81,82
 385 774 385 774 468 825 c 128,-1,83
 551 876 551 876 615 876 c 0,0,1
EndSplineSet
Validated: 1
Substitution2: "'smcp' Lowercase to Small Capitals lookup 12 subtable" h.sc
EndChar

StartChar: k
Encoding: 75 107 77
Width: 1036
GlyphClass: 2
Flags: W
LayerCount: 4
Fore
SplineSet
333 232 m 2,0,1
 333 116 333 116 343 84 c 0,2,3
 347 70 347 70 393.5 61 c 128,-1,4
 440 52 440 52 469 52 c 1,5,6
 475 44 475 44 475.5 23 c 128,-1,7
 476 2 476 2 469 -6 c 1,8,9
 264 4 264 4 255 4 c 0,10,11
 220 4 220 4 187.5 2.5 c 128,-1,12
 155 1 155 1 113 -2 c 128,-1,13
 71 -5 71 -5 43 -6 c 1,14,15
 36 2 36 2 36.5 23 c 128,-1,16
 37 44 37 44 43 52 c 1,17,18
 72 52 72 52 118.5 61 c 128,-1,19
 165 70 165 70 169 84 c 0,20,21
 179 116 179 116 179 232 c 2,22,-1
 179 1116 l 2,23,24
 179 1196 179 1196 169 1220 c 0,25,26
 154 1256 154 1256 47 1256 c 0,27,28
 46 1256 46 1256 45 1268.5 c 128,-1,29
 44 1281 44 1281 44.5 1294 c 128,-1,30
 45 1307 45 1307 49 1308 c 0,31,32
 187 1322 187 1322 333 1388 c 0,33,34
 340 1388 340 1388 347.5 1377.5 c 128,-1,35
 355 1367 355 1367 355 1356 c 0,36,37
 333 1292 333 1292 333 1182 c 2,38,-1
 333 470 l 1,39,40
 369 483 369 483 497 592 c 0,41,42
 522 613 522 613 555 640.5 c 128,-1,43
 588 668 588 668 607.5 683.5 c 128,-1,44
 627 699 627 699 645.5 715.5 c 128,-1,45
 664 732 664 732 672.5 742 c 128,-1,46
 681 752 681 752 681 758 c 128,-1,47
 681 764 681 764 677 769 c 128,-1,48
 673 774 673 774 665 777.5 c 128,-1,49
 657 781 657 781 649 783.5 c 128,-1,50
 641 786 641 786 630.5 787.5 c 128,-1,51
 620 789 620 789 612.5 789.5 c 128,-1,52
 605 790 605 790 596 791 c 128,-1,53
 587 792 587 792 585 792 c 0,54,55
 578 803 578 803 579.5 825 c 128,-1,56
 581 847 581 847 589 850 c 0,57,58
 686 840 686 840 781 840 c 0,59,60
 884 840 884 840 957 850 c 1,61,62
 963 841 963 841 962.5 819.5 c 128,-1,63
 962 798 962 798 957 792 c 1,64,65
 930 792 930 792 880.5 779 c 128,-1,66
 831 766 831 766 803 746 c 0,67,68
 582 585 582 585 479 498 c 1,69,70
 536 437 536 437 622.5 339.5 c 128,-1,71
 709 242 709 242 763.5 183 c 128,-1,72
 818 124 818 124 839 106 c 0,73,74
 875 77 875 77 926 64 c 0,75,76
 971 52 971 52 1011 52 c 0,77,78
 1017 52 1017 52 1023 52 c 1,79,80
 1026 47 1026 47 1027.5 29.5 c 128,-1,81
 1029 12 1029 12 1025 4 c 1,82,83
 997 -8 997 -8 895 -8 c 0,84,85
 815 -8 815 -8 746 21 c 128,-1,86
 677 50 677 50 649 80 c 0,87,88
 477 266 477 266 363 390 c 0,89,90
 359 394 359 394 351.5 398.5 c 128,-1,91
 344 403 344 403 338 406 c 2,92,-1
 333 408 l 1,93,-1
 333 232 l 2,0,1
EndSplineSet
Validated: 1
Substitution2: "'smcp' Lowercase to Small Capitals lookup 12 subtable" k.sc
EndChar

StartChar: l
Encoding: 76 108 78
Width: 510
GlyphClass: 2
Flags: W
LayerCount: 4
Fore
SplineSet
179 1116 m 2,0,1
 179 1196 179 1196 169 1220 c 0,2,3
 154 1256 154 1256 47 1256 c 0,4,5
 46 1256 46 1256 45 1268.5 c 128,-1,6
 44 1281 44 1281 44.5 1294 c 128,-1,7
 45 1307 45 1307 49 1308 c 0,8,9
 187 1322 187 1322 333 1388 c 0,10,11
 340 1388 340 1388 347.5 1377.5 c 128,-1,12
 355 1367 355 1367 355 1356 c 0,13,14
 333 1292 333 1292 333 1182 c 2,15,-1
 333 232 l 2,16,17
 333 116 333 116 343 84 c 0,18,19
 347 70 347 70 393.5 61 c 128,-1,20
 440 52 440 52 469 52 c 1,21,22
 475 44 475 44 475.5 23 c 128,-1,23
 476 2 476 2 469 -6 c 1,24,25
 264 4 264 4 255 4 c 0,26,27
 220 4 220 4 187.5 2.5 c 128,-1,28
 155 1 155 1 113 -2 c 128,-1,29
 71 -5 71 -5 43 -6 c 1,30,31
 36 2 36 2 36.5 23 c 128,-1,32
 37 44 37 44 43 52 c 1,33,34
 72 52 72 52 118.5 61 c 128,-1,35
 165 70 165 70 169 84 c 0,36,37
 179 116 179 116 179 232 c 2,38,-1
 179 1116 l 2,0,1
EndSplineSet
Validated: 1
Substitution2: "'smcp' Lowercase to Small Capitals lookup 12 subtable" l.sc
EndChar

StartChar: m
Encoding: 77 109 79
Width: 1580
GlyphClass: 2
Flags: W
LayerCount: 4
Fore
SplineSet
639 876 m 0,0,1
 730 876 730 876 787 837 c 128,-1,2
 844 798 844 798 867 710 c 1,3,4
 1050 876 1050 876 1161 876 c 0,5,6
 1226 876 1226 876 1271 859 c 128,-1,7
 1316 842 1316 842 1345 811 c 128,-1,8
 1374 780 1374 780 1390.5 726 c 128,-1,9
 1407 672 1407 672 1413 608 c 128,-1,10
 1419 544 1419 544 1419 452 c 2,11,-1
 1419 232 l 2,12,13
 1419 116 1419 116 1429 84 c 0,14,15
 1433 70 1433 70 1479.5 61 c 128,-1,16
 1526 52 1526 52 1555 52 c 1,17,18
 1561 44 1561 44 1561.5 23 c 128,-1,19
 1562 2 1562 2 1555 -6 c 1,20,21
 1350 4 1350 4 1341 4 c 0,22,23
 1306 4 1306 4 1273.5 2.5 c 128,-1,24
 1241 1 1241 1 1199 -2 c 128,-1,25
 1157 -5 1157 -5 1129 -6 c 1,26,27
 1122 2 1122 2 1122.5 23 c 128,-1,28
 1123 44 1123 44 1129 52 c 1,29,30
 1158 52 1158 52 1204.5 61 c 128,-1,31
 1251 70 1251 70 1255 84 c 0,32,33
 1265 116 1265 116 1265 232 c 2,34,-1
 1265 446 l 2,35,36
 1265 510 1265 510 1261 555 c 128,-1,37
 1257 600 1257 600 1245.5 641.5 c 128,-1,38
 1234 683 1234 683 1213.5 707 c 128,-1,39
 1193 731 1193 731 1159 745.5 c 128,-1,40
 1125 760 1125 760 1077 760 c 0,41,42
 1033 760 1033 760 984.5 734 c 128,-1,43
 936 708 936 708 908.5 681.5 c 128,-1,44
 881 655 881 655 881 646 c 0,45,46
 881 645 881 645 882 633.5 c 128,-1,47
 883 622 883 622 883 620 c 0,48,49
 891 569 891 569 891 478 c 2,50,-1
 891 232 l 2,51,52
 891 116 891 116 901 84 c 0,53,54
 905 70 905 70 951.5 61 c 128,-1,55
 998 52 998 52 1027 52 c 1,56,57
 1033 44 1033 44 1033.5 23 c 128,-1,58
 1034 2 1034 2 1027 -6 c 1,59,60
 822 4 822 4 813 4 c 0,61,62
 778 4 778 4 745.5 2.5 c 128,-1,63
 713 1 713 1 671 -2 c 128,-1,64
 629 -5 629 -5 601 -6 c 1,65,66
 594 2 594 2 594.5 23 c 128,-1,67
 595 44 595 44 601 52 c 1,68,69
 630 52 630 52 676.5 61 c 128,-1,70
 723 70 723 70 727 84 c 0,71,72
 737 116 737 116 737 232 c 2,73,-1
 737 436 l 2,74,75
 737 620 737 620 697 690 c 128,-1,76
 657 760 657 760 549 760 c 0,77,78
 488 760 488 760 425.5 717 c 128,-1,79
 363 674 363 674 363 650 c 2,80,-1
 363 232 l 2,81,82
 363 116 363 116 373 84 c 0,83,84
 377 70 377 70 423.5 61 c 128,-1,85
 470 52 470 52 499 52 c 1,86,87
 505 44 505 44 505.5 23 c 128,-1,88
 506 2 506 2 499 -6 c 1,89,90
 294 4 294 4 285 4 c 0,91,92
 250 4 250 4 217.5 2.5 c 128,-1,93
 185 1 185 1 143 -2 c 128,-1,94
 101 -5 101 -5 73 -6 c 1,95,96
 66 2 66 2 66.5 23 c 128,-1,97
 67 44 67 44 73 52 c 1,98,99
 102 52 102 52 148.5 61 c 128,-1,100
 195 70 195 70 199 84 c 0,101,102
 209 116 209 116 209 232 c 2,103,-1
 209 596 l 2,104,105
 209 684 209 684 199 708 c 0,106,107
 193 723 193 723 161 732 c 128,-1,108
 129 741 129 741 107.5 742.5 c 128,-1,109
 86 744 86 744 69 744 c 1,110,111
 65 748 65 748 64.5 768 c 128,-1,112
 64 788 64 788 69 796 c 1,113,114
 240 819 240 819 355 880 c 0,115,116
 362 880 362 880 369.5 868 c 128,-1,117
 377 856 377 856 377 848 c 0,118,119
 365 764 365 764 365 744 c 0,120,121
 365 736 365 736 369 736 c 0,122,123
 371 736 371 736 375 740 c 0,124,125
 468 818 468 818 527 847 c 0,126,127
 587 876 587 876 639 876 c 0,0,1
EndSplineSet
Validated: 1
Substitution2: "'smcp' Lowercase to Small Capitals lookup 12 subtable" m.sc
EndChar

StartChar: n
Encoding: 78 110 80
Width: 1064
GlyphClass: 2
Flags: W
LayerCount: 4
Fore
SplineSet
645 876 m 0,0,1
 710 876 710 876 755 859 c 128,-1,2
 800 842 800 842 829 811 c 128,-1,3
 858 780 858 780 874.5 726 c 128,-1,4
 891 672 891 672 897 608 c 128,-1,5
 903 544 903 544 903 452 c 2,6,-1
 903 232 l 2,7,8
 903 116 903 116 913 84 c 0,9,10
 917 70 917 70 963.5 61 c 128,-1,11
 1010 52 1010 52 1039 52 c 1,12,13
 1045 44 1045 44 1045.5 23 c 128,-1,14
 1046 2 1046 2 1039 -6 c 1,15,16
 834 4 834 4 825 4 c 0,17,18
 790 4 790 4 757.5 2.5 c 128,-1,19
 725 1 725 1 683 -2 c 128,-1,20
 641 -5 641 -5 613 -6 c 1,21,22
 606 2 606 2 606.5 23 c 128,-1,23
 607 44 607 44 613 52 c 1,24,25
 642 52 642 52 688.5 61 c 128,-1,26
 735 70 735 70 739 84 c 0,27,28
 749 116 749 116 749 232 c 2,29,-1
 749 432 l 2,30,31
 749 621 749 621 708.5 690.5 c 128,-1,32
 668 760 668 760 553 760 c 0,33,34
 519 760 519 760 472.5 736 c 128,-1,35
 426 712 426 712 394.5 686 c 128,-1,36
 363 660 363 660 363 650 c 2,37,-1
 363 232 l 2,38,39
 363 116 363 116 373 84 c 0,40,41
 377 70 377 70 423.5 61 c 128,-1,42
 470 52 470 52 499 52 c 1,43,44
 505 44 505 44 505.5 23 c 128,-1,45
 506 2 506 2 499 -6 c 1,46,47
 294 4 294 4 285 4 c 0,48,49
 250 4 250 4 217.5 2.5 c 128,-1,50
 185 1 185 1 143 -2 c 128,-1,51
 101 -5 101 -5 73 -6 c 1,52,53
 66 2 66 2 66.5 23 c 128,-1,54
 67 44 67 44 73 52 c 1,55,56
 102 52 102 52 148.5 61 c 128,-1,57
 195 70 195 70 199 84 c 0,58,59
 209 116 209 116 209 232 c 2,60,-1
 209 596 l 2,61,62
 209 684 209 684 199 708 c 0,63,64
 193 723 193 723 161 732 c 128,-1,65
 129 741 129 741 107.5 742.5 c 128,-1,66
 86 744 86 744 69 744 c 1,67,68
 65 748 65 748 64.5 768 c 128,-1,69
 64 788 64 788 69 796 c 1,70,71
 240 819 240 819 355 880 c 0,72,73
 362 880 362 880 369.5 868 c 128,-1,74
 377 856 377 856 377 848 c 0,75,76
 365 764 365 764 365 734 c 0,77,78
 365 726 365 726 369 726 c 0,79,80
 371 726 371 726 375 730 c 0,81,82
 415 774 415 774 498 825 c 128,-1,83
 581 876 581 876 645 876 c 0,0,1
EndSplineSet
Validated: 1
Substitution2: "'smcp' Lowercase to Small Capitals lookup 12 subtable" n.sc
EndChar

StartChar: o
Encoding: 79 111 81
Width: 1018
GlyphClass: 2
Flags: W
LayerCount: 4
Fore
SplineSet
486 812 m 0,0,1
 405 812 405 812 351 760 c 128,-1,2
 297 708 297 708 275.5 633 c 128,-1,3
 254 558 254 558 254 466 c 0,4,5
 254 365 254 365 285 272.5 c 128,-1,6
 316 180 316 180 381 116 c 128,-1,7
 446 52 446 52 532 52 c 0,8,9
 613 52 613 52 667 104 c 128,-1,10
 721 156 721 156 742.5 230.5 c 128,-1,11
 764 305 764 305 764 396 c 0,12,13
 764 496 764 496 732.5 589.5 c 128,-1,14
 701 683 701 683 636 747.5 c 128,-1,15
 571 812 571 812 486 812 c 0,0,1
508 878 m 0,16,17
 703 878 703 878 819.5 755.5 c 128,-1,18
 936 633 936 633 936 442 c 0,19,20
 936 248 936 248 814.5 117 c 128,-1,21
 693 -14 693 -14 512 -14 c 0,22,23
 317 -14 317 -14 199.5 110.5 c 128,-1,24
 82 235 82 235 82 426 c 0,25,26
 82 619 82 619 204 748.5 c 128,-1,27
 326 878 326 878 508 878 c 0,16,17
EndSplineSet
Validated: 1
Substitution2: "'smcp' Lowercase to Small Capitals lookup 12 subtable" o.sc
EndChar

StartChar: p
Encoding: 80 112 82
Width: 1020
GlyphClass: 2
Flags: W
LayerCount: 4
Fore
SplineSet
581 876 m 0,0,1
 669 876 669 876 741 836.5 c 128,-1,2
 813 797 813 797 855.5 734 c 128,-1,3
 898 671 898 671 920.5 601 c 128,-1,4
 943 531 943 531 943 464 c 0,5,6
 943 370 943 370 901.5 280.5 c 128,-1,7
 860 191 860 191 794 126.5 c 128,-1,8
 728 62 728 62 643.5 23 c 128,-1,9
 559 -16 559 -16 475 -16 c 0,10,11
 405 -16 405 -16 335 6 c 1,12,13
 327 -4 327 -4 327 -20 c 2,14,-1
 327 -214 l 2,15,16
 327 -330 327 -330 337 -362 c 0,17,18
 341 -376 341 -376 387.5 -385 c 128,-1,19
 434 -394 434 -394 463 -394 c 1,20,21
 469 -402 469 -402 469.5 -423 c 128,-1,22
 470 -444 470 -444 463 -452 c 1,23,24
 258 -442 258 -442 249 -442 c 0,25,26
 214 -442 214 -442 181.5 -443.5 c 128,-1,27
 149 -445 149 -445 107 -448 c 128,-1,28
 65 -451 65 -451 37 -452 c 1,29,30
 30 -444 30 -444 30.5 -423 c 128,-1,31
 31 -402 31 -402 37 -394 c 1,32,33
 66 -394 66 -394 112.5 -385 c 128,-1,34
 159 -376 159 -376 163 -362 c 0,35,36
 171 -337 171 -337 173 -214 c 2,37,-1
 173 604 l 2,38,39
 173 684 173 684 163 708 c 0,40,41
 157 723 157 723 125 732 c 128,-1,42
 93 741 93 741 71.5 742.5 c 128,-1,43
 50 744 50 744 33 744 c 1,44,45
 29 748 29 748 28.5 768 c 128,-1,46
 28 788 28 788 33 796 c 1,47,48
 204 819 204 819 319 880 c 0,49,50
 326 880 326 880 333.5 868 c 128,-1,51
 341 856 341 856 341 848 c 0,52,53
 341 847 341 847 334 811.5 c 128,-1,54
 327 776 327 776 327 766 c 0,55,56
 327 758 327 758 331 758 c 0,57,58
 333 758 333 758 337 762 c 0,59,60
 384 802 384 802 455.5 839 c 128,-1,61
 527 876 527 876 581 876 c 0,0,1
495 758 m 0,62,63
 437 758 437 758 382 730.5 c 128,-1,64
 327 703 327 703 327 680 c 2,65,-1
 327 200 l 2,66,67
 327 130 327 130 387.5 92 c 128,-1,68
 448 54 448 54 513 54 c 0,69,70
 592 54 592 54 653.5 105 c 128,-1,71
 715 156 715 156 745 231.5 c 128,-1,72
 775 307 775 307 775 390 c 0,73,74
 775 562 775 562 694.5 660 c 128,-1,75
 614 758 614 758 495 758 c 0,62,63
EndSplineSet
Validated: 1
Substitution2: "'smcp' Lowercase to Small Capitals lookup 12 subtable" p.sc
EndChar

StartChar: q
Encoding: 81 113 83
Width: 994
GlyphClass: 2
Flags: W
LayerCount: 4
Fore
SplineSet
512 804 m 0,0,1
 445 804 445 804 391.5 769.5 c 128,-1,2
 338 735 338 735 308 682 c 128,-1,3
 278 629 278 629 262 574 c 128,-1,4
 246 519 246 519 246 470 c 0,5,6
 246 298 246 298 327.5 202 c 128,-1,7
 409 106 409 106 538 106 c 0,8,9
 595 106 595 106 646.5 134 c 128,-1,10
 698 162 698 162 698 186 c 2,11,-1
 698 664 l 2,12,13
 698 725 698 725 640.5 764.5 c 128,-1,14
 583 804 583 804 512 804 c 0,0,1
572 876 m 0,15,16
 601 876 601 876 688.5 851 c 128,-1,17
 776 826 776 826 810 826 c 0,18,19
 832 826 832 826 850 832 c 0,20,21
 858 832 858 832 867 814.5 c 128,-1,22
 876 797 876 797 876 788 c 0,23,24
 852 735 852 735 852 640 c 2,25,-1
 852 -216 l 2,26,27
 852 -332 852 -332 862 -364 c 0,28,29
 866 -378 866 -378 912.5 -387 c 128,-1,30
 959 -396 959 -396 988 -396 c 1,31,32
 994 -404 994 -404 994.5 -425 c 128,-1,33
 995 -446 995 -446 988 -454 c 1,34,35
 783 -444 783 -444 774 -444 c 0,36,37
 739 -444 739 -444 706.5 -445.5 c 128,-1,38
 674 -447 674 -447 632 -450 c 128,-1,39
 590 -453 590 -453 562 -454 c 1,40,41
 555 -446 555 -446 555.5 -425 c 128,-1,42
 556 -404 556 -404 562 -396 c 1,43,44
 591 -396 591 -396 637.5 -387 c 128,-1,45
 684 -378 684 -378 688 -364 c 0,46,47
 698 -332 698 -332 698 -216 c 2,48,-1
 698 80 l 2,49,50
 698 90 698 90 694.5 97.5 c 128,-1,51
 691 105 691 105 684 100 c 0,52,53
 649 69 649 69 569.5 27.5 c 128,-1,54
 490 -14 490 -14 434 -14 c 0,55,56
 368 -14 368 -14 309 11.5 c 128,-1,57
 250 37 250 37 209 79.5 c 128,-1,58
 168 122 168 122 137.5 176 c 128,-1,59
 107 230 107 230 92.5 287 c 128,-1,60
 78 344 78 344 78 398 c 0,61,62
 78 477 78 477 108.5 552.5 c 128,-1,63
 139 628 139 628 190.5 685 c 128,-1,64
 242 742 242 742 305.5 786 c 128,-1,65
 369 830 369 830 438.5 853 c 128,-1,66
 508 876 508 876 572 876 c 0,15,16
EndSplineSet
Validated: 1
Substitution2: "'smcp' Lowercase to Small Capitals lookup 12 subtable" q.sc
EndChar

StartChar: r
Encoding: 82 114 84
Width: 766
GlyphClass: 2
Flags: W
LayerCount: 4
Fore
SplineSet
607 874 m 0,0,1
 646 874 646 874 680.5 857 c 128,-1,2
 715 840 715 840 729 816 c 1,3,4
 737 792 737 792 737 762 c 0,5,6
 737 713 737 713 714 685.5 c 128,-1,7
 691 658 691 658 671 658 c 0,8,9
 658 658 658 658 646.5 663.5 c 128,-1,10
 635 669 635 669 617.5 681.5 c 128,-1,11
 600 694 600 694 597 696 c 0,12,13
 561 720 561 720 523 720 c 0,14,15
 465 720 465 720 414 651.5 c 128,-1,16
 363 583 363 583 363 540 c 2,17,-1
 363 232 l 2,18,19
 363 116 363 116 373 84 c 0,20,21
 377 70 377 70 443.5 61 c 128,-1,22
 510 52 510 52 545 52 c 1,23,24
 551 44 551 44 551.5 23 c 128,-1,25
 552 2 552 2 545 -6 c 1,26,27
 340 4 340 4 297 4 c 0,28,29
 278 4 278 4 73 -6 c 1,30,31
 66 2 66 2 66.5 23 c 128,-1,32
 67 44 67 44 73 52 c 1,33,34
 102 52 102 52 148.5 61 c 128,-1,35
 195 70 195 70 199 84 c 0,36,37
 207 109 207 109 209 232 c 2,38,-1
 209 604 l 2,39,40
 209 684 209 684 199 708 c 0,41,42
 193 723 193 723 161 732 c 128,-1,43
 129 741 129 741 107.5 742.5 c 128,-1,44
 86 744 86 744 69 744 c 1,45,46
 65 748 65 748 64.5 768 c 128,-1,47
 64 788 64 788 69 796 c 1,48,49
 240 819 240 819 355 880 c 0,50,51
 362 880 362 880 369.5 868 c 128,-1,52
 377 856 377 856 377 848 c 0,53,54
 375 836 375 836 369 757.5 c 128,-1,55
 363 679 363 679 363 664 c 0,56,57
 363 660 363 660 365 658.5 c 128,-1,58
 367 657 367 657 368.5 657.5 c 128,-1,59
 370 658 370 658 371 660 c 0,60,61
 405 734 405 734 475 804 c 128,-1,62
 545 874 545 874 607 874 c 0,0,1
EndSplineSet
Validated: 1
Substitution2: "'smcp' Lowercase to Small Capitals lookup 12 subtable" r.sc
EndChar

StartChar: s
Encoding: 83 115 85
Width: 738
GlyphClass: 2
Flags: W
LayerCount: 4
Fore
SplineSet
390 874 m 0,0,1
 435 874 435 874 501 862.5 c 128,-1,2
 567 851 567 851 594 848 c 1,3,4
 614 758 614 758 618 628 c 0,5,6
 618 618 618 618 598 618 c 0,7,8
 576 618 576 618 564 628 c 1,9,10
 546 695 546 695 500 753.5 c 128,-1,11
 454 812 454 812 396 812 c 0,12,13
 327 812 327 812 290.5 777 c 128,-1,14
 254 742 254 742 254 686 c 0,15,16
 254 661 254 661 261.5 639.5 c 128,-1,17
 269 618 269 618 278 604 c 128,-1,18
 287 590 287 590 308.5 573 c 128,-1,19
 330 556 330 556 342 548 c 128,-1,20
 354 540 354 540 385 522.5 c 128,-1,21
 416 505 416 505 428 498 c 0,22,23
 437 493 437 493 468 475 c 128,-1,24
 499 457 499 457 513.5 447.5 c 128,-1,25
 528 438 528 438 555.5 419.5 c 128,-1,26
 583 401 583 401 597 385.5 c 128,-1,27
 611 370 611 370 627.5 348.5 c 128,-1,28
 644 327 644 327 651 303.5 c 128,-1,29
 658 280 658 280 658 254 c 0,30,31
 658 135 658 135 566.5 56.5 c 128,-1,32
 475 -22 475 -22 350 -22 c 0,33,34
 309 -22 309 -22 273.5 -16.5 c 128,-1,35
 238 -11 238 -11 190.5 0 c 128,-1,36
 143 11 143 11 116 16 c 1,37,38
 104 47 104 47 93 115.5 c 128,-1,39
 82 184 82 184 82 224 c 1,40,41
 98 236 98 236 118 236 c 0,42,43
 130 236 130 236 136 232 c 1,44,45
 156 161 156 161 217 101.5 c 128,-1,46
 278 42 278 42 352 42 c 0,47,48
 415 42 415 42 455.5 80.5 c 128,-1,49
 496 119 496 119 496 186 c 0,50,51
 496 221 496 221 483.5 249 c 128,-1,52
 471 277 471 277 442 301 c 128,-1,53
 413 325 413 325 390 339.5 c 128,-1,54
 367 354 367 354 320 378.5 c 128,-1,55
 273 403 273 403 252 416 c 0,56,57
 182 456 182 456 141 506.5 c 128,-1,58
 100 557 100 557 100 630 c 0,59,60
 100 737 100 737 187 805.5 c 128,-1,61
 274 874 274 874 390 874 c 0,0,1
EndSplineSet
Validated: 1
Substitution2: "'smcp' Lowercase to Small Capitals lookup 12 subtable" s.sc
EndChar

StartChar: t
Encoding: 84 116 86
Width: 622
GlyphClass: 2
Flags: W
LayerCount: 4
Fore
SplineSet
320 864 m 1,0,-1
 578 864 l 2,1,2
 588 864 588 864 588 842 c 0,3,4
 588 810 588 810 560 782 c 1,5,-1
 320 782 l 1,6,-1
 320 258 l 2,7,8
 320 94 320 94 452 94 c 0,9,10
 518 94 518 94 582 140 c 1,11,12
 588 137 588 137 588 126 c 0,13,14
 588 104 588 104 580 96 c 0,15,16
 560 74 560 74 535.5 52.5 c 128,-1,17
 511 31 511 31 465 8.5 c 128,-1,18
 419 -14 419 -14 374 -14 c 0,19,20
 333 -14 333 -14 298 -4 c 128,-1,21
 263 6 263 6 232 29 c 128,-1,22
 201 52 201 52 183.5 96 c 128,-1,23
 166 140 166 140 166 202 c 2,24,-1
 166 782 l 1,25,-1
 50 782 l 2,26,27
 40 782 40 782 40 800 c 0,28,29
 40 805 40 805 62 830.5 c 128,-1,30
 84 856 84 856 92 864 c 1,31,-1
 166 864 l 1,32,-1
 166 990 l 1,33,34
 182 1009 182 1009 212 1041.5 c 128,-1,35
 242 1074 242 1074 264 1098 c 128,-1,36
 286 1122 286 1122 288 1124 c 0,37,38
 293 1129 293 1129 300.5 1131 c 128,-1,39
 308 1133 308 1133 314 1131.5 c 128,-1,40
 320 1130 320 1130 320 1126 c 2,41,-1
 320 864 l 1,0,-1
EndSplineSet
Validated: 1
Substitution2: "'smcp' Lowercase to Small Capitals lookup 12 subtable" t.sc
EndChar

StartChar: u
Encoding: 85 117 87
Width: 1030
GlyphClass: 2
Flags: W
LayerCount: 4
Fore
SplineSet
699 640 m 2,0,1
 699 718 699 718 683 748 c 0,2,3
 661 788 661 788 571 788 c 1,4,5
 566 793 566 793 565.5 812.5 c 128,-1,6
 565 832 565 832 571 840 c 1,7,8
 735 846 735 846 845 880 c 0,9,10
 852 880 852 880 859.5 860.5 c 128,-1,11
 867 841 867 841 867 832 c 1,12,13
 853 804 853 804 853 702 c 2,14,-1
 853 610 l 1,15,-1
 853 282 l 2,16,17
 853 195 853 195 867 130 c 0,18,19
 870 117 870 117 889 109 c 128,-1,20
 908 101 908 101 927.5 98.5 c 128,-1,21
 947 96 947 96 965.5 95 c 128,-1,22
 984 94 984 94 985 94 c 0,23,24
 991 91 991 91 991 72 c 0,25,26
 991 66 991 66 986 53 c 128,-1,27
 981 40 981 40 975 40 c 0,28,29
 946 38 946 38 908.5 32 c 128,-1,30
 871 26 871 26 838.5 18 c 128,-1,31
 806 10 806 10 778 2 c 128,-1,32
 750 -6 750 -6 732 -11 c 2,33,-1
 715 -16 l 2,34,35
 708 -16 708 -16 703.5 -6 c 128,-1,36
 699 4 699 4 699 16 c 2,37,-1
 699 108 l 1,38,-1
 695 118 l 1,39,40
 649 69 649 69 566 27.5 c 128,-1,41
 483 -14 483 -14 411 -14 c 0,42,43
 350 -14 350 -14 304 12 c 128,-1,44
 258 38 258 38 231.5 77 c 128,-1,45
 205 116 205 116 188.5 172 c 128,-1,46
 172 228 172 228 166.5 277.5 c 128,-1,47
 161 327 161 327 161 384 c 2,48,-1
 161 640 l 2,49,50
 161 718 161 718 145 748 c 0,51,52
 123 788 123 788 33 788 c 1,53,54
 28 793 28 793 27.5 812.5 c 128,-1,55
 27 832 27 832 33 840 c 1,56,57
 197 846 197 846 307 880 c 0,58,59
 314 880 314 880 321.5 864.5 c 128,-1,60
 329 849 329 849 329 840 c 1,61,62
 315 812 315 812 315 702 c 2,63,-1
 315 616 l 1,64,-1
 315 408 l 2,65,66
 315 248 315 248 363 173 c 128,-1,67
 411 98 411 98 515 98 c 0,68,69
 580 98 580 98 640 134 c 0,70,71
 699 170 699 170 699 207 c 2,72,73
 699 208 l 2,74,-1
 699 640 l 2,0,1
EndSplineSet
Validated: 1
Substitution2: "'smcp' Lowercase to Small Capitals lookup 12 subtable" u.sc
EndChar

StartChar: v
Encoding: 86 118 88
Width: 946
GlyphClass: 2
Flags: W
LayerCount: 4
Fore
SplineSet
205 850 m 0,0,1
 239 850 239 850 269.5 851.5 c 128,-1,2
 300 853 300 853 338.5 856 c 128,-1,3
 377 859 377 859 405 860 c 1,4,5
 409 851 409 851 406.5 826.5 c 128,-1,6
 404 802 404 802 397 802 c 0,7,8
 384 802 384 802 364.5 800 c 128,-1,9
 345 798 345 798 322 789.5 c 128,-1,10
 299 781 299 781 299 768 c 0,11,12
 299 764 299 764 301 760 c 2,13,-1
 521 220 l 1,14,15
 623 486 623 486 699 674 c 0,16,17
 711 703 711 703 711 738 c 0,18,19
 711 768 711 768 679 785 c 128,-1,20
 647 802 647 802 595 802 c 0,21,22
 588 802 588 802 588 827 c 128,-1,23
 588 852 588 852 595 860 c 1,24,25
 616 859 616 859 643 856 c 128,-1,26
 670 853 670 853 695 851.5 c 128,-1,27
 720 850 720 850 757 850 c 0,28,29
 791 850 791 850 818 851.5 c 128,-1,30
 845 853 845 853 879 856 c 128,-1,31
 913 859 913 859 943 860 c 1,32,33
 949 851 949 851 946 826.5 c 128,-1,34
 943 802 943 802 937 802 c 0,35,36
 911 802 911 802 868.5 786 c 128,-1,37
 826 770 826 770 811 734 c 0,38,39
 597 224 597 224 511 12 c 0,40,41
 507 1 507 1 488 -10.5 c 128,-1,42
 469 -22 469 -22 459 -22 c 0,43,44
 445 -22 445 -22 441 -14 c 0,45,46
 394 97 394 97 329 260 c 128,-1,47
 264 423 264 423 214 542.5 c 128,-1,48
 164 662 164 662 115 762 c 0,49,50
 96 802 96 802 5 802 c 1,51,52
 -7 831 -7 831 5 860 c 1,53,54
 34 859 34 859 71 856 c 128,-1,55
 108 853 108 853 138.5 851.5 c 128,-1,56
 169 850 169 850 205 850 c 0,0,1
EndSplineSet
Validated: 1
Substitution2: "'smcp' Lowercase to Small Capitals lookup 12 subtable" v.sc
EndChar

StartChar: w
Encoding: 87 119 89
Width: 1442
GlyphClass: 2
Flags: W
LayerCount: 4
Fore
SplineSet
202 850 m 0,0,1
 236 850 236 850 266.5 851.5 c 128,-1,2
 297 853 297 853 335.5 856 c 128,-1,3
 374 859 374 859 402 860 c 1,4,5
 405 851 405 851 404.5 828 c 128,-1,6
 404 805 404 805 398 802 c 0,7,8
 383 802 383 802 364 800 c 128,-1,9
 345 798 345 798 321.5 786.5 c 128,-1,10
 298 775 298 775 298 756 c 0,11,12
 298 754 298 754 308 726 c 0,13,14
 329 671 329 671 514 234 c 1,15,16
 538 295 538 295 569 373 c 128,-1,17
 600 451 600 451 616 490.5 c 128,-1,18
 632 530 632 530 647.5 571 c 128,-1,19
 663 612 663 612 669.5 630.5 c 128,-1,20
 676 649 676 649 676 654 c 0,21,22
 676 666 676 666 661 702 c 128,-1,23
 646 738 646 738 628 764 c 0,24,25
 602 802 602 802 540 802 c 1,26,27
 532 806 532 806 532 829 c 128,-1,28
 532 852 532 852 540 860 c 1,29,30
 565 859 565 859 620 854.5 c 128,-1,31
 675 850 675 850 722 850 c 0,32,33
 730 850 730 850 930 860 c 1,34,35
 934 850 934 850 934 829 c 128,-1,36
 934 808 934 808 928 802 c 1,37,38
 828 802 828 802 828 738 c 0,39,40
 828 734 828 734 833 716 c 0,41,42
 838 701 838 701 847 675 c 128,-1,43
 856 649 856 649 873 605.5 c 128,-1,44
 890 562 890 562 908 516.5 c 128,-1,45
 926 471 926 471 957 392 c 128,-1,46
 988 313 988 313 1016 240 c 1,47,48
 1165 611 1165 611 1191 688 c 0,49,50
 1202 720 1202 720 1202 736 c 0,51,52
 1202 756 1202 756 1191.5 769.5 c 128,-1,53
 1181 783 1181 783 1157.5 789.5 c 128,-1,54
 1134 796 1134 796 1122 798 c 128,-1,55
 1110 800 1110 800 1082 802 c 1,56,57
 1076 807 1076 807 1075.5 829.5 c 128,-1,58
 1075 852 1075 852 1082 860 c 1,59,60
 1110 859 1110 859 1159.5 854.5 c 128,-1,61
 1209 850 1209 850 1256 850 c 0,62,63
 1290 850 1290 850 1316.5 851.5 c 128,-1,64
 1343 853 1343 853 1376.5 856 c 128,-1,65
 1410 859 1410 859 1440 860 c 0,66,67
 1443 857 1443 857 1442.5 832.5 c 128,-1,68
 1442 808 1442 808 1434 802 c 1,69,70
 1406 802 1406 802 1359.5 785 c 128,-1,71
 1313 768 1313 768 1298 730 c 0,72,73
 1122 285 1122 285 1008 12 c 0,74,75
 1004 0 1004 0 989.5 -11 c 128,-1,76
 975 -22 975 -22 966 -22 c 0,77,78
 946 -22 946 -22 942 -14 c 2,79,-1
 720 564 l 1,80,-1
 504 16 l 2,81,82
 502 9 502 9 485 -6.5 c 128,-1,83
 468 -22 468 -22 454 -22 c 128,-1,84
 440 -22 440 -22 436 -14 c 0,85,86
 269 404 269 404 112 758 c 0,87,88
 93 802 93 802 4 802 c 1,89,90
 0 811 0 811 0 831 c 128,-1,91
 0 851 0 851 4 860 c 1,92,93
 34 859 34 859 70 856 c 128,-1,94
 106 853 106 853 136 851.5 c 128,-1,95
 166 850 166 850 202 850 c 0,0,1
EndSplineSet
Validated: 1
Substitution2: "'smcp' Lowercase to Small Capitals lookup 12 subtable" w.sc
EndChar

StartChar: x
Encoding: 88 120 90
Width: 952
GlyphClass: 2
Flags: W
LayerCount: 4
Fore
SplineSet
246 850 m 0,0,1
 338 850 338 850 448 860 c 1,2,3
 450 850 450 850 450 830 c 128,-1,4
 450 810 450 810 444 802 c 1,5,6
 364 802 364 802 364 768 c 0,7,8
 364 761 364 761 374 744 c 2,9,-1
 506 534 l 1,10,11
 522 560 522 560 563.5 617 c 128,-1,12
 605 674 605 674 626.5 710 c 128,-1,13
 648 746 648 746 648 764 c 0,14,15
 648 778 648 778 631.5 786.5 c 128,-1,16
 615 795 615 795 597 797.5 c 128,-1,17
 579 800 579 800 558 801 c 128,-1,18
 537 802 537 802 536 802 c 0,19,20
 533 804 533 804 532.5 829 c 128,-1,21
 532 854 532 854 536 860 c 1,22,23
 565 859 565 859 603 856 c 128,-1,24
 641 853 641 853 671.5 851.5 c 128,-1,25
 702 850 702 850 738 850 c 0,26,27
 828 850 828 850 898 860 c 1,28,29
 900 852 900 852 899.5 827 c 128,-1,30
 899 802 899 802 896 802 c 0,31,32
 771 795 771 795 742 758 c 0,33,34
 717 723 717 723 666 651.5 c 128,-1,35
 615 580 615 580 582.5 535 c 128,-1,36
 550 490 550 490 542 480 c 1,37,-1
 782 124 l 2,38,39
 832 52 832 52 936 52 c 0,40,41
 938 52 938 52 938.5 39 c 128,-1,42
 939 26 939 26 938 12 c 128,-1,43
 937 -2 937 -2 934 -6 c 1,44,45
 908 -5 908 -5 872 -2 c 128,-1,46
 836 1 836 1 807.5 2.5 c 128,-1,47
 779 4 779 4 746 4 c 0,48,49
 708 4 708 4 674 2.5 c 128,-1,50
 640 1 640 1 596.5 -2 c 128,-1,51
 553 -5 553 -5 524 -6 c 1,52,53
 520 4 520 4 520.5 28 c 128,-1,54
 521 52 521 52 526 52 c 0,55,56
 555 54 555 54 582.5 63 c 128,-1,57
 610 72 610 72 610 88 c 0,58,59
 610 92 610 92 606 100 c 0,60,61
 502 270 502 270 448 350 c 1,62,63
 437 334 437 334 386.5 259.5 c 128,-1,64
 336 185 336 185 304 134 c 0,65,66
 292 115 292 115 292 96 c 0,67,68
 292 84 292 84 300 75.5 c 128,-1,69
 308 67 308 67 326.5 62.5 c 128,-1,70
 345 58 345 58 355.5 56.5 c 128,-1,71
 366 55 366 55 391 53 c 0,72,73
 398 52 398 52 402 52 c 0,74,75
 404 52 404 52 405 39.5 c 128,-1,76
 406 27 406 27 405 13 c 128,-1,77
 404 -1 404 -1 400 -6 c 1,78,79
 372 -5 372 -5 337 -2 c 128,-1,80
 302 1 302 1 273.5 2.5 c 128,-1,81
 245 4 245 4 210 4 c 0,82,83
 176 4 176 4 147.5 2.5 c 128,-1,84
 119 1 119 1 84 -2 c 128,-1,85
 49 -5 49 -5 22 -6 c 1,86,87
 19 6 19 6 20.5 25.5 c 128,-1,88
 22 45 22 45 26 52 c 0,89,90
 30 53 30 53 50 56 c 128,-1,91
 70 59 70 59 76.5 60 c 128,-1,92
 83 61 83 61 101.5 64.5 c 128,-1,93
 120 68 120 68 128.5 71.5 c 128,-1,94
 137 75 137 75 152 81 c 128,-1,95
 167 87 167 87 176.5 93.5 c 128,-1,96
 186 100 186 100 197 109.5 c 128,-1,97
 208 119 208 119 216 130 c 0,98,99
 402 398 402 398 412 412 c 1,100,-1
 180 758 l 2,101,102
 165 781 165 781 124.5 791.5 c 128,-1,103
 84 802 84 802 46 802 c 0,104,105
 44 802 44 802 43.5 814 c 128,-1,106
 43 826 43 826 44 840 c 128,-1,107
 45 854 45 854 48 860 c 1,108,109
 158 850 158 850 246 850 c 0,0,1
EndSplineSet
Validated: 1
Substitution2: "'smcp' Lowercase to Small Capitals lookup 12 subtable" x.sc
EndChar

StartChar: y
Encoding: 89 121 91
Width: 938
GlyphClass: 2
Flags: W
LayerCount: 4
Fore
SplineSet
203 850 m 0,0,1
 318 850 318 850 403 860 c 1,2,3
 407 851 407 851 404.5 826.5 c 128,-1,4
 402 802 402 802 395 802 c 0,5,6
 382 802 382 802 362.5 800 c 128,-1,7
 343 798 343 798 320 789.5 c 128,-1,8
 297 781 297 781 297 768 c 0,9,10
 297 764 297 764 299 760 c 2,11,-1
 511 220 l 1,12,13
 613 486 613 486 689 674 c 0,14,15
 701 703 701 703 701 738 c 0,16,17
 701 768 701 768 669 785 c 128,-1,18
 637 802 637 802 585 802 c 0,19,20
 578 802 578 802 578 827 c 128,-1,21
 578 852 578 852 585 860 c 1,22,23
 660 850 660 850 765 850 c 0,24,25
 833 850 833 850 933 860 c 1,26,27
 939 851 939 851 936 826.5 c 128,-1,28
 933 802 933 802 927 802 c 0,29,30
 901 802 901 802 858.5 786 c 128,-1,31
 816 770 816 770 801 734 c 0,32,33
 587 224 587 224 501 12 c 0,34,35
 491 -12 491 -12 458 -100 c 128,-1,36
 425 -188 425 -188 400 -242 c 128,-1,37
 375 -296 375 -296 342 -344 c 0,38,39
 266 -456 266 -456 168 -456 c 0,40,41
 81 -456 81 -456 81 -370 c 0,42,43
 81 -341 81 -341 105 -312 c 1,44,45
 185 -312 185 -312 230 -292.5 c 128,-1,46
 275 -273 275 -273 331 -198 c 0,47,48
 352 -170 352 -170 386.5 -94 c 128,-1,49
 421 -18 421 -18 427 4 c 1,50,51
 227 514 227 514 113 762 c 0,52,53
 94 802 94 802 3 802 c 0,54,55
 0 802 0 802 0 829.5 c 128,-1,56
 0 857 0 857 3 860 c 0,57,58
 98 850 98 850 203 850 c 0,0,1
EndSplineSet
Validated: 1
Substitution2: "'smcp' Lowercase to Small Capitals lookup 12 subtable" y.sc
EndChar

StartChar: z
Encoding: 90 122 92
Width: 894
GlyphClass: 2
Flags: W
LayerCount: 4
Fore
SplineSet
296 862 m 2,0,-1
 552 862 l 2,1,2
 665 862 665 862 796 878 c 1,3,4
 802 868 802 868 802 830 c 1,5,6
 272 76 272 76 272 70 c 1,7,-1
 552 70 l 2,8,9
 637 70 637 70 694.5 123.5 c 128,-1,10
 752 177 752 177 772 250 c 0,11,12
 774 262 774 262 786 262 c 128,-1,13
 798 262 798 262 814 254.5 c 128,-1,14
 830 247 830 247 838 238 c 1,15,16
 778 92 778 92 748 0 c 1,17,-1
 98 0 l 2,18,19
 87 3 87 3 77.5 15.5 c 128,-1,20
 68 28 68 28 68 40 c 128,-1,21
 68 52 68 52 70 54 c 2,22,-1
 584 792 l 1,23,-1
 304 794 l 2,24,25
 277 794 277 794 254 785.5 c 128,-1,26
 231 777 231 777 217.5 766 c 128,-1,27
 204 755 204 755 191.5 737 c 128,-1,28
 179 719 179 719 173.5 707 c 128,-1,29
 168 695 168 695 161 676.5 c 128,-1,30
 154 658 154 658 152 654 c 0,31,32
 149 648 149 648 135.5 642 c 128,-1,33
 122 636 122 636 108 636 c 0,34,35
 86 636 86 636 86 642 c 0,36,37
 110 731 110 731 118 878 c 1,38,39
 224 862 224 862 296 862 c 2,0,-1
EndSplineSet
Validated: 1
Substitution2: "'smcp' Lowercase to Small Capitals lookup 12 subtable" z.sc
EndChar

StartChar: braceleft
Encoding: 91 123 93
Width: 444
GlyphClass: 2
Flags: W
LayerCount: 4
Fore
SplineSet
208 766 m 0,0,1
 208 777 208 777 207 787.5 c 128,-1,2
 206 798 206 798 202.5 810.5 c 128,-1,3
 199 823 199 823 197 830.5 c 128,-1,4
 195 838 195 838 189 853.5 c 128,-1,5
 183 869 183 869 181 873 c 128,-1,6
 179 877 179 877 171 895.5 c 128,-1,7
 163 914 163 914 162 916 c 0,8,9
 116 1016 116 1016 116 1082 c 0,10,11
 116 1214 116 1214 184.5 1311.5 c 128,-1,12
 253 1409 253 1409 330 1440 c 1,13,14
 342 1440 342 1440 352 1428 c 128,-1,15
 362 1416 362 1416 362 1402 c 1,16,17
 311 1377 311 1377 257.5 1312 c 128,-1,18
 204 1247 204 1247 204 1178 c 0,19,20
 204 1162 204 1162 205 1147.5 c 128,-1,21
 206 1133 206 1133 209.5 1118 c 128,-1,22
 213 1103 213 1103 215.5 1093 c 128,-1,23
 218 1083 218 1083 224.5 1066.5 c 128,-1,24
 231 1050 231 1050 233.5 1044 c 128,-1,25
 236 1038 236 1038 244 1019.5 c 128,-1,26
 252 1001 252 1001 254 996 c 0,27,28
 300 900 300 900 300 810 c 0,29,30
 300 723 300 723 252 659 c 128,-1,31
 204 595 204 595 154 576 c 1,32,33
 204 557 204 557 252 493 c 128,-1,34
 300 429 300 429 300 342 c 0,35,36
 300 252 300 252 254 156 c 0,37,38
 252 151 252 151 244 132.5 c 128,-1,39
 236 114 236 114 233.5 108 c 128,-1,40
 231 102 231 102 224.5 85.5 c 128,-1,41
 218 69 218 69 215.5 59 c 128,-1,42
 213 49 213 49 209.5 34 c 128,-1,43
 206 19 206 19 205 4.5 c 128,-1,44
 204 -10 204 -10 204 -26 c 0,45,46
 204 -95 204 -95 257.5 -160 c 128,-1,47
 311 -225 311 -225 362 -250 c 1,48,49
 362 -264 362 -264 352 -276 c 128,-1,50
 342 -288 342 -288 330 -288 c 1,51,52
 253 -257 253 -257 184.5 -159.5 c 128,-1,53
 116 -62 116 -62 116 70 c 0,54,55
 116 136 116 136 162 236 c 0,56,57
 163 238 163 238 171 256.5 c 128,-1,58
 179 275 179 275 181 279 c 128,-1,59
 183 283 183 283 189 298.5 c 128,-1,60
 195 314 195 314 197 321.5 c 128,-1,61
 199 329 199 329 202.5 341.5 c 128,-1,62
 206 354 206 354 207 364.5 c 128,-1,63
 208 375 208 375 208 386 c 0,64,65
 208 515 208 515 56 554 c 1,66,67
 52 561 52 561 52 576 c 128,-1,68
 52 591 52 591 56 598 c 1,69,70
 208 637 208 637 208 766 c 0,0,1
EndSplineSet
Validated: 1
Substitution2: "'smcp' Lowercase to Small Capitals lookup 12 subtable" braceleft.sc
EndChar

StartChar: bar
Encoding: 92 124 94
Width: 410
GlyphClass: 2
Flags: W
LayerCount: 4
Fore
SplineSet
257 -212 m 2,0,1
 257 -222 257 -222 215.5 -234 c 128,-1,2
 174 -246 174 -246 165 -246 c 0,3,4
 160 -246 160 -246 157.5 -244.5 c 128,-1,5
 155 -243 155 -243 154.5 -241.5 c 128,-1,6
 154 -240 154 -240 154.5 -235.5 c 128,-1,7
 155 -231 155 -231 155 -230 c 2,8,-1
 155 1514 l 2,9,10
 153 1526 153 1526 165 1530 c 0,11,12
 213 1544 213 1544 239 1544 c 0,13,14
 247 1544 247 1544 251 1541 c 128,-1,15
 255 1538 255 1538 255 1535 c 2,16,-1
 255 1532 l 1,17,-1
 257 -212 l 2,0,1
EndSplineSet
Validated: 1
Substitution2: "'smcp' Lowercase to Small Capitals lookup 12 subtable" bar.sc
EndChar

StartChar: braceright
Encoding: 93 125 95
Width: 446
GlyphClass: 2
Flags: W
LayerCount: 4
Fore
SplineSet
114 1440 m 1,0,1
 191 1409 191 1409 259.5 1311.5 c 128,-1,2
 328 1214 328 1214 328 1082 c 0,3,4
 328 1016 328 1016 282 916 c 0,5,6
 281 914 281 914 273 895.5 c 128,-1,7
 265 877 265 877 263 873 c 128,-1,8
 261 869 261 869 255 853.5 c 128,-1,9
 249 838 249 838 247 830.5 c 128,-1,10
 245 823 245 823 241.5 810.5 c 128,-1,11
 238 798 238 798 237 787.5 c 128,-1,12
 236 777 236 777 236 766 c 0,13,14
 236 637 236 637 388 598 c 1,15,16
 392 591 392 591 392 576 c 128,-1,17
 392 561 392 561 388 554 c 1,18,19
 236 515 236 515 236 386 c 0,20,21
 236 375 236 375 237 364.5 c 128,-1,22
 238 354 238 354 241.5 341.5 c 128,-1,23
 245 329 245 329 247 321.5 c 128,-1,24
 249 314 249 314 255 298.5 c 128,-1,25
 261 283 261 283 263 279 c 128,-1,26
 265 275 265 275 273 256.5 c 128,-1,27
 281 238 281 238 282 236 c 0,28,29
 328 136 328 136 328 70 c 0,30,31
 328 -62 328 -62 259.5 -159.5 c 128,-1,32
 191 -257 191 -257 114 -288 c 1,33,34
 102 -288 102 -288 92 -276 c 128,-1,35
 82 -264 82 -264 82 -250 c 1,36,37
 133 -225 133 -225 186.5 -160 c 128,-1,38
 240 -95 240 -95 240 -26 c 0,39,40
 240 -10 240 -10 239 4.5 c 128,-1,41
 238 19 238 19 234.5 34 c 128,-1,42
 231 49 231 49 228.5 59 c 128,-1,43
 226 69 226 69 219.5 85.5 c 128,-1,44
 213 102 213 102 210.5 108 c 128,-1,45
 208 114 208 114 200 132.5 c 128,-1,46
 192 151 192 151 190 156 c 0,47,48
 144 252 144 252 144 342 c 0,49,50
 144 429 144 429 192 493 c 128,-1,51
 240 557 240 557 290 576 c 1,52,53
 240 595 240 595 192 659 c 128,-1,54
 144 723 144 723 144 810 c 0,55,56
 144 900 144 900 190 996 c 0,57,58
 192 1001 192 1001 200 1019.5 c 128,-1,59
 208 1038 208 1038 210.5 1044 c 128,-1,60
 213 1050 213 1050 219.5 1066.5 c 128,-1,61
 226 1083 226 1083 228.5 1093 c 128,-1,62
 231 1103 231 1103 234.5 1118 c 128,-1,63
 238 1133 238 1133 239 1147.5 c 128,-1,64
 240 1162 240 1162 240 1178 c 0,65,66
 240 1247 240 1247 186.5 1312 c 128,-1,67
 133 1377 133 1377 82 1402 c 1,68,69
 82 1416 82 1416 92 1428 c 128,-1,70
 102 1440 102 1440 114 1440 c 1,0,1
EndSplineSet
Validated: 1
Substitution2: "'smcp' Lowercase to Small Capitals lookup 12 subtable" braceright.sc
EndChar

StartChar: asciitilde
Encoding: 94 126 96
Width: 1140
GlyphClass: 2
Flags: W
LayerCount: 4
Fore
SplineSet
542 554 m 0,0,1
 495 571 495 571 469 580 c 128,-1,2
 443 589 443 589 398.5 597.5 c 128,-1,3
 354 606 354 606 312 606 c 0,4,5
 259 606 259 606 217 582.5 c 128,-1,6
 175 559 175 559 130 518 c 1,7,8
 112 527 112 527 112 552 c 0,9,10
 112 606 112 606 201 657 c 128,-1,11
 290 708 290 708 372 708 c 0,12,13
 416 708 416 708 463.5 698.5 c 128,-1,14
 511 689 511 689 533.5 681 c 128,-1,15
 556 673 556 673 610 654 c 0,16,17
 657 637 657 637 683.5 628 c 128,-1,18
 710 619 710 619 755 610.5 c 128,-1,19
 800 602 800 602 844 602 c 0,20,21
 858 602 858 602 872 604.5 c 128,-1,22
 886 607 886 607 896.5 609 c 128,-1,23
 907 611 907 611 920.5 618 c 128,-1,24
 934 625 934 625 941 628.5 c 128,-1,25
 948 632 948 632 962.5 642.5 c 128,-1,26
 977 653 977 653 981.5 656.5 c 128,-1,27
 986 660 986 660 1003 673.5 c 128,-1,28
 1020 687 1020 687 1024 690 c 1,29,30
 1042 681 1042 681 1042 656 c 0,31,32
 1042 605 1042 605 959.5 552.5 c 128,-1,33
 877 500 877 500 786 500 c 0,34,35
 740 500 740 500 694 508.5 c 128,-1,36
 648 517 648 517 618.5 526.5 c 128,-1,37
 589 536 589 536 542 554 c 0,0,1
EndSplineSet
Validated: 1
Substitution2: "'locl' Localized Forms in Arabic lookup 30-1" uni0653
Substitution2: "'smcp' Lowercase to Small Capitals lookup 12 subtable" asciitilde.sc
EndChar

StartChar: exclamdown
Encoding: 96 161 98
Width: 430
GlyphClass: 2
Flags: W
LayerCount: 4
Fore
SplineSet
106 748 m 128,-1,1
 106 793 106 793 137.5 826.5 c 128,-1,2
 169 860 169 860 214 860 c 128,-1,3
 259 860 259 860 292.5 826.5 c 128,-1,4
 326 793 326 793 326 748 c 128,-1,5
 326 703 326 703 292.5 671.5 c 128,-1,6
 259 640 259 640 214 640 c 128,-1,7
 169 640 169 640 137.5 671.5 c 128,-1,0
 106 703 106 703 106 748 c 128,-1,1
206 -446 m 0,8,9
 163 -446 163 -446 140.5 -410.5 c 128,-1,10
 118 -375 118 -375 118 -330 c 0,11,12
 118 -314 118 -314 121 -273.5 c 128,-1,13
 124 -233 124 -233 130 -157 c 128,-1,14
 136 -81 136 -81 143.5 1.5 c 128,-1,15
 151 84 151 84 163 224.5 c 128,-1,16
 175 365 175 365 186 494 c 1,17,18
 198 518 198 518 218 520 c 1,19,20
 239 512 239 512 246 498 c 1,21,22
 306 -192 306 -192 306 -330 c 0,23,24
 306 -375 306 -375 278.5 -410.5 c 128,-1,25
 251 -446 251 -446 206 -446 c 0,8,9
EndSplineSet
Validated: 1
Substitution2: "'smcp' Lowercase to Small Capitals lookup 12 subtable" exclamdown.sc
EndChar

StartChar: cent
Encoding: 97 162 99
Width: 892
GlyphClass: 2
Flags: W
LayerCount: 4
Fore
SplineSet
544 944 m 1,0,1
 600 944 600 944 600 932 c 2,2,-1
 434 -90 l 1,3,4
 378 -90 378 -90 378 -76 c 2,5,-1
 544 944 l 1,0,1
776 772 m 0,6,7
 776 723 776 723 753 699.5 c 128,-1,8
 730 676 730 676 700 676 c 0,9,10
 680 676 680 676 660 689 c 128,-1,11
 640 702 640 702 617.5 722.5 c 128,-1,12
 595 743 595 743 584 750 c 0,13,14
 550 773 550 773 528.5 780.5 c 128,-1,15
 507 788 507 788 470 788 c 0,16,17
 384 788 384 788 315 695.5 c 128,-1,18
 246 603 246 603 246 454 c 0,19,20
 246 286 246 286 336.5 201 c 128,-1,21
 427 116 427 116 570 116 c 0,22,23
 642 116 642 116 696.5 149 c 128,-1,24
 751 182 751 182 782 218 c 0,25,26
 783 218 783 218 787 214.5 c 128,-1,27
 791 211 791 211 794.5 204 c 128,-1,28
 798 197 798 197 798 190 c 0,29,30
 798 174 798 174 786 154 c 0,31,32
 770 128 770 128 746 102 c 128,-1,33
 722 76 722 76 686 48 c 128,-1,34
 650 20 650 20 599.5 2 c 128,-1,35
 549 -16 549 -16 494 -16 c 0,36,37
 377 -16 377 -16 283 42 c 128,-1,38
 189 100 189 100 139.5 191.5 c 128,-1,39
 90 283 90 283 90 388 c 0,40,41
 90 472 90 472 120.5 550 c 128,-1,42
 151 628 151 628 201.5 686 c 128,-1,43
 252 744 252 744 315 787.5 c 128,-1,44
 378 831 378 831 445.5 853.5 c 128,-1,45
 513 876 513 876 576 876 c 0,46,47
 684 876 684 876 756 828 c 0,48,49
 763 821 763 821 769.5 803.5 c 128,-1,50
 776 786 776 786 776 772 c 0,6,7
EndSplineSet
Validated: 5
EndChar

StartChar: sterling
Encoding: 98 163 100
Width: 954
GlyphClass: 2
Flags: W
LayerCount: 4
Fore
SplineSet
628 1272 m 0,0,1
 676 1272 676 1272 703.5 1262 c 128,-1,2
 731 1252 731 1252 772 1224 c 0,3,4
 779 1217 779 1217 785.5 1199.5 c 128,-1,5
 792 1182 792 1182 792 1168 c 0,6,7
 792 1119 792 1119 769 1095.5 c 128,-1,8
 746 1072 746 1072 716 1072 c 0,9,10
 701 1072 701 1072 684.5 1080.5 c 128,-1,11
 668 1089 668 1089 658.5 1097.5 c 128,-1,12
 649 1106 649 1106 632.5 1123 c 128,-1,13
 616 1140 616 1140 610 1146 c 0,14,15
 588 1167 588 1167 574 1173.5 c 128,-1,16
 560 1180 560 1180 540 1180 c 0,17,18
 490 1180 490 1180 458.5 1142 c 128,-1,19
 427 1104 427 1104 415.5 1048 c 128,-1,20
 404 992 404 992 404 918 c 0,21,22
 404 840 404 840 425 718 c 0,23,24
 428 700 428 700 431 684 c 1,25,-1
 762 684 l 1,26,27
 776 673 776 673 772.5 657.5 c 128,-1,28
 769 642 769 642 760.5 629.5 c 128,-1,29
 752 617 752 617 744 612 c 1,30,-1
 441 612 l 1,31,32
 446 570 446 570 446 544 c 0,33,34
 446 446 446 446 385.5 346 c 128,-1,35
 325 246 325 246 268 194 c 1,36,37
 300 210 300 210 338 210 c 0,38,39
 374 210 374 210 409 195.5 c 128,-1,40
 444 181 444 181 470.5 163 c 128,-1,41
 497 145 497 145 545.5 130.5 c 128,-1,42
 594 116 594 116 654 116 c 0,43,44
 692 116 692 116 728 135 c 128,-1,45
 764 154 764 154 789.5 184.5 c 128,-1,46
 815 215 815 215 829.5 236.5 c 128,-1,47
 844 258 844 258 854 278 c 0,48,49
 855 278 855 278 861.5 273.5 c 128,-1,50
 868 269 868 269 874 261 c 128,-1,51
 880 253 880 253 880 246 c 0,52,53
 880 234 880 234 874 216 c 0,54,55
 865 189 865 189 840.5 152.5 c 128,-1,56
 816 116 816 116 779 76.5 c 128,-1,57
 742 37 742 37 689.5 10.5 c 128,-1,58
 637 -16 637 -16 582 -16 c 0,59,60
 525 -16 525 -16 470.5 2 c 128,-1,61
 416 20 416 20 382 41 c 128,-1,62
 348 62 348 62 307 80 c 128,-1,63
 266 98 266 98 232 98 c 0,64,65
 204 98 204 98 184.5 78.5 c 128,-1,66
 165 59 165 59 148 29 c 128,-1,67
 131 -1 131 -1 120 -12 c 1,68,69
 108 -12 108 -12 98 3 c 128,-1,70
 88 18 88 18 88 32 c 0,71,72
 88 88 88 88 188 188 c 0,73,74
 231 231 231 231 263.5 311 c 128,-1,75
 296 391 296 391 296 462 c 0,76,77
 296 481 296 481 275 612 c 1,78,-1
 110 612 l 1,79,80
 101 621 101 621 121.5 652.5 c 128,-1,81
 142 684 142 684 156 684 c 2,82,-1
 264 684 l 1,83,84
 251 773 251 773 250 798 c 0,85,86
 250 806 250 806 250 815 c 0,87,88
 250 905 250 905 280 986 c 0,89,90
 312 1076 312 1076 365.5 1137.5 c 128,-1,91
 419 1199 419 1199 488.5 1235.5 c 128,-1,92
 558 1272 558 1272 628 1272 c 0,0,1
EndSplineSet
Validated: 1
EndChar

StartChar: currency
Encoding: 99 164 101
Width: 1148
GlyphClass: 2
Flags: W
LayerCount: 4
Fore
SplineSet
588 304 m 0,0,1
 677 304 677 304 733.5 388 c 128,-1,2
 790 472 790 472 790 588 c 0,3,4
 790 725 790 725 719.5 825.5 c 128,-1,5
 649 926 649 926 554 926 c 0,6,7
 465 926 465 926 407.5 840 c 128,-1,8
 350 754 350 754 350 638 c 0,9,10
 350 501 350 501 421.5 402.5 c 128,-1,11
 493 304 493 304 588 304 c 0,0,1
796 910 m 1,12,-1
 914 1020 l 2,13,14
 922 1028 922 1028 939 1015.5 c 128,-1,15
 956 1003 956 1003 972.5 979 c 128,-1,16
 989 955 989 955 996 932 c 1,17,-1
 876 820 l 1,18,19
 934 723 934 723 934 614 c 0,20,21
 934 495 934 495 868 398 c 1,22,-1
 976 282 l 2,23,24
 984 274 984 274 971.5 257 c 128,-1,25
 959 240 959 240 935 223.5 c 128,-1,26
 911 207 911 207 888 200 c 1,27,-1
 784 310 l 1,28,29
 689 240 689 240 572 240 c 0,30,31
 443 240 443 240 344 320 c 1,32,-1
 238 220 l 2,33,34
 230 212 230 212 213 224.5 c 128,-1,35
 196 237 196 237 179.5 261 c 128,-1,36
 163 285 163 285 156 308 c 1,37,-1
 264 410 l 1,38,39
 204 505 204 505 204 614 c 0,40,41
 204 745 204 745 280 846 c 1,42,-1
 176 958 l 2,43,44
 168 966 168 966 180.5 983 c 128,-1,45
 193 1000 193 1000 217 1016.5 c 128,-1,46
 241 1033 241 1033 264 1040 c 1,47,-1
 368 930 l 1,48,49
 458 992 458 992 572 992 c 0,50,51
 698 992 698 992 796 910 c 1,12,-1
EndSplineSet
Validated: 1
EndChar

StartChar: yen
Encoding: 100 165 102
Width: 1344
GlyphClass: 2
Flags: W
LayerCount: 4
Fore
SplineSet
602 436 m 1,0,-1
 406 436 l 1,1,2
 397 445 397 445 414.5 477.5 c 128,-1,3
 432 510 432 510 446 510 c 2,4,-1
 600 510 l 1,5,6
 597 528 597 528 588 546 c 0,7,8
 526 659 526 659 441.5 808 c 128,-1,9
 357 957 357 957 304 1052 c 0,10,11
 273 1106 273 1106 244.5 1135.5 c 128,-1,12
 216 1165 216 1165 172 1190 c 0,13,14
 148 1204 148 1204 114 1213 c 128,-1,15
 80 1222 80 1222 60 1222 c 0,16,17
 52 1222 52 1222 52 1247 c 128,-1,18
 52 1272 52 1272 60 1280 c 1,19,20
 94 1279 94 1279 142 1276 c 128,-1,21
 190 1273 190 1273 228 1271.5 c 128,-1,22
 266 1270 266 1270 310 1270 c 0,23,24
 366 1270 366 1270 566 1280 c 1,25,26
 570 1271 570 1271 569.5 1246.5 c 128,-1,27
 569 1222 569 1222 562 1222 c 0,28,29
 543 1222 543 1222 518 1217.5 c 128,-1,30
 493 1213 493 1213 467.5 1197.5 c 128,-1,31
 442 1182 442 1182 442 1158 c 0,32,33
 442 1137 442 1137 466 1098 c 2,34,-1
 744 622 l 1,35,36
 814 749 814 749 900 917.5 c 128,-1,37
 986 1086 986 1086 1008 1140 c 0,38,39
 1014 1158 1014 1158 1014 1170 c 0,40,41
 1014 1178 1014 1178 1001 1188.5 c 128,-1,42
 988 1199 988 1199 951.5 1209.5 c 128,-1,43
 915 1220 915 1220 864 1220 c 0,44,45
 860 1220 860 1220 858.5 1247 c 128,-1,46
 857 1274 857 1274 860 1278 c 1,47,48
 1045 1268 1045 1268 1066 1268 c 0,49,50
 1113 1268 1113 1268 1147.5 1269.5 c 128,-1,51
 1182 1271 1182 1271 1221 1274 c 128,-1,52
 1260 1277 1260 1277 1286 1278 c 1,53,54
 1289 1269 1289 1269 1287.5 1244.5 c 128,-1,55
 1286 1220 1286 1220 1282 1220 c 0,56,57
 1268 1220 1268 1220 1252.5 1218.5 c 128,-1,58
 1237 1217 1237 1217 1206 1210.5 c 128,-1,59
 1175 1204 1175 1204 1147.5 1186 c 128,-1,60
 1120 1168 1120 1168 1104 1140 c 0,61,62
 1043 1033 1043 1033 788 558 c 0,63,64
 780 543 780 543 778 510 c 1,65,-1
 970 510 l 1,66,67
 984 499 984 499 980 483 c 128,-1,68
 976 467 976 467 967 454 c 128,-1,69
 958 441 958 441 950 436 c 1,70,-1
 778 436 l 1,71,72
 777 393 777 393 777 350 c 1,73,-1
 970 350 l 1,74,75
 984 339 984 339 980 323 c 128,-1,76
 976 307 976 307 967 294 c 128,-1,77
 958 281 958 281 950 276 c 1,78,-1
 776 276 l 1,79,80
 776 232 l 0,81,82
 776 116 776 116 786 84 c 0,83,84
 790 70 790 70 842 61 c 128,-1,85
 894 52 894 52 924 52 c 1,86,87
 930 44 930 44 930.5 23 c 128,-1,88
 931 2 931 2 924 -6 c 1,89,90
 719 4 719 4 690 4 c 0,91,92
 659 4 659 4 454 -6 c 1,93,94
 447 2 447 2 447.5 23 c 128,-1,95
 448 44 448 44 454 52 c 1,96,97
 484 52 484 52 536 61 c 128,-1,98
 588 70 588 70 592 84 c 0,99,100
 602 116 602 116 602 232 c 2,101,-1
 602 276 l 1,102,-1
 406 276 l 1,103,104
 397 285 397 285 414.5 317.5 c 128,-1,105
 432 350 432 350 446 350 c 2,106,-1
 602 350 l 1,107,-1
 602 436 l 1,0,-1
EndSplineSet
Validated: 1
EndChar

StartChar: brokenbar
Encoding: 101 166 103
Width: 428
GlyphClass: 2
Flags: W
LayerCount: 4
Fore
SplineSet
267 800 m 2,0,1
 266 790 266 790 226 780 c 128,-1,2
 186 770 186 770 175 770 c 0,3,4
 170 770 170 770 167.5 771.5 c 128,-1,5
 165 773 165 773 164.5 774.5 c 128,-1,6
 164 776 164 776 164.5 780.5 c 128,-1,7
 165 785 165 785 165 786 c 2,8,-1
 165 1514 l 2,9,10
 163 1526 163 1526 175 1530 c 0,11,12
 209 1540 209 1540 251 1540 c 0,13,14
 259 1540 259 1540 263 1537 c 128,-1,15
 267 1534 267 1534 267 1531 c 2,16,-1
 267 1528 l 1,17,-1
 267 800 l 2,0,1
165 -230 m 2,18,-1
 165 498 l 2,19,20
 163 510 163 510 175 514 c 0,21,22
 209 524 209 524 251 524 c 0,23,24
 259 524 259 524 263 521 c 128,-1,25
 267 518 267 518 267 515 c 2,26,-1
 267 512 l 1,27,-1
 267 -216 l 2,28,29
 266 -226 266 -226 226 -236 c 128,-1,30
 186 -246 186 -246 175 -246 c 0,31,32
 170 -246 170 -246 167.5 -244.5 c 128,-1,33
 165 -243 165 -243 164.5 -241.5 c 128,-1,34
 164 -240 164 -240 164.5 -235.5 c 128,-1,35
 165 -231 165 -231 165 -230 c 2,18,-1
EndSplineSet
Validated: 1
EndChar

StartChar: section
Encoding: 102 167 104
Width: 882
GlyphClass: 2
Flags: W
LayerCount: 4
Fore
SplineSet
276 -156 m 0,0,1
 231 -156 231 -156 194 -140 c 1,2,3
 182 -116 182 -116 182 -88 c 0,4,5
 182 -66 182 -66 206.5 -41 c 128,-1,6
 231 -16 231 -16 254 -16 c 0,7,8
 266 -16 266 -16 277.5 -19 c 128,-1,9
 289 -22 289 -22 294.5 -24 c 128,-1,10
 300 -26 300 -26 312 -32.5 c 128,-1,11
 324 -39 324 -39 326 -40 c 0,12,13
 358 -56 358 -56 390 -56 c 0,14,15
 424 -56 424 -56 459.5 -45.5 c 128,-1,16
 495 -35 495 -35 523.5 -9 c 128,-1,17
 552 17 552 17 552 52 c 0,18,19
 552 113 552 113 477.5 205 c 128,-1,20
 403 297 403 297 308 384 c 0,21,22
 262 426 262 426 226.5 465.5 c 128,-1,23
 191 505 191 505 154 558 c 128,-1,24
 117 611 117 611 96.5 671 c 128,-1,25
 76 731 76 731 76 792 c 0,26,27
 76 892 76 892 174 1031 c 0,28,29
 255 1146 255 1146 319 1200 c 0,30,31
 330 1211 330 1211 342 1222 c 0,32,33
 444 1306 444 1306 608 1306 c 0,34,35
 653 1306 653 1306 690 1290 c 1,36,37
 702 1266 702 1266 702 1238 c 0,38,39
 702 1216 702 1216 677.5 1191 c 128,-1,40
 653 1166 653 1166 630 1166 c 0,41,42
 618 1166 618 1166 606.5 1169 c 128,-1,43
 595 1172 595 1172 589.5 1174 c 128,-1,44
 584 1176 584 1176 572 1182.5 c 128,-1,45
 560 1189 560 1189 558 1190 c 0,46,47
 526 1206 526 1206 494 1206 c 0,48,49
 460 1206 460 1206 424.5 1195.5 c 128,-1,50
 389 1185 389 1185 360.5 1159 c 128,-1,51
 332 1133 332 1133 332 1098 c 0,52,53
 332 1037 332 1037 406.5 945 c 128,-1,54
 481 853 481 853 576 766 c 0,55,56
 622 724 622 724 657.5 684.5 c 128,-1,57
 693 645 693 645 730 592 c 128,-1,58
 767 539 767 539 787.5 479 c 128,-1,59
 808 419 808 419 808 358 c 0,60,61
 808 258 808 258 710 119 c 0,62,63
 629 4 629 4 565 -50 c 0,64,65
 554 -61 554 -61 542 -72 c 0,66,67
 440 -156 440 -156 276 -156 c 0,0,1
642 103 m 1,68,69
 643 105 643 105 644 106 c 0,70,71
 662 134 662 134 668 146.5 c 128,-1,72
 674 159 674 159 683.5 181 c 128,-1,73
 693 203 693 203 696.5 224 c 128,-1,74
 700 245 700 245 700 270 c 0,75,76
 700 463 700 463 476 670 c 0,77,78
 471 674 471 674 439 703 c 128,-1,79
 407 732 407 732 397.5 741 c 128,-1,80
 388 750 388 750 360 778.5 c 128,-1,81
 332 807 332 807 321 822 c 128,-1,82
 310 837 310 837 290.5 864.5 c 128,-1,83
 271 892 271 892 262.5 913 c 128,-1,84
 254 934 254 934 247 961 c 128,-1,85
 240 988 240 988 240 1014 c 0,86,87
 240 1031 240 1031 242 1047 c 1,88,89
 241 1045 241 1045 240 1044 c 0,90,91
 222 1016 222 1016 216 1003.5 c 128,-1,92
 210 991 210 991 200.5 969 c 128,-1,93
 191 947 191 947 187.5 926 c 128,-1,94
 184 905 184 905 184 880 c 0,95,96
 184 687 184 687 408 480 c 0,97,98
 413 476 413 476 445 447 c 128,-1,99
 477 418 477 418 486.5 409 c 128,-1,100
 496 400 496 400 524 371.5 c 128,-1,101
 552 343 552 343 563 328 c 128,-1,102
 574 313 574 313 593.5 285.5 c 128,-1,103
 613 258 613 258 621.5 237 c 128,-1,104
 630 216 630 216 637 189 c 128,-1,105
 644 162 644 162 644 136 c 0,106,107
 644 119 644 119 642 103 c 1,68,69
EndSplineSet
Validated: 1
EndChar

StartChar: copyright
Encoding: 104 169 106
Width: 1318
GlyphClass: 2
Flags: W
LayerCount: 4
Fore
SplineSet
912 552 m 0,0,1
 912 543 912 543 896.5 487.5 c 128,-1,2
 881 432 881 432 872 428 c 0,3,4
 778 390 778 390 660 390 c 0,5,6
 539 390 539 390 456.5 471.5 c 128,-1,7
 374 553 374 553 374 672 c 0,8,9
 374 794 374 794 454 880 c 128,-1,10
 534 966 534 966 656 966 c 0,11,12
 781 966 781 966 880 928 c 1,13,14
 912 814 912 814 912 806 c 0,15,16
 912 799 912 799 901.5 793.5 c 128,-1,17
 891 788 891 788 880 788 c 0,18,19
 874 788 874 788 866 792 c 1,20,21
 863 805 863 805 853.5 820 c 128,-1,22
 844 835 844 835 824.5 854 c 128,-1,23
 805 873 805 873 767.5 885.5 c 128,-1,24
 730 898 730 898 680 898 c 0,25,26
 600 898 600 898 544 836 c 128,-1,27
 488 774 488 774 488 690 c 0,28,29
 488 578 488 578 553.5 516 c 128,-1,30
 619 454 619 454 698 454 c 0,31,32
 801 454 801 454 842 492 c 0,33,34
 852 502 852 502 859 518.5 c 128,-1,35
 866 535 866 535 868.5 546.5 c 128,-1,36
 871 558 871 558 872 558 c 0,37,38
 909 558 909 558 912 552 c 0,0,1
178 684 m 128,-1,40
 178 553 178 553 242.5 441.5 c 128,-1,41
 307 330 307 330 418 265 c 128,-1,42
 529 200 529 200 660 200 c 128,-1,43
 791 200 791 200 902.5 265 c 128,-1,44
 1014 330 1014 330 1079 441.5 c 128,-1,45
 1144 553 1144 553 1144 684 c 128,-1,46
 1144 815 1144 815 1079 926.5 c 128,-1,47
 1014 1038 1014 1038 902.5 1103 c 128,-1,48
 791 1168 791 1168 660 1168 c 128,-1,49
 529 1168 529 1168 418 1103 c 128,-1,50
 307 1038 307 1038 242.5 926.5 c 128,-1,39
 178 815 178 815 178 684 c 128,-1,40
112 684 m 128,-1,52
 112 910 112 910 272 1070 c 128,-1,53
 432 1230 432 1230 658 1230 c 0,54,55
 807 1230 807 1230 933 1157 c 128,-1,56
 1059 1084 1059 1084 1132.5 958 c 128,-1,57
 1206 832 1206 832 1206 684 c 128,-1,58
 1206 536 1206 536 1132.5 410 c 128,-1,59
 1059 284 1059 284 933 211 c 128,-1,60
 807 138 807 138 658 138 c 0,61,62
 432 138 432 138 272 298 c 128,-1,51
 112 458 112 458 112 684 c 128,-1,52
EndSplineSet
Validated: 1
EndChar

StartChar: ordfeminine
Encoding: 105 170 107
Width: 690
GlyphClass: 2
Flags: W
LayerCount: 4
Fore
SplineSet
302 572 m 0,0,1
 335 572 335 572 378.5 599.5 c 128,-1,2
 422 627 422 627 422 640 c 2,3,-1
 422 810 l 1,4,5
 409 806 409 806 379.5 797 c 128,-1,6
 350 788 350 788 327.5 781 c 128,-1,7
 305 774 305 774 294 770 c 0,8,9
 208 736 208 736 208 670 c 0,10,11
 208 631 208 631 235.5 601.5 c 128,-1,12
 263 572 263 572 302 572 c 0,0,1
376 1112 m 0,13,14
 436 1112 436 1112 482 1057 c 128,-1,15
 528 1002 528 1002 528 924 c 2,16,-1
 528 638 l 2,17,18
 528 572 528 572 570 572 c 0,19,20
 578 572 578 572 586.5 574.5 c 128,-1,21
 595 577 595 577 600.5 580 c 128,-1,22
 606 583 606 583 611 586 c 2,23,-1
 616 590 l 2,24,25
 622 590 622 590 622 580 c 0,26,27
 622 566 622 566 614 554 c 0,28,29
 599 539 599 539 564.5 519.5 c 128,-1,30
 530 500 530 500 510 500 c 0,31,32
 481 500 481 500 456.5 528 c 128,-1,33
 432 556 432 556 426 590 c 1,34,35
 407 571 407 571 347 534.5 c 128,-1,36
 287 498 287 498 256 498 c 0,37,38
 187 498 187 498 140.5 544 c 128,-1,39
 94 590 94 590 94 658 c 0,40,41
 94 697 94 697 116 727.5 c 128,-1,42
 138 758 138 758 164 768 c 0,43,44
 394 850 394 850 406 856 c 0,45,46
 417 861 417 861 419.5 866.5 c 128,-1,47
 422 872 422 872 422 890 c 2,48,-1
 422 928 l 2,49,50
 422 978 422 978 390 1015 c 128,-1,51
 358 1052 358 1052 304 1052 c 0,52,53
 269 1052 269 1052 251.5 1033.5 c 128,-1,54
 234 1015 234 1015 226 974 c 0,55,56
 215 908 215 908 162 908 c 0,57,58
 141 908 141 908 127.5 926 c 128,-1,59
 114 944 114 944 114 966 c 0,60,61
 114 990 114 990 124 1000 c 0,62,63
 165 1039 165 1039 236.5 1075.5 c 128,-1,64
 308 1112 308 1112 376 1112 c 0,13,14
EndSplineSet
Validated: 1
EndChar

StartChar: guillemotleft
Encoding: 106 171 108
Width: 964
GlyphClass: 2
Flags: W
LayerCount: 4
Fore
SplineSet
414 492 m 0,0,1
 414 506 414 506 424 528 c 1,2,3
 676 680 676 680 842 846 c 1,4,5
 877 835 877 835 886 822 c 1,6,7
 878 792 878 792 772 676.5 c 128,-1,8
 666 561 666 561 590 494 c 1,9,10
 666 427 666 427 772 311.5 c 128,-1,11
 878 196 878 196 886 166 c 1,12,13
 877 153 877 153 842 142 c 1,14,15
 676 308 676 308 424 460 c 1,16,17
 414 475 414 475 414 492 c 0,0,1
54 492 m 0,18,19
 54 506 54 506 64 528 c 1,20,21
 316 680 316 680 482 846 c 1,22,23
 517 835 517 835 526 822 c 1,24,25
 518 792 518 792 412 676.5 c 128,-1,26
 306 561 306 561 230 494 c 1,27,28
 306 427 306 427 412 311.5 c 128,-1,29
 518 196 518 196 526 166 c 1,30,31
 517 153 517 153 482 142 c 1,32,33
 316 308 316 308 64 460 c 1,34,35
 54 475 54 475 54 492 c 0,18,19
EndSplineSet
Validated: 1
EndChar

StartChar: logicalnot
Encoding: 107 172 109
Width: 1174
GlyphClass: 2
Flags: W
LayerCount: 4
Fore
SplineSet
1032 840 m 1,0,-1
 1032 338 l 2,1,2
 1030 336 1030 336 1016 329.5 c 128,-1,3
 1002 323 1002 323 979 315.5 c 128,-1,4
 956 308 956 308 938 308 c 0,5,6
 918 310 918 310 912 322 c 1,7,-1
 912 728 l 1,8,-1
 102 728 l 2,9,10
 90 728 90 728 90 748 c 0,11,12
 100 840 100 840 120 840 c 2,13,-1
 1032 840 l 1,0,-1
EndSplineSet
Validated: 1
EndChar

StartChar: degree
Encoding: 110 176 112
Width: 548
GlyphClass: 2
Flags: W
LayerCount: 4
Fore
SplineSet
150 1072 m 128,-1,1
 150 1021 150 1021 186.5 984.5 c 128,-1,2
 223 948 223 948 274 948 c 128,-1,3
 325 948 325 948 360.5 984.5 c 128,-1,4
 396 1021 396 1021 396 1072 c 128,-1,5
 396 1123 396 1123 360.5 1158.5 c 128,-1,6
 325 1194 325 1194 274 1194 c 128,-1,7
 223 1194 223 1194 186.5 1158.5 c 128,-1,0
 150 1123 150 1123 150 1072 c 128,-1,1
76 1072 m 128,-1,9
 76 1153 76 1153 134.5 1210.5 c 128,-1,10
 193 1268 193 1268 274 1268 c 128,-1,11
 355 1268 355 1268 412.5 1210.5 c 128,-1,12
 470 1153 470 1153 470 1072 c 128,-1,13
 470 991 470 991 412.5 932.5 c 128,-1,14
 355 874 355 874 274 874 c 128,-1,15
 193 874 193 874 134.5 932.5 c 128,-1,8
 76 991 76 991 76 1072 c 128,-1,9
EndSplineSet
Validated: 1
EndChar

StartChar: plusminus
Encoding: 111 177 113
Width: 1096
GlyphClass: 2
Flags: W
LayerCount: 4
Fore
SplineSet
98 124 m 1,0,1
 1010 124 l 0,2,3
 1017 124 1017 124 1022.5 117.5 c 128,-1,4
 1028 111 1028 111 1028 100 c 0,5,6
 1028 76 1028 76 1018.5 50.5 c 128,-1,7
 1009 25 1009 25 996 12 c 1,8,-1
 80 12 l 2,9,10
 68 12 68 12 68 32 c 0,11,12
 68 45 68 45 76.5 79.5 c 128,-1,13
 85 114 85 114 98 124 c 1,0,1
98 722 m 1,14,-1
 490 722 l 1,15,-1
 490 1122 l 1,16,17
 549 1144 549 1144 576 1144 c 0,18,19
 585 1144 585 1144 591.5 1141 c 128,-1,20
 598 1138 598 1138 600 1135 c 2,21,-1
 602 1132 l 1,22,-1
 602 722 l 1,23,-1
 1010 722 l 2,24,25
 1017 722 1017 722 1022.5 715.5 c 128,-1,26
 1028 709 1028 709 1028 698 c 0,27,28
 1028 674 1028 674 1018.5 648.5 c 128,-1,29
 1009 623 1009 623 996 610 c 1,30,-1
 602 610 l 1,31,-1
 602 206 l 1,32,33
 573 184 573 184 516 184 c 0,34,35
 506 184 506 184 498 190 c 128,-1,36
 490 196 490 196 490 202 c 2,37,-1
 490 610 l 1,38,-1
 80 610 l 2,39,40
 68 610 68 610 68 630 c 0,41,42
 68 643 68 643 76.5 677.5 c 128,-1,43
 85 712 85 712 98 722 c 1,14,-1
EndSplineSet
Validated: 1
EndChar

StartChar: uni00B2
Encoding: 112 178 114
Width: 716
GlyphClass: 2
Flags: W
LayerCount: 4
Fore
SplineSet
641 720 m 1,0,1
 633 699 633 699 608 622 c 128,-1,2
 583 545 583 545 567 508 c 1,3,-1
 103 508 l 2,4,5
 94 508 94 508 85 517 c 128,-1,6
 76 526 76 526 79 532 c 0,7,8
 105 560 105 560 164.5 620 c 128,-1,9
 224 680 224 680 273.5 733.5 c 128,-1,10
 323 787 323 787 359 836 c 0,11,12
 455 965 455 965 455 1060 c 0,13,14
 455 1124 455 1124 420 1164 c 128,-1,15
 385 1204 385 1204 323 1204 c 0,16,17
 281 1204 281 1204 245 1187 c 128,-1,18
 209 1170 209 1170 191 1152.5 c 128,-1,19
 173 1135 173 1135 149 1106 c 0,20,21
 143 1100 143 1100 128 1116 c 128,-1,22
 113 1132 113 1132 115 1140 c 0,23,24
 151 1203 151 1203 216 1248.5 c 128,-1,25
 281 1294 281 1294 347 1294 c 0,26,27
 452 1294 452 1294 518.5 1234 c 128,-1,28
 585 1174 585 1174 585 1080 c 0,29,30
 585 988 585 988 493 878 c 0,31,32
 464 843 464 843 243 618 c 1,33,-1
 483 618 l 2,34,35
 506 618 506 618 525.5 627 c 128,-1,36
 545 636 545 636 558 651 c 128,-1,37
 571 666 571 666 579 679 c 128,-1,38
 587 692 587 692 594.5 708 c 128,-1,39
 602 724 602 724 603 726 c 0,40,41
 605 729 605 729 613 732 c 0,42,43
 632 732 632 732 641 720 c 1,0,1
EndSplineSet
Validated: 1
EndChar

StartChar: mu
Encoding: 114 181 117
Width: 1082
GlyphClass: 2
Flags: W
LayerCount: 4
Fore
SplineSet
288 446 m 1,0,1
 288 315 288 315 314 221.5 c 128,-1,2
 340 128 340 128 390 128 c 0,3,4
 438 128 438 128 483.5 158 c 128,-1,5
 529 188 529 188 564.5 238 c 128,-1,6
 600 288 600 288 627 341.5 c 128,-1,7
 654 395 654 395 674 454 c 1,8,-1
 674 596 l 1,9,-1
 674 834 l 1,10,11
 699 874 699 874 722 874 c 0,12,13
 740 874 740 874 784 846 c 128,-1,14
 828 818 828 818 828 800 c 0,15,16
 828 790 828 790 826 772.5 c 128,-1,17
 824 755 824 755 820 726 c 2,18,-1
 810 668 l 2,19,20
 806 639 806 639 797.5 588 c 128,-1,21
 789 537 789 537 782 492 c 2,22,-1
 762 390 l 1,23,24
 762 278 762 278 799 205 c 128,-1,25
 836 132 836 132 902 132 c 0,26,27
 957 132 957 132 1004 192 c 1,28,29
 1011 192 1011 192 1022 174 c 0,30,31
 1028 162 1028 162 1028 152 c 0,32,33
 1008 85 1008 85 954.5 38.5 c 128,-1,34
 901 -8 901 -8 842 -8 c 0,35,36
 809 -7 809 -7 782.5 29.5 c 128,-1,37
 756 66 756 66 742 120 c 128,-1,38
 728 174 728 174 721 214 c 128,-1,39
 714 254 714 254 712 284 c 1,40,41
 688 227 688 227 657.5 177 c 128,-1,42
 627 127 627 127 588 81.5 c 128,-1,43
 549 36 549 36 500.5 9 c 128,-1,44
 452 -18 452 -18 402 -18 c 0,45,46
 313 -18 313 -18 276 202 c 1,47,48
 277 197 277 197 277 146 c 0,49,50
 276 120 276 120 276 82 c 0,51,52
 276 74 276 74 276 67 c 0,53,54
 276 -40 276 -40 283 -170 c 0,55,56
 290 -309 290 -309 310 -414 c 1,57,58
 285 -454 285 -454 262 -454 c 0,59,60
 244 -454 244 -454 200 -426 c 128,-1,61
 156 -398 156 -398 156 -380 c 0,62,63
 156 -317 156 -317 169.5 -21 c 128,-1,64
 183 275 183 275 198 408 c 0,65,66
 198 432 198 432 194 502.5 c 128,-1,67
 190 573 190 573 190 596 c 2,68,-1
 190 834 l 1,69,70
 215 874 215 874 238 874 c 0,71,72
 256 874 256 874 300 846 c 128,-1,73
 344 818 344 818 344 800 c 0,74,75
 344 707 344 707 298 492 c 2,76,-1
 288 446 l 1,0,1
EndSplineSet
Validated: 1
EndChar

StartChar: paragraph
Encoding: 115 182 118
Width: 968
GlyphClass: 2
Flags: W
LayerCount: 4
Fore
SplineSet
644 666 m 1,0,1
 644 1212 l 1,2,3
 634 1222 634 1222 586 1222 c 0,4,5
 542 1222 542 1222 530 1210 c 1,6,7
 530 656 l 1,8,9
 548 656 548 656 593.5 659 c 128,-1,10
 639 662 639 662 644 666 c 1,0,1
642 584 m 1,11,12
 634 583 634 583 610 581.5 c 128,-1,13
 586 580 586 580 565 578 c 2,14,-1
 530 576 l 1,15,-1
 530 232 l 2,16,17
 530 116 530 116 536 84 c 0,18,19
 538 72 538 72 586 72 c 0,20,21
 636 72 636 72 638 84 c 0,22,23
 644 116 644 116 644 232 c 2,24,-1
 642 584 l 1,11,12
722 598 m 1,25,-1
 722 232 l 2,26,27
 722 116 722 116 732 84 c 0,28,29
 736 69 736 69 786 57.5 c 128,-1,30
 836 46 836 46 862 46 c 0,31,32
 865 46 865 46 865 20.5 c 128,-1,33
 865 -5 865 -5 862 -8 c 0,34,35
 812 -6 812 -6 738 -1 c 128,-1,36
 664 4 664 4 594 4 c 0,37,38
 556 4 556 4 316 -8 c 1,39,40
 312 0 312 0 312.5 20.5 c 128,-1,41
 313 41 313 41 320 46 c 1,42,43
 341 46 341 46 389.5 58 c 128,-1,44
 438 70 438 70 442 84 c 0,45,46
 452 116 452 116 452 232 c 2,47,-1
 452 574 l 1,48,49
 361 574 361 574 285 611 c 128,-1,50
 209 648 209 648 163.5 704 c 128,-1,51
 118 760 118 760 93 821.5 c 128,-1,52
 68 883 68 883 68 938 c 0,53,54
 68 1043 68 1043 119.5 1128.5 c 128,-1,55
 171 1214 171 1214 249 1259 c 128,-1,56
 327 1304 327 1304 410 1304 c 0,57,58
 469 1304 469 1304 507 1300 c 128,-1,59
 545 1296 545 1296 604 1296 c 0,60,61
 664 1296 664 1296 724.5 1298.5 c 128,-1,62
 785 1301 785 1301 816 1304 c 2,63,-1
 846 1306 l 1,64,65
 853 1298 853 1298 852.5 1275.5 c 128,-1,66
 852 1253 852 1253 844 1248 c 1,67,68
 816 1248 816 1248 776.5 1236 c 128,-1,69
 737 1224 737 1224 730 1208 c 0,70,71
 724 1187 724 1187 724 1080 c 2,72,-1
 724 678 l 1,73,74
 728 677 728 677 752.5 683.5 c 128,-1,75
 777 690 777 690 800 697 c 2,76,-1
 822 704 l 1,77,78
 842 704 842 704 842 692 c 0,79,80
 841 678 841 678 818.5 650.5 c 128,-1,81
 796 623 796 623 784 618 c 0,82,83
 747 601 747 601 722 598 c 1,25,-1
EndSplineSet
Validated: 1
EndChar

StartChar: periodcentered
Encoding: 116 183 119
Width: 448
GlyphClass: 2
Flags: W
LayerCount: 4
Fore
SplineSet
108 528 m 128,-1,1
 108 576 108 576 142 610 c 128,-1,2
 176 644 176 644 224 644 c 128,-1,3
 272 644 272 644 306 610 c 128,-1,4
 340 576 340 576 340 528 c 128,-1,5
 340 480 340 480 306 445 c 128,-1,6
 272 410 272 410 224 410 c 128,-1,7
 176 410 176 410 142 445 c 128,-1,0
 108 480 108 480 108 528 c 128,-1,1
EndSplineSet
Validated: 1
EndChar

StartChar: uni00B9
Encoding: 118 185 121
Width: 584
GlyphClass: 2
Flags: W
LayerCount: 4
Fore
SplineSet
246 1036 m 2,0,1
 246 1099 246 1099 236.5 1118.5 c 128,-1,2
 227 1138 227 1138 208 1138 c 0,3,4
 187 1138 187 1138 96 1106 c 1,5,6
 78 1115 78 1115 78 1140 c 0,7,8
 78 1153 78 1153 84 1156 c 0,9,10
 177 1195 177 1195 251 1232 c 128,-1,11
 325 1269 325 1269 354 1286.5 c 128,-1,12
 383 1304 383 1304 384 1304 c 2,13,-1
 388 1304 l 2,14,15
 397 1304 397 1304 412 1258 c 1,16,17
 394 1174 394 1174 394 1096 c 2,18,-1
 394 680 l 2,19,20
 394 623 394 623 410 586 c 0,21,22
 414 577 414 577 455.5 567.5 c 128,-1,23
 497 558 497 558 514 558 c 0,24,25
 518 558 518 558 518 535 c 128,-1,26
 518 512 518 512 514 506 c 1,27,28
 489 507 489 507 428 509.5 c 128,-1,29
 367 512 367 512 322 512 c 128,-1,30
 277 512 277 512 211 509.5 c 128,-1,31
 145 507 145 507 122 506 c 1,32,33
 114 510 114 510 114 533 c 128,-1,34
 114 556 114 556 122 556 c 0,35,36
 144 556 144 556 187 565.5 c 128,-1,37
 230 575 230 575 234 584 c 0,38,39
 246 615 246 615 246 676 c 2,40,-1
 246 1036 l 2,0,1
EndSplineSet
Validated: 1
EndChar

StartChar: ordmasculine
Encoding: 119 186 122
Width: 776
GlyphClass: 2
Flags: W
LayerCount: 4
Fore
SplineSet
374 1060 m 0,0,1
 294 1060 294 1060 254 989 c 128,-1,2
 214 918 214 918 214 822 c 0,3,4
 214 712 214 712 265 627 c 128,-1,5
 316 542 316 542 408 542 c 0,6,7
 484 542 484 542 523 615 c 128,-1,8
 562 688 562 688 562 782 c 0,9,10
 562 851 562 851 543 912 c 128,-1,11
 524 973 524 973 480 1016.5 c 128,-1,12
 436 1060 436 1060 374 1060 c 0,0,1
392 1108 m 0,13,14
 522 1108 522 1108 611 1019.5 c 128,-1,15
 700 931 700 931 700 806 c 0,16,17
 700 680 700 680 610.5 587 c 128,-1,18
 521 494 521 494 392 494 c 0,19,20
 262 494 262 494 169 583.5 c 128,-1,21
 76 673 76 673 76 798 c 0,22,23
 76 926 76 926 167.5 1017 c 128,-1,24
 259 1108 259 1108 392 1108 c 0,13,14
EndSplineSet
Validated: 1
EndChar

StartChar: guillemotright
Encoding: 120 187 123
Width: 964
GlyphClass: 2
Flags: W
LayerCount: 4
Fore
SplineSet
554 492 m 0,0,1
 554 475 554 475 544 460 c 1,2,3
 292 308 292 308 126 142 c 1,4,5
 91 153 91 153 82 166 c 1,6,7
 90 196 90 196 196 311.5 c 128,-1,8
 302 427 302 427 378 494 c 1,9,10
 302 561 302 561 196 676.5 c 128,-1,11
 90 792 90 792 82 822 c 1,12,13
 91 835 91 835 126 846 c 1,14,15
 292 680 292 680 544 528 c 1,16,17
 554 506 554 506 554 492 c 0,0,1
914 492 m 0,18,19
 914 475 914 475 904 460 c 1,20,21
 652 308 652 308 486 142 c 1,22,23
 451 153 451 153 442 166 c 1,24,25
 450 196 450 196 556 311.5 c 128,-1,26
 662 427 662 427 738 494 c 1,27,28
 662 561 662 561 556 676.5 c 128,-1,29
 450 792 450 792 442 822 c 1,30,31
 451 835 451 835 486 846 c 1,32,33
 652 680 652 680 904 528 c 1,34,35
 914 506 914 506 914 492 c 0,18,19
EndSplineSet
Validated: 1
EndChar

StartChar: onequarter
Encoding: 121 188 124
Width: 1398
GlyphClass: 2
Flags: W
LayerCount: 4
Fore
SplineSet
1212 814 m 0,0,1
 1220 814 1220 814 1225 806.5 c 128,-1,2
 1230 799 1230 799 1230 790 c 2,3,-1
 1230 292 l 1,4,5
 1300 292 l 1,6,7
 1314 279 1314 279 1318.5 256.5 c 128,-1,8
 1323 234 1323 234 1312 212 c 1,9,-1
 1236 212 l 1,10,-1
 1236 0 l 1,11,12
 1230 -6 1230 -6 1176 -6 c 0,13,14
 1124 -6 1124 -6 1112 4 c 1,15,-1
 1112 212 l 1,16,-1
 782 212 l 2,17,18
 765 215 765 215 762 244 c 1,19,-1
 1172 790 l 2,20,21
 1191 814 1191 814 1212 814 c 0,0,1
1112 302 m 1,22,23
 1112 610 l 1,24,25
 1070 557 1070 557 999 458 c 128,-1,26
 928 359 928 359 884 302 c 1,27,-1
 1112 302 l 1,22,23
348 1068 m 2,28,-1
 348 672 l 2,29,30
 348 616 348 616 362 574 c 0,31,32
 365 565 365 565 405 555.5 c 128,-1,33
 445 546 445 546 462 546 c 1,34,35
 468 536 468 536 467.5 521.5 c 128,-1,36
 467 507 467 507 464 502 c 1,37,38
 434 503 434 503 385 505.5 c 128,-1,39
 336 508 336 508 292 508 c 128,-1,40
 248 508 248 508 191.5 505.5 c 128,-1,41
 135 503 135 503 108 502 c 1,42,43
 101 507 101 507 101.5 523.5 c 128,-1,44
 102 540 102 540 108 546 c 1,45,46
 129 546 129 546 166.5 556 c 128,-1,47
 204 566 204 566 208 576 c 0,48,49
 224 618 224 618 224 668 c 2,50,-1
 224 1040 l 2,51,52
 224 1069 224 1069 214.5 1089.5 c 128,-1,53
 205 1110 205 1110 190 1110 c 0,54,55
 180 1110 180 1110 167 1106.5 c 128,-1,56
 154 1103 154 1103 128.5 1093 c 128,-1,57
 103 1083 103 1083 94 1080 c 1,58,59
 77 1088 77 1088 68 1116 c 1,60,61
 95 1133 95 1133 338 1276 c 1,62,63
 349 1273 349 1273 356.5 1263.5 c 128,-1,64
 364 1254 364 1254 364 1244 c 0,65,66
 348 1146 348 1146 348 1068 c 2,28,-1
372 -25 m 0,67,68
 363 -23 363 -23 357 -19 c 128,-1,69
 351 -15 351 -15 350 -12 c 2,70,-1
 349 -8 l 1,71,-1
 1049 1273 l 2,72,73
 1050 1276 1050 1276 1058.5 1280.5 c 128,-1,74
 1067 1285 1067 1285 1080.5 1288 c 128,-1,75
 1094 1291 1094 1291 1111 1288 c 0,76,77
 1126 1285 1126 1285 1126 1268 c 1,78,-1
 436 4 l 2,79,80
 428 -8 428 -8 411 -19 c 128,-1,81
 394 -30 394 -30 372 -25 c 0,67,68
EndSplineSet
Validated: 1
EndChar

StartChar: onehalf
Encoding: 122 189 125
Width: 1500
GlyphClass: 2
Flags: W
LayerCount: 4
Fore
SplineSet
1138 784 m 0,0,1
 1243 784 1243 784 1309.5 724 c 128,-1,2
 1376 664 1376 664 1376 570 c 0,3,4
 1376 478 1376 478 1284 368 c 0,5,6
 1255 333 1255 333 1034 108 c 1,7,-1
 1274 108 l 2,8,9
 1297 108 1297 108 1316.5 117 c 128,-1,10
 1336 126 1336 126 1349 141 c 128,-1,11
 1362 156 1362 156 1370 169 c 128,-1,12
 1378 182 1378 182 1385.5 198 c 128,-1,13
 1393 214 1393 214 1394 216 c 0,14,15
 1396 219 1396 219 1404 222 c 0,16,17
 1423 222 1423 222 1432 210 c 1,18,19
 1424 189 1424 189 1399 112 c 128,-1,20
 1374 35 1374 35 1358 -2 c 1,21,-1
 894 -2 l 2,22,23
 885 -2 885 -2 876 7 c 128,-1,24
 867 16 867 16 870 22 c 0,25,26
 883 37 883 37 984.5 140.5 c 128,-1,27
 1086 244 1086 244 1134 304 c 0,28,29
 1246 445 1246 445 1246 550 c 0,30,31
 1246 614 1246 614 1211 654 c 128,-1,32
 1176 694 1176 694 1114 694 c 0,33,34
 1072 694 1072 694 1036 677 c 128,-1,35
 1000 660 1000 660 982 642.5 c 128,-1,36
 964 625 964 625 940 596 c 0,37,38
 934 590 934 590 919 606 c 128,-1,39
 904 622 904 622 906 630 c 0,40,41
 942 693 942 693 1007 738.5 c 128,-1,42
 1072 784 1072 784 1138 784 c 0,0,1
354 1068 m 2,43,-1
 354 672 l 2,44,45
 354 616 354 616 368 574 c 0,46,47
 371 565 371 565 411 555.5 c 128,-1,48
 451 546 451 546 468 546 c 1,49,50
 474 536 474 536 473.5 521.5 c 128,-1,51
 473 507 473 507 470 502 c 1,52,53
 440 503 440 503 391 505.5 c 128,-1,54
 342 508 342 508 298 508 c 128,-1,55
 254 508 254 508 197.5 505.5 c 128,-1,56
 141 503 141 503 114 502 c 1,57,58
 107 507 107 507 107.5 523.5 c 128,-1,59
 108 540 108 540 114 546 c 1,60,61
 135 546 135 546 172.5 556 c 128,-1,62
 210 566 210 566 214 576 c 0,63,64
 230 618 230 618 230 668 c 2,65,-1
 230 1040 l 2,66,67
 230 1069 230 1069 220.5 1089.5 c 128,-1,68
 211 1110 211 1110 196 1110 c 0,69,70
 186 1110 186 1110 173 1106.5 c 128,-1,71
 160 1103 160 1103 134.5 1093 c 128,-1,72
 109 1083 109 1083 100 1080 c 1,73,74
 83 1088 83 1088 74 1116 c 1,75,76
 101 1133 101 1133 344 1276 c 1,77,78
 355 1273 355 1273 362.5 1263.5 c 128,-1,79
 370 1254 370 1254 370 1244 c 0,80,81
 354 1146 354 1146 354 1068 c 2,43,-1
1128 1268 m 1,82,-1
 438 4 l 2,83,84
 430 -8 430 -8 413 -19 c 128,-1,85
 396 -30 396 -30 374 -25 c 0,86,87
 365 -23 365 -23 359 -19 c 128,-1,88
 353 -15 353 -15 352 -12 c 2,89,-1
 351 -8 l 1,90,-1
 1051 1273 l 2,91,92
 1052 1276 1052 1276 1060.5 1280.5 c 128,-1,93
 1069 1285 1069 1285 1082.5 1288 c 128,-1,94
 1096 1291 1096 1291 1113 1288 c 0,95,96
 1128 1285 1128 1285 1128 1268 c 1,82,-1
EndSplineSet
Validated: 1
EndChar

StartChar: threequarters
Encoding: 123 190 126
Width: 1400
GlyphClass: 2
Flags: W
LayerCount: 4
Fore
SplineSet
1214 814 m 0,0,1
 1222 814 1222 814 1227 806.5 c 128,-1,2
 1232 799 1232 799 1232 790 c 2,3,-1
 1232 292 l 1,4,5
 1302 292 l 1,6,7
 1316 279 1316 279 1320.5 256.5 c 128,-1,8
 1325 234 1325 234 1314 212 c 1,9,-1
 1238 212 l 1,10,-1
 1238 0 l 1,11,12
 1232 -6 1232 -6 1178 -6 c 0,13,14
 1126 -6 1126 -6 1114 4 c 1,15,-1
 1114 212 l 1,16,-1
 784 212 l 2,17,18
 767 215 767 215 764 244 c 1,19,-1
 1174 790 l 2,20,21
 1193 814 1193 814 1214 814 c 0,0,1
1114 302 m 1,22,23
 1114 610 l 1,24,25
 1072 557 1072 557 1001 458 c 128,-1,26
 930 359 930 359 886 302 c 1,27,-1
 1114 302 l 1,22,23
316 1292 m 0,28,29
 385 1292 385 1292 437.5 1251 c 128,-1,30
 490 1210 490 1210 490 1138 c 0,31,32
 490 1079 490 1079 453 1035 c 128,-1,33
 416 991 416 991 374 972 c 1,34,35
 425 972 425 972 489.5 916 c 128,-1,36
 554 860 554 860 554 772 c 0,37,38
 554 645 554 645 459.5 571.5 c 128,-1,39
 365 498 365 498 228 498 c 0,40,41
 192 498 192 498 150 506.5 c 128,-1,42
 108 515 108 515 94 528 c 0,43,44
 70 550 70 550 70 576 c 0,45,46
 70 605 70 605 88.5 623.5 c 128,-1,47
 107 642 107 642 132 642 c 0,48,49
 147 642 147 642 158.5 634 c 128,-1,50
 170 626 170 626 184 608 c 128,-1,51
 198 590 198 590 204 584 c 0,52,53
 234 554 234 554 282 554 c 0,54,55
 347 554 347 554 386.5 600.5 c 128,-1,56
 426 647 426 647 426 736 c 0,57,58
 426 808 426 808 382.5 858 c 128,-1,59
 339 908 339 908 282 908 c 0,60,61
 266 908 266 908 249 904.5 c 128,-1,62
 232 901 232 901 217.5 896.5 c 128,-1,63
 203 892 203 892 202 892 c 0,64,65
 196 898 196 898 192 916 c 0,66,67
 190 930 190 930 192 934 c 0,68,69
 272 950 272 950 325 996.5 c 128,-1,70
 378 1043 378 1043 378 1112 c 0,71,72
 378 1151 378 1151 346.5 1182.5 c 128,-1,73
 315 1214 315 1214 276 1214 c 0,74,75
 264 1214 264 1214 252 1212 c 128,-1,76
 240 1210 240 1210 229.5 1206 c 128,-1,77
 219 1202 219 1202 209.5 1197.5 c 128,-1,78
 200 1193 200 1193 191 1187 c 128,-1,79
 182 1181 182 1181 175.5 1176 c 128,-1,80
 169 1171 169 1171 161.5 1164.5 c 128,-1,81
 154 1158 154 1158 150 1154 c 2,82,-1
 142 1146 l 1,83,-1
 136 1140 l 1,84,85
 131 1142 131 1142 126.5 1149.5 c 128,-1,86
 122 1157 122 1157 119.5 1164 c 128,-1,87
 117 1171 117 1171 118 1172 c 0,88,89
 198 1292 198 1292 316 1292 c 0,28,29
1138 1268 m 1,90,-1
 448 4 l 2,91,92
 440 -8 440 -8 423 -19 c 128,-1,93
 406 -30 406 -30 384 -25 c 0,94,95
 375 -23 375 -23 369 -19 c 128,-1,96
 363 -15 363 -15 362 -12 c 2,97,-1
 361 -8 l 1,98,-1
 1061 1273 l 2,99,100
 1062 1276 1062 1276 1070.5 1280.5 c 128,-1,101
 1079 1285 1079 1285 1092.5 1288 c 128,-1,102
 1106 1291 1106 1291 1123 1288 c 0,103,104
 1138 1285 1138 1285 1138 1268 c 1,90,-1
EndSplineSet
Validated: 1
EndChar

StartChar: questiondown
Encoding: 124 191 127
Width: 690
GlyphClass: 2
Flags: W
LayerCount: 4
Fore
SplineSet
576 748 m 128,-1,1
 576 703 576 703 542.5 671.5 c 128,-1,2
 509 640 509 640 464 640 c 128,-1,3
 419 640 419 640 387.5 671.5 c 128,-1,4
 356 703 356 703 356 748 c 128,-1,5
 356 793 356 793 387.5 826.5 c 128,-1,6
 419 860 419 860 464 860 c 128,-1,7
 509 860 509 860 542.5 826.5 c 128,-1,0
 576 793 576 793 576 748 c 128,-1,1
510 498 m 0,8,9
 526 431 526 431 526 316 c 0,10,11
 526 276 526 276 515.5 241.5 c 128,-1,12
 505 207 505 207 492.5 185 c 128,-1,13
 480 163 480 163 455 140 c 128,-1,14
 430 117 430 117 414.5 106 c 128,-1,15
 399 95 399 95 370 77 c 0,16,17
 360 71 360 71 356 68 c 0,18,19
 315 42 315 42 298.5 31 c 128,-1,20
 282 20 282 20 253.5 -2.5 c 128,-1,21
 225 -25 225 -25 213.5 -41.5 c 128,-1,22
 202 -58 202 -58 192 -83 c 128,-1,23
 182 -108 182 -108 182 -136 c 0,24,25
 182 -211 182 -211 226 -255.5 c 128,-1,26
 270 -300 270 -300 330 -300 c 128,-1,27
 390 -300 390 -300 436.5 -279 c 128,-1,28
 483 -258 483 -258 502 -258 c 0,29,30
 529 -258 529 -258 559.5 -286 c 128,-1,31
 590 -314 590 -314 590 -358 c 0,32,33
 590 -407 590 -407 572 -432 c 1,34,35
 544 -446 544 -446 476 -446 c 0,36,37
 435 -446 435 -446 384 -430.5 c 128,-1,38
 333 -415 333 -415 280 -383 c 128,-1,39
 227 -351 227 -351 182.5 -308 c 128,-1,40
 138 -265 138 -265 110 -204 c 128,-1,41
 82 -143 82 -143 82 -76 c 0,42,43
 82 27 82 27 127.5 96.5 c 128,-1,44
 173 166 173 166 284 230 c 0,45,46
 326 255 326 255 378.5 296.5 c 128,-1,47
 431 338 431 338 440 354 c 0,48,49
 446 365 446 365 449 384.5 c 128,-1,50
 452 404 452 404 452.5 417.5 c 128,-1,51
 453 431 453 431 452.5 459 c 128,-1,52
 452 487 452 487 452 494 c 0,53,54
 464 518 464 518 484 520 c 1,55,56
 503 512 503 512 510 498 c 0,8,9
EndSplineSet
Validated: 1
Substitution2: "'smcp' Lowercase to Small Capitals lookup 12 subtable" questiondown.sc
EndChar

StartChar: AE
Encoding: 131 198 134
Width: 1794
GlyphClass: 2
Flags: W
LayerCount: 4
Fore
SplineSet
946 0 m 0,0,1
 886 0 886 0 828 -1.5 c 128,-1,2
 770 -3 770 -3 742 -4 c 2,3,-1
 714 -6 l 1,4,5
 710 -1 710 -1 709.5 13 c 128,-1,6
 709 27 709 27 710.5 39.5 c 128,-1,7
 712 52 712 52 714 52 c 0,8,9
 738 52 738 52 788.5 67 c 128,-1,10
 839 82 839 82 846 98 c 0,11,12
 860 152 860 152 860 270 c 2,13,-1
 860 510 l 1,14,15
 788 514 788 514 682 514 c 0,16,17
 631 514 631 514 478 504 c 1,18,-1
 468 498 l 1,19,20
 384 356 384 356 322 258 c 0,21,22
 242 134 242 134 242 104 c 0,23,24
 242 87 242 87 259 75.5 c 128,-1,25
 276 64 276 64 301 59.5 c 128,-1,26
 326 55 326 55 342.5 53.5 c 128,-1,27
 359 52 359 52 370 52 c 1,28,29
 374 48 374 48 375.5 25.5 c 128,-1,30
 377 3 377 3 374 -6 c 1,31,32
 345 -5 345 -5 311 -2 c 128,-1,33
 277 1 277 1 248 2.5 c 128,-1,34
 219 4 219 4 180 4 c 0,35,36
 139 4 139 4 109 2.5 c 128,-1,37
 79 1 79 1 42.5 -2 c 128,-1,38
 6 -5 6 -5 -28 -6 c 1,39,40
 -32 -2 -32 -2 -32 20 c 128,-1,41
 -32 42 -32 42 -28 52 c 1,42,43
 -10 52 -10 52 27.5 64.5 c 128,-1,44
 65 77 65 77 86 90 c 0,45,46
 149 130 149 130 236 274 c 2,47,-1
 790 1168 l 2,48,49
 804 1191 804 1191 804 1208 c 0,50,51
 804 1232 804 1232 772 1245 c 128,-1,52
 740 1258 740 1258 714 1258 c 1,53,54
 707 1268 707 1268 708.5 1290 c 128,-1,55
 710 1312 710 1312 714 1316 c 1,56,57
 812 1314 812 1314 946 1314 c 0,58,59
 1036 1314 1036 1314 1255.5 1321 c 128,-1,60
 1475 1328 1475 1328 1588 1328 c 1,61,62
 1596 1270 1596 1270 1618.5 1175 c 128,-1,63
 1641 1080 1641 1080 1646 1056 c 1,64,65
 1636 1046 1636 1046 1610 1046 c 0,66,67
 1585 1046 1585 1046 1582 1060 c 0,68,69
 1551 1171 1551 1171 1495.5 1209.5 c 128,-1,70
 1440 1248 1440 1248 1350 1248 c 2,71,-1
 1178 1248 l 2,72,73
 1047 1248 1047 1248 1040 1226 c 0,74,75
 1030 1193 1030 1193 1030 1112 c 0,76,77
 1030 1098 1030 1098 1030 1084 c 2,78,-1
 1030 710 l 2,79,80
 1029 703 1029 703 1053 700.5 c 128,-1,81
 1077 698 1077 698 1116 698 c 2,82,-1
 1222 698 l 2,83,84
 1272 698 1272 698 1300 699 c 128,-1,85
 1328 700 1328 700 1352.5 705 c 128,-1,86
 1377 710 1377 710 1388 718 c 128,-1,87
 1399 726 1399 726 1409 740.5 c 128,-1,88
 1419 755 1419 755 1424.5 775 c 128,-1,89
 1430 795 1430 795 1438 825 c 0,90,91
 1440 836 1440 836 1442 842 c 0,92,93
 1445 856 1445 856 1472 856 c 0,94,95
 1496 856 1496 856 1506 846 c 1,96,-1
 1506 468 l 1,97,98
 1498 460 1498 460 1474 460 c 0,99,100
 1448 460 1448 460 1442 476 c 0,101,102
 1421 555 1421 555 1411 576.5 c 128,-1,103
 1401 598 1401 598 1386 608 c 0,104,105
 1361 624 1361 624 1174 624 c 2,106,107
 1143 624 l 0,108,109
 1132 624 1132 624 1112 623.5 c 128,-1,110
 1092 623 1092 623 1080 622 c 128,-1,111
 1068 621 1068 621 1055 619 c 128,-1,112
 1042 617 1042 617 1036 613.5 c 128,-1,113
 1030 610 1030 610 1030 606 c 2,114,-1
 1030 226 l 2,115,116
 1030 216 1030 216 1030 205 c 0,117,118
 1030 177 1030 177 1032 143 c 0,119,120
 1034 95 1034 95 1042 88 c 0,121,122
 1060 74 1060 74 1086.5 71 c 128,-1,123
 1113 68 1113 68 1184 68 c 2,124,-1
 1280 68 l 2,125,126
 1352 68 1352 68 1421.5 82.5 c 128,-1,127
 1491 97 1491 97 1532 122 c 0,128,129
 1575 148 1575 148 1601 194.5 c 128,-1,130
 1627 241 1627 241 1658 324 c 0,131,132
 1661 336 1661 336 1686 336 c 0,133,134
 1724 336 1724 336 1736 324 c 1,135,136
 1727 298 1727 298 1706 241 c 128,-1,137
 1685 184 1685 184 1672.5 148.5 c 128,-1,138
 1660 113 1660 113 1646.5 68 c 128,-1,139
 1633 23 1633 23 1628 -8 c 1,140,141
 1525 -8 1525 -8 1305 -4 c 128,-1,142
 1085 0 1085 0 946 0 c 0,0,1
860 594 m 1,143,-1
 860 1132 l 1,144,-1
 532 600 l 2,145,146
 530 592 530 592 534 592 c 0,147,148
 586 590 586 590 692 590 c 0,149,150
 784 590 784 590 860 594 c 1,143,-1
EndSplineSet
Validated: 1
EndChar

StartChar: Eth
Encoding: 141 208 144
Width: 1420
GlyphClass: 2
Flags: W
LayerCount: 4
Fore
SplineSet
730 622 m 1,0,-1
 98 622 l 2,1,2
 94 622 94 622 92 636.5 c 128,-1,3
 90 651 90 651 92 669.5 c 128,-1,4
 94 688 94 688 100 696 c 1,5,-1
 730 696 l 2,6,7
 736 696 736 696 736 666 c 128,-1,8
 736 636 736 636 730 622 c 1,0,-1
415 1082 m 2,9,-1
 415 230 l 2,10,11
 415 100 415 100 427 86 c 0,12,13
 447 58 447 58 591 58 c 0,14,15
 700 58 700 58 794 92.5 c 128,-1,16
 888 127 888 127 962 195 c 128,-1,17
 1036 263 1036 263 1078.5 373.5 c 128,-1,18
 1121 484 1121 484 1121 626 c 0,19,20
 1121 758 1121 758 1090.5 864.5 c 128,-1,21
 1060 971 1060 971 1008 1042 c 128,-1,22
 956 1113 956 1113 884 1161 c 128,-1,23
 812 1209 812 1209 732 1230.5 c 128,-1,24
 652 1252 652 1252 563 1252 c 0,25,26
 432 1252 432 1252 425 1230 c 0,27,28
 415 1197 415 1197 415 1112 c 0,29,30
 415 1098 415 1098 415 1082 c 2,9,-1
617 1316 m 0,31,32
 778 1316 778 1316 911 1266.5 c 128,-1,33
 1044 1217 1044 1217 1133 1130.5 c 128,-1,34
 1222 1044 1222 1044 1270.5 925 c 128,-1,35
 1319 806 1319 806 1319 668 c 0,36,37
 1319 561 1319 561 1298 467 c 128,-1,38
 1277 373 1277 373 1224.5 284.5 c 128,-1,39
 1172 196 1172 196 1091.5 133 c 128,-1,40
 1011 70 1011 70 883 32 c 128,-1,41
 755 -6 755 -6 591 -6 c 2,42,-1
 91 -6 l 1,43,44
 84 2 84 2 84.5 23 c 128,-1,45
 85 44 85 44 91 52 c 1,46,47
 121 52 121 52 173 61 c 128,-1,48
 225 70 225 70 229 84 c 0,49,50
 239 116 239 116 239 232 c 2,51,-1
 239 1086 l 2,52,53
 239 1202 239 1202 229 1234 c 0,54,55
 225 1248 225 1248 173 1257 c 128,-1,56
 121 1266 121 1266 91 1266 c 1,57,58
 85 1274 85 1274 84.5 1295 c 128,-1,59
 84 1316 84 1316 91 1324 c 1,60,61
 296 1314 296 1314 327 1314 c 0,62,63
 365 1314 365 1314 468.5 1315 c 128,-1,64
 572 1316 572 1316 617 1316 c 0,31,32
EndSplineSet
Validated: 5
EndChar

StartChar: multiply
Encoding: 148 215 151
Width: 928
GlyphClass: 2
Flags: W
LayerCount: 4
Fore
SplineSet
398 494 m 1,0,-1
 110 782 l 1,1,2
 110 803 110 803 127.5 830.5 c 128,-1,3
 145 858 145 858 158 858 c 0,4,5
 168 858 168 858 172 854 c 0,6,7
 466 570 466 570 470 566 c 1,8,-1
 760 854 l 2,9,10
 764 858 764 858 772 858 c 0,11,12
 784 858 784 858 800 826.5 c 128,-1,13
 816 795 816 795 816 778 c 1,14,15
 542 506 542 506 536 500 c 1,16,-1
 816 210 l 1,17,18
 816 186 816 186 802 158 c 128,-1,19
 788 130 788 130 772 130 c 0,20,21
 762 130 762 130 758 134 c 2,22,-1
 464 428 l 1,23,-1
 166 132 l 2,24,25
 162 128 162 128 154 128 c 0,26,27
 142 128 142 128 126 160.5 c 128,-1,28
 110 193 110 193 110 210 c 1,29,30
 390 486 390 486 398 494 c 1,0,-1
EndSplineSet
Validated: 1
Substitution2: "'smcp' Lowercase to Small Capitals lookup 12 subtable" multiply.sc
EndChar

StartChar: Oslash
Encoding: 149 216 152
Width: 1496
GlyphClass: 2
Flags: W
LayerCount: 4
Fore
SplineSet
1130 1334 m 1,0,1
 1146 1330 1146 1330 1169.5 1314 c 128,-1,2
 1193 1298 1193 1298 1188 1290 c 2,3,-1
 352 -26 l 1,4,5
 335 -20 335 -20 312 -4 c 128,-1,6
 289 12 289 12 294 20 c 2,7,-1
 1130 1334 l 1,0,1
716 1266 m 0,8,9
 629 1266 629 1266 557.5 1232.5 c 128,-1,10
 486 1199 486 1199 438.5 1144 c 128,-1,11
 391 1089 391 1089 358 1015 c 128,-1,12
 325 941 325 941 310.5 862 c 128,-1,13
 296 783 296 783 296 700 c 0,14,15
 296 582 296 582 328.5 467 c 128,-1,16
 361 352 361 352 420 258 c 128,-1,17
 479 164 479 164 572.5 106 c 128,-1,18
 666 48 666 48 778 48 c 0,19,20
 865 48 865 48 937 81.5 c 128,-1,21
 1009 115 1009 115 1056.5 170.5 c 128,-1,22
 1104 226 1104 226 1137.5 300.5 c 128,-1,23
 1171 375 1171 375 1185.5 455 c 128,-1,24
 1200 535 1200 535 1200 618 c 0,25,26
 1200 736 1200 736 1167 850.5 c 128,-1,27
 1134 965 1134 965 1074.5 1058 c 128,-1,28
 1015 1151 1015 1151 921.5 1208.5 c 128,-1,29
 828 1266 828 1266 716 1266 c 0,8,9
746 1334 m 0,30,31
 877 1334 877 1334 996 1283.5 c 128,-1,32
 1115 1233 1115 1233 1204 1145 c 128,-1,33
 1293 1057 1293 1057 1345.5 929.5 c 128,-1,34
 1398 802 1398 802 1398 656 c 0,35,36
 1398 519 1398 519 1345.5 393.5 c 128,-1,37
 1293 268 1293 268 1204.5 177.5 c 128,-1,38
 1116 87 1116 87 996 33.5 c 128,-1,39
 876 -20 876 -20 746 -20 c 0,40,41
 615 -20 615 -20 496.5 30.5 c 128,-1,42
 378 81 378 81 290 169 c 128,-1,43
 202 257 202 257 150 384 c 128,-1,44
 98 511 98 511 98 656 c 0,45,46
 98 794 98 794 150 919.5 c 128,-1,47
 202 1045 202 1045 289.5 1135.5 c 128,-1,48
 377 1226 377 1226 496.5 1280 c 128,-1,49
 616 1334 616 1334 746 1334 c 0,30,31
EndSplineSet
Validated: 5
EndChar

StartChar: Thorn
Encoding: 155 222 158
Width: 1096
GlyphClass: 2
Flags: W
LayerCount: 4
Fore
SplineSet
327 1314 m 0,0,1
 356 1314 356 1314 561 1324 c 1,2,3
 568 1316 568 1316 567.5 1295 c 128,-1,4
 567 1274 567 1274 561 1266 c 1,5,6
 531 1266 531 1266 479 1257 c 128,-1,7
 427 1248 427 1248 423 1234 c 0,8,9
 413 1201 413 1201 413 1116 c 0,10,11
 413 1102 413 1102 413 1086 c 2,12,-1
 413 960 l 1,13,14
 446 984 446 984 500 998 c 128,-1,15
 554 1012 554 1012 588.5 1015 c 128,-1,16
 623 1018 623 1018 650 1018 c 0,17,18
 712 1018 712 1018 778.5 993.5 c 128,-1,19
 845 969 845 969 903.5 925.5 c 128,-1,20
 962 882 962 882 999 811.5 c 128,-1,21
 1036 741 1036 741 1036 658 c 0,22,23
 1036 476 1036 476 914.5 366 c 128,-1,24
 793 256 793 256 596 256 c 0,25,26
 542 256 542 256 510 272 c 1,27,28
 482 291 482 291 482 316 c 0,29,30
 482 318 482 318 483 320.5 c 128,-1,31
 484 323 484 323 486 325 c 128,-1,32
 488 327 488 327 492 326 c 0,33,34
 543 312 543 312 568 312 c 0,35,36
 692 312 692 312 772 395 c 128,-1,37
 852 478 852 478 852 624 c 0,38,39
 852 771 852 771 776.5 855.5 c 128,-1,40
 701 940 701 940 576 940 c 0,41,42
 545 940 545 940 496 925.5 c 128,-1,43
 447 911 447 911 428 880 c 0,44,45
 413 856 413 856 413 720 c 2,46,-1
 413 232 l 2,47,48
 413 216 413 216 413 202 c 0,49,50
 413 117 413 117 423 84 c 0,51,52
 427 70 427 70 479 61 c 128,-1,53
 531 52 531 52 561 52 c 1,54,55
 567 44 567 44 567.5 23 c 128,-1,56
 568 2 568 2 561 -6 c 1,57,58
 356 4 356 4 327 4 c 0,59,60
 296 4 296 4 91 -6 c 1,61,62
 84 2 84 2 84.5 23 c 128,-1,63
 85 44 85 44 91 52 c 1,64,65
 121 52 121 52 173 61 c 128,-1,66
 225 70 225 70 229 84 c 0,67,68
 239 116 239 116 239 232 c 2,69,-1
 239 1086 l 2,70,71
 239 1202 239 1202 229 1234 c 0,72,73
 225 1248 225 1248 173 1257 c 128,-1,74
 121 1266 121 1266 91 1266 c 1,75,76
 85 1274 85 1274 84.5 1295 c 128,-1,77
 84 1316 84 1316 91 1324 c 1,78,79
 296 1314 296 1314 327 1314 c 0,0,1
EndSplineSet
Validated: 1
EndChar

StartChar: germandbls
Encoding: 156 223 159
Width: 1074
GlyphClass: 2
Flags: W
LayerCount: 4
Fore
SplineSet
535 1386 m 0,0,1
 608 1386 608 1386 670 1371 c 128,-1,2
 732 1356 732 1356 781.5 1325 c 128,-1,3
 831 1294 831 1294 859 1242 c 128,-1,4
 887 1190 887 1190 887 1122 c 0,5,6
 887 1002 887 1002 769 894 c 0,7,8
 751 877 751 877 714.5 847 c 128,-1,9
 678 817 678 817 660.5 801 c 128,-1,10
 643 785 643 785 627 762 c 128,-1,11
 611 739 611 739 611 718 c 0,12,13
 611 689 611 689 626.5 662.5 c 128,-1,14
 642 636 642 636 675.5 611 c 128,-1,15
 709 586 709 586 735 570 c 128,-1,16
 761 554 761 554 807 530 c 0,17,18
 844 510 844 510 866.5 497 c 128,-1,19
 889 484 889 484 922.5 458.5 c 128,-1,20
 956 433 956 433 975 409 c 128,-1,21
 994 385 994 385 1008.5 349.5 c 128,-1,22
 1023 314 1023 314 1023 274 c 0,23,24
 1023 154 1023 154 947 67 c 128,-1,25
 871 -20 871 -20 759 -20 c 0,26,27
 675 -20 675 -20 607.5 8 c 128,-1,28
 540 36 540 36 523 66 c 1,29,30
 523 84 523 84 524 92 c 0,31,32
 531 182 531 182 591 182 c 0,33,34
 602 182 602 182 611 177.5 c 128,-1,35
 620 173 620 173 628.5 163.5 c 128,-1,36
 637 154 637 154 642.5 146 c 128,-1,37
 648 138 648 138 657.5 122.5 c 128,-1,38
 667 107 667 107 672 99 c 0,39,40
 710 42 710 42 763 42 c 0,41,42
 818 42 818 42 852.5 86 c 128,-1,43
 887 130 887 130 887 204 c 0,44,45
 887 237 887 237 874.5 263.5 c 128,-1,46
 862 290 862 290 833.5 313 c 128,-1,47
 805 336 805 336 783 349.5 c 128,-1,48
 761 363 761 363 718 386 c 0,49,50
 689 401 689 401 681.5 405.5 c 128,-1,51
 674 410 674 410 647.5 425 c 128,-1,52
 621 440 621 440 612 447 c 128,-1,53
 603 454 603 454 582 470.5 c 128,-1,54
 561 487 561 487 552.5 498.5 c 128,-1,55
 544 510 544 510 530 528.5 c 128,-1,56
 516 547 516 547 510.5 564 c 128,-1,57
 505 581 505 581 500 603.5 c 128,-1,58
 495 626 495 626 495 650 c 0,59,60
 495 680 495 680 510 709.5 c 128,-1,61
 525 739 525 739 542 757.5 c 128,-1,62
 559 776 559 776 592 808.5 c 128,-1,63
 625 841 625 841 642 860 c 0,64,65
 737 966 737 966 737 1098 c 0,66,67
 737 1198 737 1198 686 1259 c 128,-1,68
 635 1320 635 1320 541 1320 c 0,69,70
 498 1320 498 1320 465 1304.5 c 128,-1,71
 432 1289 432 1289 411.5 1259.5 c 128,-1,72
 391 1230 391 1230 377.5 1197 c 128,-1,73
 364 1164 364 1164 357.5 1118 c 128,-1,74
 351 1072 351 1072 349 1035 c 128,-1,75
 347 998 347 998 347 950 c 2,76,-1
 347 232 l 2,77,78
 347 116 347 116 357 84 c 0,79,80
 361 70 361 70 411 61 c 128,-1,81
 461 52 461 52 491 52 c 1,82,83
 497 44 497 44 497.5 23 c 128,-1,84
 498 2 498 2 491 -6 c 1,85,86
 286 4 286 4 269 4 c 0,87,88
 234 4 234 4 201.5 2.5 c 128,-1,89
 169 1 169 1 127 -2 c 128,-1,90
 85 -5 85 -5 57 -6 c 1,91,92
 50 2 50 2 50.5 23 c 128,-1,93
 51 44 51 44 57 52 c 1,94,95
 86 52 86 52 132.5 61 c 128,-1,96
 179 70 179 70 183 84 c 0,97,98
 193 116 193 116 193 232 c 2,99,-1
 193 782 l 1,100,-1
 77 782 l 2,101,102
 67 782 67 782 67 800 c 0,103,104
 67 805 67 805 89 830.5 c 128,-1,105
 111 856 111 856 119 864 c 1,106,-1
 193 864 l 1,107,-1
 193 876 l 2,108,109
 193 995 193 995 244.5 1114.5 c 128,-1,110
 296 1234 296 1234 376.5 1310 c 128,-1,111
 457 1386 457 1386 535 1386 c 0,0,1
EndSplineSet
Validated: 1
Substitution2: "'smcp' Lowercase to Small Capitals lookup 12 subtable" germandbls.sc
EndChar

